<svg xmlns="http://www.w3.org/2000/svg" viewBox="0 0 1520 2300" width="100%" height="100%" style="background: transparent;">
  <defs>
    <filter id="drop-shadow" x="-10%" y="-10%" width="130%" height="130%">
      <feDropShadow dx="0" dy="2" stdDeviation="3" flood-opacity="0.08"/>
    </filter>
    <filter id="drop-shadow-lg" x="-15%" y="-15%" width="140%" height="140%">
      <feDropShadow dx="0" dy="4" stdDeviation="6" flood-opacity="0.18"/>
    </filter>
  </defs>

  <!-- Connectors -->
  <g class="connectors">
    <path d="M 310 1150.0 C 341.5 1150.0, 348.5 368.0, 380 368.0" fill="none" stroke="#2563eb" stroke-width="3" stroke-linecap="round" opacity="0.85"/><path d="M 600 368.0 C 636.0 368.0, 644.0 152.0, 680 152.0" fill="none" stroke="#93c5fd" stroke-width="2" stroke-linecap="round" opacity="0.9"/><path d="M 920 152.0 C 951.5 152.0, 958.5 104.0, 990 104.0" fill="none" stroke="#cbd5e1" stroke-width="1.5" stroke-dasharray="3,3"/><path d="M 920 152.0 C 951.5 152.0, 958.5 152.0, 990 152.0" fill="none" stroke="#cbd5e1" stroke-width="1.5" stroke-dasharray="3,3"/><path d="M 920 152.0 C 951.5 152.0, 958.5 200.0, 990 200.0" fill="none" stroke="#cbd5e1" stroke-width="1.5" stroke-dasharray="3,3"/><path d="M 600 368.0 C 636.0 368.0, 644.0 296.0, 680 296.0" fill="none" stroke="#93c5fd" stroke-width="2" stroke-linecap="round" opacity="0.9"/><path d="M 920 296.0 C 951.5 296.0, 958.5 248.0, 990 248.0" fill="none" stroke="#cbd5e1" stroke-width="1.5" stroke-dasharray="3,3"/><path d="M 920 296.0 C 951.5 296.0, 958.5 296.0, 990 296.0" fill="none" stroke="#cbd5e1" stroke-width="1.5" stroke-dasharray="3,3"/><path d="M 920 296.0 C 951.5 296.0, 958.5 344.0, 990 344.0" fill="none" stroke="#cbd5e1" stroke-width="1.5" stroke-dasharray="3,3"/><path d="M 600 368.0 C 636.0 368.0, 644.0 440.0, 680 440.0" fill="none" stroke="#93c5fd" stroke-width="2" stroke-linecap="round" opacity="0.9"/><path d="M 920 440.0 C 951.5 440.0, 958.5 392.0, 990 392.0" fill="none" stroke="#cbd5e1" stroke-width="1.5" stroke-dasharray="3,3"/><path d="M 920 440.0 C 951.5 440.0, 958.5 440.0, 990 440.0" fill="none" stroke="#cbd5e1" stroke-width="1.5" stroke-dasharray="3,3"/><path d="M 920 440.0 C 951.5 440.0, 958.5 488.0, 990 488.0" fill="none" stroke="#cbd5e1" stroke-width="1.5" stroke-dasharray="3,3"/><path d="M 600 368.0 C 636.0 368.0, 644.0 584.0, 680 584.0" fill="none" stroke="#93c5fd" stroke-width="2" stroke-linecap="round" opacity="0.9"/><path d="M 920 584.0 C 951.5 584.0, 958.5 536.0, 990 536.0" fill="none" stroke="#cbd5e1" stroke-width="1.5" stroke-dasharray="3,3"/><path d="M 920 584.0 C 951.5 584.0, 958.5 584.0, 990 584.0" fill="none" stroke="#cbd5e1" stroke-width="1.5" stroke-dasharray="3,3"/><path d="M 920 584.0 C 951.5 584.0, 958.5 632.0, 990 632.0" fill="none" stroke="#cbd5e1" stroke-width="1.5" stroke-dasharray="3,3"/><path d="M 310 1150.0 C 341.5 1150.0, 348.5 944.0, 380 944.0" fill="none" stroke="#059669" stroke-width="3" stroke-linecap="round" opacity="0.85"/><path d="M 600 944.0 C 636.0 944.0, 644.0 728.0, 680 728.0" fill="none" stroke="#6ee7b7" stroke-width="2" stroke-linecap="round" opacity="0.9"/><path d="M 920 728.0 C 951.5 728.0, 958.5 680.0, 990 680.0" fill="none" stroke="#cbd5e1" stroke-width="1.5" stroke-dasharray="3,3"/><path d="M 920 728.0 C 951.5 728.0, 958.5 728.0, 990 728.0" fill="none" stroke="#cbd5e1" stroke-width="1.5" stroke-dasharray="3,3"/><path d="M 920 728.0 C 951.5 728.0, 958.5 776.0, 990 776.0" fill="none" stroke="#cbd5e1" stroke-width="1.5" stroke-dasharray="3,3"/><path d="M 600 944.0 C 636.0 944.0, 644.0 872.0, 680 872.0" fill="none" stroke="#6ee7b7" stroke-width="2" stroke-linecap="round" opacity="0.9"/><path d="M 920 872.0 C 951.5 872.0, 958.5 824.0, 990 824.0" fill="none" stroke="#cbd5e1" stroke-width="1.5" stroke-dasharray="3,3"/><path d="M 920 872.0 C 951.5 872.0, 958.5 872.0, 990 872.0" fill="none" stroke="#cbd5e1" stroke-width="1.5" stroke-dasharray="3,3"/><path d="M 920 872.0 C 951.5 872.0, 958.5 920.0, 990 920.0" fill="none" stroke="#cbd5e1" stroke-width="1.5" stroke-dasharray="3,3"/><path d="M 600 944.0 C 636.0 944.0, 644.0 1016.0, 680 1016.0" fill="none" stroke="#6ee7b7" stroke-width="2" stroke-linecap="round" opacity="0.9"/><path d="M 920 1016.0 C 951.5 1016.0, 958.5 968.0, 990 968.0" fill="none" stroke="#cbd5e1" stroke-width="1.5" stroke-dasharray="3,3"/><path d="M 920 1016.0 C 951.5 1016.0, 958.5 1016.0, 990 1016.0" fill="none" stroke="#cbd5e1" stroke-width="1.5" stroke-dasharray="3,3"/><path d="M 920 1016.0 C 951.5 1016.0, 958.5 1064.0, 990 1064.0" fill="none" stroke="#cbd5e1" stroke-width="1.5" stroke-dasharray="3,3"/><path d="M 600 944.0 C 636.0 944.0, 644.0 1160.0, 680 1160.0" fill="none" stroke="#6ee7b7" stroke-width="2" stroke-linecap="round" opacity="0.9"/><path d="M 920 1160.0 C 951.5 1160.0, 958.5 1112.0, 990 1112.0" fill="none" stroke="#cbd5e1" stroke-width="1.5" stroke-dasharray="3,3"/><path d="M 920 1160.0 C 951.5 1160.0, 958.5 1160.0, 990 1160.0" fill="none" stroke="#cbd5e1" stroke-width="1.5" stroke-dasharray="3,3"/><path d="M 920 1160.0 C 951.5 1160.0, 958.5 1208.0, 990 1208.0" fill="none" stroke="#cbd5e1" stroke-width="1.5" stroke-dasharray="3,3"/><path d="M 310 1150.0 C 341.5 1150.0, 348.5 1520.0, 380 1520.0" fill="none" stroke="#d97706" stroke-width="3" stroke-linecap="round" opacity="0.85"/><path d="M 600 1520.0 C 636.0 1520.0, 644.0 1304.0, 680 1304.0" fill="none" stroke="#fcd34d" stroke-width="2" stroke-linecap="round" opacity="0.9"/><path d="M 920 1304.0 C 951.5 1304.0, 958.5 1256.0, 990 1256.0" fill="none" stroke="#cbd5e1" stroke-width="1.5" stroke-dasharray="3,3"/><path d="M 920 1304.0 C 951.5 1304.0, 958.5 1304.0, 990 1304.0" fill="none" stroke="#cbd5e1" stroke-width="1.5" stroke-dasharray="3,3"/><path d="M 920 1304.0 C 951.5 1304.0, 958.5 1352.0, 990 1352.0" fill="none" stroke="#cbd5e1" stroke-width="1.5" stroke-dasharray="3,3"/><path d="M 600 1520.0 C 636.0 1520.0, 644.0 1448.0, 680 1448.0" fill="none" stroke="#fcd34d" stroke-width="2" stroke-linecap="round" opacity="0.9"/><path d="M 920 1448.0 C 951.5 1448.0, 958.5 1400.0, 990 1400.0" fill="none" stroke="#cbd5e1" stroke-width="1.5" stroke-dasharray="3,3"/><path d="M 920 1448.0 C 951.5 1448.0, 958.5 1448.0, 990 1448.0" fill="none" stroke="#cbd5e1" stroke-width="1.5" stroke-dasharray="3,3"/><path d="M 920 1448.0 C 951.5 1448.0, 958.5 1496.0, 990 1496.0" fill="none" stroke="#cbd5e1" stroke-width="1.5" stroke-dasharray="3,3"/><path d="M 600 1520.0 C 636.0 1520.0, 644.0 1592.0, 680 1592.0" fill="none" stroke="#fcd34d" stroke-width="2" stroke-linecap="round" opacity="0.9"/><path d="M 920 1592.0 C 951.5 1592.0, 958.5 1544.0, 990 1544.0" fill="none" stroke="#cbd5e1" stroke-width="1.5" stroke-dasharray="3,3"/><path d="M 920 1592.0 C 951.5 1592.0, 958.5 1592.0, 990 1592.0" fill="none" stroke="#cbd5e1" stroke-width="1.5" stroke-dasharray="3,3"/><path d="M 920 1592.0 C 951.5 1592.0, 958.5 1640.0, 990 1640.0" fill="none" stroke="#cbd5e1" stroke-width="1.5" stroke-dasharray="3,3"/><path d="M 600 1520.0 C 636.0 1520.0, 644.0 1736.0, 680 1736.0" fill="none" stroke="#fcd34d" stroke-width="2" stroke-linecap="round" opacity="0.9"/><path d="M 920 1736.0 C 951.5 1736.0, 958.5 1688.0, 990 1688.0" fill="none" stroke="#cbd5e1" stroke-width="1.5" stroke-dasharray="3,3"/><path d="M 920 1736.0 C 951.5 1736.0, 958.5 1736.0, 990 1736.0" fill="none" stroke="#cbd5e1" stroke-width="1.5" stroke-dasharray="3,3"/><path d="M 920 1736.0 C 951.5 1736.0, 958.5 1784.0, 990 1784.0" fill="none" stroke="#cbd5e1" stroke-width="1.5" stroke-dasharray="3,3"/><path d="M 310 1150.0 C 341.5 1150.0, 348.5 1880.0, 380 1880.0" fill="none" stroke="#7c3aed" stroke-width="3" stroke-linecap="round" opacity="0.85"/><path d="M 600 1880.0 C 636.0 1880.0, 644.0 1880.0, 680 1880.0" fill="none" stroke="#c4b5fd" stroke-width="2" stroke-linecap="round" opacity="0.9"/><path d="M 920 1880.0 C 951.5 1880.0, 958.5 1832.0, 990 1832.0" fill="none" stroke="#cbd5e1" stroke-width="1.5" stroke-dasharray="3,3"/><path d="M 920 1880.0 C 951.5 1880.0, 958.5 1880.0, 990 1880.0" fill="none" stroke="#cbd5e1" stroke-width="1.5" stroke-dasharray="3,3"/><path d="M 920 1880.0 C 951.5 1880.0, 958.5 1928.0, 990 1928.0" fill="none" stroke="#cbd5e1" stroke-width="1.5" stroke-dasharray="3,3"/><path d="M 310 1150.0 C 341.5 1150.0, 348.5 2096.0, 380 2096.0" fill="none" stroke="#e11d48" stroke-width="3" stroke-linecap="round" opacity="0.85"/><path d="M 600 2096.0 C 636.0 2096.0, 644.0 2024.0, 680 2024.0" fill="none" stroke="#fda4af" stroke-width="2" stroke-linecap="round" opacity="0.9"/><path d="M 920 2024.0 C 951.5 2024.0, 958.5 1976.0, 990 1976.0" fill="none" stroke="#cbd5e1" stroke-width="1.5" stroke-dasharray="3,3"/><path d="M 920 2024.0 C 951.5 2024.0, 958.5 2024.0, 990 2024.0" fill="none" stroke="#cbd5e1" stroke-width="1.5" stroke-dasharray="3,3"/><path d="M 920 2024.0 C 951.5 2024.0, 958.5 2072.0, 990 2072.0" fill="none" stroke="#cbd5e1" stroke-width="1.5" stroke-dasharray="3,3"/><path d="M 600 2096.0 C 636.0 2096.0, 644.0 2168.0, 680 2168.0" fill="none" stroke="#fda4af" stroke-width="2" stroke-linecap="round" opacity="0.9"/><path d="M 920 2168.0 C 951.5 2168.0, 958.5 2120.0, 990 2120.0" fill="none" stroke="#cbd5e1" stroke-width="1.5" stroke-dasharray="3,3"/><path d="M 920 2168.0 C 951.5 2168.0, 958.5 2168.0, 990 2168.0" fill="none" stroke="#cbd5e1" stroke-width="1.5" stroke-dasharray="3,3"/><path d="M 920 2168.0 C 951.5 2168.0, 958.5 2216.0, 990 2216.0" fill="none" stroke="#cbd5e1" stroke-width="1.5" stroke-dasharray="3,3"/>
  </g>

  <!-- Nodes -->
  <g class="nodes">
    
    <g class="node root-node" transform="translate(60, 1111.0)">
      <defs>
        <linearGradient id="rootGrad" x1="0%" y1="0%" x2="100%" y2="100%">
          <stop offset="0%" stop-color="#E87722"/>
          <stop offset="100%" stop-color="#C2410C"/>
        </linearGradient>
      </defs>
      <rect width="250" height="78" rx="16" fill="url(#rootGrad)" stroke="#ea580c" stroke-width="2" filter="url(#drop-shadow-lg)"/>
      <text x="20" y="30" font-size="13" font-weight="800" fill="#fed7aa" letter-spacing="1">🧠 CH09 核心知識圖譜</text>
      <text x="20" y="56" font-size="15.5" font-weight="800" fill="#ffffff" font-family="system-ui, -apple-system, sans-serif">緊急醫療救護的品質管理</text>
    </g>
    
    
        <g class="node branch-node" transform="translate(380, 344.0)">
          <rect width="220" height="48" rx="10" fill="#eff6ff" stroke="#2563eb" stroke-width="2.2" filter="url(#drop-shadow)"/>
          <circle cx="16" cy="24.0" r="6" fill="#2563eb"/>
          <text x="32" y="29.0" font-size="13.5" font-weight="700" fill="#1e40af" font-family="system-ui, -apple-system, sans-serif">何謂「品質」與「管理」？ ‧ 品質的測…</text>
        </g>
        
            <g class="node subbranch-node" transform="translate(680, 131.0)">
              <rect width="240" height="42" rx="8" fill="#ffffff" stroke="#93c5fd" stroke-width="1.8" filter="url(#drop-shadow)"/>
              <text x="14" y="26.0" font-size="13" font-weight="600" fill="#1e293b" font-family="system-ui, -apple-system, sans-serif">緊急醫療救護法與品質</text>
            </g>
            
                <g class="node leaf-node" transform="translate(990, 87.0)">
                  <rect width="470" height="34" rx="6" fill="#f8fafc" stroke="#e2e8f0" stroke-width="1.2"/>
                  <text x="12" y="21.5" font-size="12" font-weight="500" fill="#334155" font-family="system-ui, -apple-system, sans-serif">民國84年</text>
                </g>
                
                <g class="node leaf-node" transform="translate(990, 135.0)">
                  <rect width="470" height="34" rx="6" fill="#f8fafc" stroke="#e2e8f0" stroke-width="1.2"/>
                  <text x="12" y="21.5" font-size="12" font-weight="500" fill="#334155" font-family="system-ui, -apple-system, sans-serif">緊急醫療救護法</text>
                </g>
                
                <g class="node leaf-node" transform="translate(990, 183.0)">
                  <rect width="470" height="34" rx="6" fill="#f8fafc" stroke="#e2e8f0" stroke-width="1.2"/>
                  <text x="12" y="21.5" font-size="12" font-weight="500" fill="#334155" font-family="system-ui, -apple-system, sans-serif">第1條</text>
                </g>
                
            <g class="node subbranch-node" transform="translate(680, 275.0)">
              <rect width="240" height="42" rx="8" fill="#ffffff" stroke="#93c5fd" stroke-width="1.8" filter="url(#drop-shadow)"/>
              <text x="14" y="26.0" font-size="13" font-weight="600" fill="#1e293b" font-family="system-ui, -apple-system, sans-serif">品質(quality)的定義</text>
            </g>
            
                <g class="node leaf-node" transform="translate(990, 231.0)">
                  <rect width="470" height="34" rx="6" fill="#f8fafc" stroke="#e2e8f0" stroke-width="1.2"/>
                  <text x="12" y="21.5" font-size="12" font-weight="500" fill="#334155" font-family="system-ui, -apple-system, sans-serif">品質(quality)</text>
                </g>
                
                <g class="node leaf-node" transform="translate(990, 279.0)">
                  <rect width="470" height="34" rx="6" fill="#f8fafc" stroke="#e2e8f0" stroke-width="1.2"/>
                  <text x="12" y="21.5" font-size="12" font-weight="500" fill="#334155" font-family="system-ui, -apple-system, sans-serif">可想像或感知的事物作為標的</text>
                </g>
                
                <g class="node leaf-node" transform="translate(990, 327.0)">
                  <rect width="470" height="34" rx="6" fill="#f8fafc" stroke="#e2e8f0" stroke-width="1.2"/>
                  <text x="12" y="21.5" font-size="12" font-weight="500" fill="#334155" font-family="system-ui, -apple-system, sans-serif">產品、服務、過程</text>
                </g>
                
            <g class="node subbranch-node" transform="translate(680, 419.0)">
              <rect width="240" height="42" rx="8" fill="#ffffff" stroke="#93c5fd" stroke-width="1.8" filter="url(#drop-shadow)"/>
              <text x="14" y="26.0" font-size="13" font-weight="600" fill="#1e293b" font-family="system-ui, -apple-system, sans-serif">品質目標的六大面向(dimension)</text>
            </g>
            
                <g class="node leaf-node" transform="translate(990, 375.0)">
                  <rect width="470" height="34" rx="6" fill="#f8fafc" stroke="#e2e8f0" stroke-width="1.2"/>
                  <text x="12" y="21.5" font-size="12" font-weight="500" fill="#334155" font-family="system-ui, -apple-system, sans-serif">六大面向</text>
                </g>
                
                <g class="node leaf-node" transform="translate(990, 423.0)">
                  <rect width="470" height="34" rx="6" fill="#f8fafc" stroke="#e2e8f0" stroke-width="1.2"/>
                  <text x="12" y="21.5" font-size="12" font-weight="500" fill="#334155" font-family="system-ui, -apple-system, sans-serif">世界衛生組織(World Health Organ…</text>
                </g>
                
                <g class="node leaf-node" transform="translate(990, 471.0)">
                  <rect width="470" height="34" rx="6" fill="#f8fafc" stroke="#e2e8f0" stroke-width="1.2"/>
                  <text x="12" y="21.5" font-size="12" font-weight="500" fill="#334155" font-family="system-ui, -apple-system, sans-serif">照護品質(quality of care)</text>
                </g>
                
            <g class="node subbranch-node" transform="translate(680, 563.0)">
              <rect width="240" height="42" rx="8" fill="#ffffff" stroke="#93c5fd" stroke-width="1.8" filter="url(#drop-shadow)"/>
              <text x="14" y="26.0" font-size="13" font-weight="600" fill="#1e293b" font-family="system-ui, -apple-system, sans-serif">管理(management)與品質管理(q…</text>
            </g>
            
                <g class="node leaf-node" transform="translate(990, 519.0)">
                  <rect width="470" height="34" rx="6" fill="#f8fafc" stroke="#e2e8f0" stroke-width="1.2"/>
                  <text x="12" y="21.5" font-size="12" font-weight="500" fill="#334155" font-family="system-ui, -apple-system, sans-serif">管理(management)：係一種指導與管制組織之協作作業，例如制訂政策…</text>
                </g>
                
                <g class="node leaf-node" transform="translate(990, 567.0)">
                  <rect width="470" height="34" rx="6" fill="#f8fafc" stroke="#e2e8f0" stroke-width="1.2"/>
                  <text x="12" y="21.5" font-size="12" font-weight="500" fill="#334155" font-family="system-ui, -apple-system, sans-serif">品質管理(quality management)：即一種為了達到某一標的、…</text>
                </g>
                
                <g class="node leaf-node" transform="translate(990, 615.0)">
                  <rect width="470" height="34" rx="6" fill="#f8fafc" stroke="#e2e8f0" stroke-width="1.2"/>
                  <text x="12" y="21.5" font-size="12" font-weight="500" fill="#334155" font-family="system-ui, -apple-system, sans-serif">執行品質管理的人員應注意：品質管理屬於一種維持與提升品質的過程與手段。</text>
                </g>
                
        <g class="node branch-node" transform="translate(380, 920.0)">
          <rect width="220" height="48" rx="10" fill="#ecfdf5" stroke="#059669" stroke-width="2.2" filter="url(#drop-shadow)"/>
          <circle cx="16" cy="24.0" r="6" fill="#059669"/>
          <text x="32" y="29.0" font-size="13.5" font-weight="700" fill="#065f46" font-family="system-ui, -apple-system, sans-serif">品質指標資料庫的登錄 ‧ 品質指標的分析</text>
        </g>
        
            <g class="node subbranch-node" transform="translate(680, 707.0)">
              <rect width="240" height="42" rx="8" fill="#ffffff" stroke="#6ee7b7" stroke-width="1.8" filter="url(#drop-shadow)"/>
              <text x="14" y="26.0" font-size="13" font-weight="600" fill="#1e293b" font-family="system-ui, -apple-system, sans-serif">登錄系統的意義</text>
            </g>
            
                <g class="node leaf-node" transform="translate(990, 663.0)">
                  <rect width="470" height="34" rx="6" fill="#f8fafc" stroke="#e2e8f0" stroke-width="1.2"/>
                  <text x="12" y="21.5" font-size="12" font-weight="500" fill="#334155" font-family="system-ui, -apple-system, sans-serif">登錄系統並非只是病人的生死簿，而是所受照護的全紀錄。</text>
                </g>
                
                <g class="node leaf-node" transform="translate(990, 711.0)">
                  <rect width="470" height="34" rx="6" fill="#f8fafc" stroke="#e2e8f0" stroke-width="1.2"/>
                  <text x="12" y="21.5" font-size="12" font-weight="500" fill="#334155" font-family="system-ui, -apple-system, sans-serif">以救護紀錄表為例，如果能經過適當登錄，便可以看出該城市的病人於到院前緊急救…</text>
                </g>
                
                <g class="node leaf-node" transform="translate(990, 759.0)">
                  <rect width="470" height="34" rx="6" fill="#f8fafc" stroke="#e2e8f0" stroke-width="1.2"/>
                  <text x="12" y="21.5" font-size="12" font-weight="500" fill="#334155" font-family="system-ui, -apple-system, sans-serif">對於不同的作業程序、不同類型的病人，其登錄項目也不盡相同。</text>
                </g>
                
            <g class="node subbranch-node" transform="translate(680, 851.0)">
              <rect width="240" height="42" rx="8" fill="#ffffff" stroke="#6ee7b7" stroke-width="1.8" filter="url(#drop-shadow)"/>
              <text x="14" y="26.0" font-size="13" font-weight="600" fill="#1e293b" font-family="system-ui, -apple-system, sans-serif">Utstein Style 的演進</text>
            </g>
            
                <g class="node leaf-node" transform="translate(990, 807.0)">
                  <rect width="470" height="34" rx="6" fill="#f8fafc" stroke="#e2e8f0" stroke-width="1.2"/>
                  <text x="12" y="21.5" font-size="12" font-weight="500" fill="#334155" font-family="system-ui, -apple-system, sans-serif">1990 年 6 月 6 日至 7 日</text>
                </g>
                
                <g class="node leaf-node" transform="translate(990, 855.0)">
                  <rect width="470" height="34" rx="6" fill="#f8fafc" stroke="#e2e8f0" stroke-width="1.2"/>
                  <text x="12" y="21.5" font-size="12" font-weight="500" fill="#334155" font-family="system-ui, -apple-system, sans-serif">挪威的烏次坦(Utstein)修道院</text>
                </g>
                
                <g class="node leaf-node" transform="translate(990, 903.0)">
                  <rect width="470" height="34" rx="6" fill="#f8fafc" stroke="#e2e8f0" stroke-width="1.2"/>
                  <text x="12" y="21.5" font-size="12" font-weight="500" fill="#334155" font-family="system-ui, -apple-system, sans-serif">36 名</text>
                </g>
                
            <g class="node subbranch-node" transform="translate(680, 995.0)">
              <rect width="240" height="42" rx="8" fill="#ffffff" stroke="#6ee7b7" stroke-width="1.8" filter="url(#drop-shadow)"/>
              <text x="14" y="26.0" font-size="13" font-weight="600" fill="#1e293b" font-family="system-ui, -apple-system, sans-serif">2024 年版 Utstein 模式應紀錄…</text>
            </g>
            
                <g class="node leaf-node" transform="translate(990, 951.0)">
                  <rect width="470" height="34" rx="6" fill="#f8fafc" stroke="#e2e8f0" stroke-width="1.2"/>
                  <text x="12" y="21.5" font-size="12" font-weight="500" fill="#334155" font-family="system-ui, -apple-system, sans-serif">AED</text>
                </g>
                
                <g class="node leaf-node" transform="translate(990, 999.0)">
                  <rect width="470" height="34" rx="6" fill="#f8fafc" stroke="#e2e8f0" stroke-width="1.2"/>
                  <text x="12" y="21.5" font-size="12" font-weight="500" fill="#334155" font-family="system-ui, -apple-system, sans-serif">CPR</text>
                </g>
                
                <g class="node leaf-node" transform="translate(990, 1047.0)">
                  <rect width="470" height="34" rx="6" fill="#f8fafc" stroke="#e2e8f0" stroke-width="1.2"/>
                  <text x="12" y="21.5" font-size="12" font-weight="500" fill="#334155" font-family="system-ui, -apple-system, sans-serif">OHCA</text>
                </g>
                
            <g class="node subbranch-node" transform="translate(680, 1139.0)">
              <rect width="240" height="42" rx="8" fill="#ffffff" stroke="#6ee7b7" stroke-width="1.8" filter="url(#drop-shadow)"/>
              <text x="14" y="26.0" font-size="13" font-weight="600" fill="#1e293b" font-family="system-ui, -apple-system, sans-serif">Utstein 模式報告框架</text>
            </g>
            
                <g class="node leaf-node" transform="translate(990, 1095.0)">
                  <rect width="470" height="34" rx="6" fill="#f8fafc" stroke="#e2e8f0" stroke-width="1.2"/>
                  <text x="12" y="21.5" font-size="12" font-weight="500" fill="#334155" font-family="system-ui, -apple-system, sans-serif">復甦案件的成果</text>
                </g>
                
                <g class="node leaf-node" transform="translate(990, 1143.0)">
                  <rect width="470" height="34" rx="6" fill="#f8fafc" stroke="#e2e8f0" stroke-width="1.2"/>
                  <text x="12" y="21.5" font-size="12" font-weight="500" fill="#334155" font-family="system-ui, -apple-system, sans-serif">分析報告</text>
                </g>
                
                <g class="node leaf-node" transform="translate(990, 1191.0)">
                  <rect width="470" height="34" rx="6" fill="#f8fafc" stroke="#e2e8f0" stroke-width="1.2"/>
                  <text x="12" y="21.5" font-size="12" font-weight="500" fill="#334155" font-family="system-ui, -apple-system, sans-serif">📌 標竿學習 (benchmarking): 運用測量EMS品質的參考標準，</text>
                </g>
                
        <g class="node branch-node" transform="translate(380, 1496.0)">
          <rect width="220" height="48" rx="10" fill="#fffbeb" stroke="#d97706" stroke-width="2.2" filter="url(#drop-shadow)"/>
          <circle cx="16" cy="24.0" r="6" fill="#d97706"/>
          <text x="32" y="29.0" font-size="13.5" font-weight="700" fill="#92400e" font-family="system-ui, -apple-system, sans-serif">品質改善 ‧ 成功品管實例</text>
        </g>
        
            <g class="node subbranch-node" transform="translate(680, 1283.0)">
              <rect width="240" height="42" rx="8" fill="#ffffff" stroke="#fcd34d" stroke-width="1.8" filter="url(#drop-shadow)"/>
              <text x="14" y="26.0" font-size="13" font-weight="600" fill="#1e293b" font-family="system-ui, -apple-system, sans-serif">ECRS 原則</text>
            </g>
            
                <g class="node leaf-node" transform="translate(990, 1239.0)">
                  <rect width="470" height="34" rx="6" fill="#f8fafc" stroke="#e2e8f0" stroke-width="1.2"/>
                  <text x="12" y="21.5" font-size="12" font-weight="500" fill="#334155" font-family="system-ui, -apple-system, sans-serif">遇到困難而致品質或流程無法持續</text>
                </g>
                
                <g class="node leaf-node" transform="translate(990, 1287.0)">
                  <rect width="470" height="34" rx="6" fill="#f8fafc" stroke="#e2e8f0" stroke-width="1.2"/>
                  <text x="12" y="21.5" font-size="12" font-weight="500" fill="#334155" font-family="system-ui, -apple-system, sans-serif">排除(Eliminate)、組合(Combine)…</text>
                </g>
                
                <g class="node leaf-node" transform="translate(990, 1335.0)">
                  <rect width="470" height="34" rx="6" fill="#f8fafc" stroke="#e2e8f0" stroke-width="1.2"/>
                  <text x="12" y="21.5" font-size="12" font-weight="500" fill="#334155" font-family="system-ui, -apple-system, sans-serif">4 種原則</text>
                </g>
                
            <g class="node subbranch-node" transform="translate(680, 1427.0)">
              <rect width="240" height="42" rx="8" fill="#ffffff" stroke="#fcd34d" stroke-width="1.8" filter="url(#drop-shadow)"/>
              <text x="14" y="26.0" font-size="13" font-weight="600" fill="#1e293b" font-family="system-ui, -apple-system, sans-serif">標竿學習(Benchmarking)</text>
            </g>
            
                <g class="node leaf-node" transform="translate(990, 1383.0)">
                  <rect width="470" height="34" rx="6" fill="#f8fafc" stroke="#e2e8f0" stroke-width="1.2"/>
                  <text x="12" y="21.5" font-size="12" font-weight="500" fill="#334155" font-family="system-ui, -apple-system, sans-serif">標竿學習(Benchmarking)</text>
                </g>
                
                <g class="node leaf-node" transform="translate(990, 1431.0)">
                  <rect width="470" height="34" rx="6" fill="#f8fafc" stroke="#e2e8f0" stroke-width="1.2"/>
                  <text x="12" y="21.5" font-size="12" font-weight="500" fill="#334155" font-family="system-ui, -apple-system, sans-serif">以卓越的公司做為模範或品質的目標</text>
                </g>
                
                <g class="node leaf-node" transform="translate(990, 1479.0)">
                  <rect width="470" height="34" rx="6" fill="#f8fafc" stroke="#e2e8f0" stroke-width="1.2"/>
                  <text x="12" y="21.5" font-size="12" font-weight="500" fill="#334155" font-family="system-ui, -apple-system, sans-serif">跳脫組織內的框架</text>
                </g>
                
            <g class="node subbranch-node" transform="translate(680, 1571.0)">
              <rect width="240" height="42" rx="8" fill="#ffffff" stroke="#fcd34d" stroke-width="1.8" filter="url(#drop-shadow)"/>
              <text x="14" y="26.0" font-size="13" font-weight="600" fill="#1e293b" font-family="system-ui, -apple-system, sans-serif">台北市——CPR 品管與 Utstein …</text>
            </g>
            
                <g class="node leaf-node" transform="translate(990, 1527.0)">
                  <rect width="470" height="34" rx="6" fill="#f8fafc" stroke="#e2e8f0" stroke-width="1.2"/>
                  <text x="12" y="21.5" font-size="12" font-weight="500" fill="#334155" font-family="system-ui, -apple-system, sans-serif">資料登錄分工：由消防局護理師負責收集病人的基本資料，並由專人負責資料分析品…</text>
                </g>
                
                <g class="node leaf-node" transform="translate(990, 1575.0)">
                  <rect width="470" height="34" rx="6" fill="#f8fafc" stroke="#e2e8f0" stroke-width="1.2"/>
                  <text x="12" y="21.5" font-size="12" font-weight="500" fill="#334155" font-family="system-ui, -apple-system, sans-serif">品管小組目的：整合不同的品管項目，更正急救過程中操作不良的錯誤，加以進行回…</text>
                </g>
                
                <g class="node leaf-node" transform="translate(990, 1623.0)">
                  <rect width="470" height="34" rx="6" fill="#f8fafc" stroke="#e2e8f0" stroke-width="1.2"/>
                  <text x="12" y="21.5" font-size="12" font-weight="500" fill="#334155" font-family="system-ui, -apple-system, sans-serif">品管小組組織：由救護科科長帶領，另有專員和股長監督，下有由高級救護隊成員組…</text>
                </g>
                
            <g class="node subbranch-node" transform="translate(680, 1715.0)">
              <rect width="240" height="42" rx="8" fill="#ffffff" stroke="#fcd34d" stroke-width="1.8" filter="url(#drop-shadow)"/>
              <text x="14" y="26.0" font-size="13" font-weight="600" fill="#1e293b" font-family="system-ui, -apple-system, sans-serif">台東縣——偏遠地區的高救隊執勤模式</text>
            </g>
            
                <g class="node leaf-node" transform="translate(990, 1671.0)">
                  <rect width="470" height="34" rx="6" fill="#f8fafc" stroke="#e2e8f0" stroke-width="1.2"/>
                  <text x="12" y="21.5" font-size="12" font-weight="500" fill="#334155" font-family="system-ui, -apple-system, sans-serif">台東縣為台灣土地面積第三大的縣市，南北綿延 166 公里，是台灣最狹長縣市。</text>
                </g>
                
                <g class="node leaf-node" transform="translate(990, 1719.0)">
                  <rect width="470" height="34" rx="6" fill="#f8fafc" stroke="#e2e8f0" stroke-width="1.2"/>
                  <text x="12" y="21.5" font-size="12" font-weight="500" fill="#334155" font-family="system-ui, -apple-system, sans-serif">台東縣消防局根據縣內特有地理環境以及人口分布，將全縣分為四個區域並各分設一…</text>
                </g>
                
                <g class="node leaf-node" transform="translate(990, 1767.0)">
                  <rect width="470" height="34" rx="6" fill="#f8fafc" stroke="#e2e8f0" stroke-width="1.2"/>
                  <text x="12" y="21.5" font-size="12" font-weight="500" fill="#334155" font-family="system-ui, -apple-system, sans-serif">因地屬偏遠、醫療資源分佈不均，且長期存在消防人力嚴重匱乏和救災救護據點不足…</text>
                </g>
                
        <g class="node branch-node" transform="translate(380, 1856.0)">
          <rect width="220" height="48" rx="10" fill="#f5f3ff" stroke="#7c3aed" stroke-width="2.2" filter="url(#drop-shadow)"/>
          <circle cx="16" cy="24.0" r="6" fill="#7c3aed"/>
          <text x="32" y="29.0" font-size="13.5" font-weight="700" fill="#5b21b6" font-family="system-ui, -apple-system, sans-serif">情境解答 ‧ 問題交流</text>
        </g>
        
            <g class="node subbranch-node" transform="translate(680, 1859.0)">
              <rect width="240" height="42" rx="8" fill="#ffffff" stroke="#c4b5fd" stroke-width="1.8" filter="url(#drop-shadow)"/>
              <text x="14" y="26.0" font-size="13" font-weight="600" fill="#1e293b" font-family="system-ui, -apple-system, sans-serif">重點脈絡</text>
            </g>
            
                <g class="node leaf-node" transform="translate(990, 1815.0)">
                  <rect width="470" height="34" rx="6" fill="#f8fafc" stroke="#e2e8f0" stroke-width="1.2"/>
                  <text x="12" y="21.5" font-size="12" font-weight="500" fill="#334155" font-family="system-ui, -apple-system, sans-serif">到院前插管是一個不同於 CPR 和 AED 的侵入…</text>
                </g>
                
                <g class="node leaf-node" transform="translate(990, 1863.0)">
                  <rect width="470" height="34" rx="6" fill="#f8fafc" stroke="#e2e8f0" stroke-width="1.2"/>
                  <text x="12" y="21.5" font-size="12" font-weight="500" fill="#334155" font-family="system-ui, -apple-system, sans-serif">現場環境的不確定性和混亂的狀況</text>
                </g>
                
                <g class="node leaf-node" transform="translate(990, 1911.0)">
                  <rect width="470" height="34" rx="6" fill="#f8fafc" stroke="#e2e8f0" stroke-width="1.2"/>
                  <text x="12" y="21.5" font-size="12" font-weight="500" fill="#334155" font-family="system-ui, -apple-system, sans-serif">增加執行此技術的困難</text>
                </g>
                
        <g class="node branch-node" transform="translate(380, 2072.0)">
          <rect width="220" height="48" rx="10" fill="#fff1f2" stroke="#e11d48" stroke-width="2.2" filter="url(#drop-shadow)"/>
          <circle cx="16" cy="24.0" r="6" fill="#e11d48"/>
          <text x="32" y="29.0" font-size="13.5" font-weight="700" fill="#9f1239" font-family="system-ui, -apple-system, sans-serif">重點整理 ‧ 參考資料</text>
        </g>
        
            <g class="node subbranch-node" transform="translate(680, 2003.0)">
              <rect width="240" height="42" rx="8" fill="#ffffff" stroke="#fda4af" stroke-width="1.8" filter="url(#drop-shadow)"/>
              <text x="14" y="26.0" font-size="13" font-weight="600" fill="#1e293b" font-family="system-ui, -apple-system, sans-serif">重點脈絡</text>
            </g>
            
                <g class="node leaf-node" transform="translate(990, 1959.0)">
                  <rect width="470" height="34" rx="6" fill="#f8fafc" stroke="#e2e8f0" stroke-width="1.2"/>
                  <text x="12" y="21.5" font-size="12" font-weight="500" fill="#334155" font-family="system-ui, -apple-system, sans-serif">美國國家醫學研究院(Institute of Medicine) 訂出之品…</text>
                </g>
                
                <g class="node leaf-node" transform="translate(990, 2007.0)">
                  <rect width="470" height="34" rx="6" fill="#f8fafc" stroke="#e2e8f0" stroke-width="1.2"/>
                  <text x="12" y="21.5" font-size="12" font-weight="500" fill="#334155" font-family="system-ui, -apple-system, sans-serif">緊急醫療救護體系品質測量的準則(criteria) 如下：</text>
                </g>
                
                <g class="node leaf-node" transform="translate(990, 2055.0)">
                  <rect width="470" height="34" rx="6" fill="#f8fafc" stroke="#e2e8f0" stroke-width="1.2"/>
                  <text x="12" y="21.5" font-size="12" font-weight="500" fill="#334155" font-family="system-ui, -apple-system, sans-serif">為準確測量緊急醫療救護體系的品質，所訂定出的品質指標需能適切地反映出該體系…</text>
                </g>
                
            <g class="node subbranch-node" transform="translate(680, 2147.0)">
              <rect width="240" height="42" rx="8" fill="#ffffff" stroke="#fda4af" stroke-width="1.8" filter="url(#drop-shadow)"/>
              <text x="14" y="26.0" font-size="13" font-weight="600" fill="#1e293b" font-family="system-ui, -apple-system, sans-serif">重點脈絡</text>
            </g>
            
                <g class="node leaf-node" transform="translate(990, 2103.0)">
                  <rect width="470" height="34" rx="6" fill="#f8fafc" stroke="#e2e8f0" stroke-width="1.2"/>
                  <text x="12" y="21.5" font-size="12" font-weight="500" fill="#334155" font-family="system-ui, -apple-system, sans-serif">林志豪，災難最前線：緊急醫療系統的運作。貓頭鷹。2010年。</text>
                </g>
                
                <g class="node leaf-node" transform="translate(990, 2151.0)">
                  <rect width="470" height="34" rx="6" fill="#f8fafc" stroke="#e2e8f0" stroke-width="1.2"/>
                  <text x="12" y="21.5" font-size="12" font-weight="500" fill="#334155" font-family="system-ui, -apple-system, sans-serif">Statement on Quality of Care: Nationa…</text>
                </g>
                
                <g class="node leaf-node" transform="translate(990, 2199.0)">
                  <rect width="470" height="34" rx="6" fill="#f8fafc" stroke="#e2e8f0" stroke-width="1.2"/>
                  <text x="12" y="21.5" font-size="12" font-weight="500" fill="#334155" font-family="system-ui, -apple-system, sans-serif">Crossing the Quality Chasm: A New Hea…</text>
                </g>
                
  </g>
</svg>
