<svg xmlns="http://www.w3.org/2000/svg" viewBox="0 0 1520 2156" width="100%" height="100%" style="background: transparent;">
  <defs>
    <filter id="drop-shadow" x="-10%" y="-10%" width="130%" height="130%">
      <feDropShadow dx="0" dy="2" stdDeviation="3" flood-opacity="0.08"/>
    </filter>
    <filter id="drop-shadow-lg" x="-15%" y="-15%" width="140%" height="140%">
      <feDropShadow dx="0" dy="4" stdDeviation="6" flood-opacity="0.18"/>
    </filter>
  </defs>

  <!-- Connectors -->
  <g class="connectors">
    <path d="M 310 1078.0 C 341.5 1078.0, 348.5 368.0, 380 368.0" fill="none" stroke="#2563eb" stroke-width="3" stroke-linecap="round" opacity="0.85"/><path d="M 600 368.0 C 636.0 368.0, 644.0 152.0, 680 152.0" fill="none" stroke="#93c5fd" stroke-width="2" stroke-linecap="round" opacity="0.9"/><path d="M 920 152.0 C 951.5 152.0, 958.5 104.0, 990 104.0" fill="none" stroke="#cbd5e1" stroke-width="1.5" stroke-dasharray="3,3"/><path d="M 920 152.0 C 951.5 152.0, 958.5 152.0, 990 152.0" fill="none" stroke="#cbd5e1" stroke-width="1.5" stroke-dasharray="3,3"/><path d="M 920 152.0 C 951.5 152.0, 958.5 200.0, 990 200.0" fill="none" stroke="#cbd5e1" stroke-width="1.5" stroke-dasharray="3,3"/><path d="M 600 368.0 C 636.0 368.0, 644.0 296.0, 680 296.0" fill="none" stroke="#93c5fd" stroke-width="2" stroke-linecap="round" opacity="0.9"/><path d="M 920 296.0 C 951.5 296.0, 958.5 248.0, 990 248.0" fill="none" stroke="#cbd5e1" stroke-width="1.5" stroke-dasharray="3,3"/><path d="M 920 296.0 C 951.5 296.0, 958.5 296.0, 990 296.0" fill="none" stroke="#cbd5e1" stroke-width="1.5" stroke-dasharray="3,3"/><path d="M 920 296.0 C 951.5 296.0, 958.5 344.0, 990 344.0" fill="none" stroke="#cbd5e1" stroke-width="1.5" stroke-dasharray="3,3"/><path d="M 600 368.0 C 636.0 368.0, 644.0 440.0, 680 440.0" fill="none" stroke="#93c5fd" stroke-width="2" stroke-linecap="round" opacity="0.9"/><path d="M 920 440.0 C 951.5 440.0, 958.5 392.0, 990 392.0" fill="none" stroke="#cbd5e1" stroke-width="1.5" stroke-dasharray="3,3"/><path d="M 920 440.0 C 951.5 440.0, 958.5 440.0, 990 440.0" fill="none" stroke="#cbd5e1" stroke-width="1.5" stroke-dasharray="3,3"/><path d="M 920 440.0 C 951.5 440.0, 958.5 488.0, 990 488.0" fill="none" stroke="#cbd5e1" stroke-width="1.5" stroke-dasharray="3,3"/><path d="M 600 368.0 C 636.0 368.0, 644.0 584.0, 680 584.0" fill="none" stroke="#93c5fd" stroke-width="2" stroke-linecap="round" opacity="0.9"/><path d="M 920 584.0 C 951.5 584.0, 958.5 536.0, 990 536.0" fill="none" stroke="#cbd5e1" stroke-width="1.5" stroke-dasharray="3,3"/><path d="M 920 584.0 C 951.5 584.0, 958.5 584.0, 990 584.0" fill="none" stroke="#cbd5e1" stroke-width="1.5" stroke-dasharray="3,3"/><path d="M 920 584.0 C 951.5 584.0, 958.5 632.0, 990 632.0" fill="none" stroke="#cbd5e1" stroke-width="1.5" stroke-dasharray="3,3"/><path d="M 310 1078.0 C 341.5 1078.0, 348.5 872.0, 380 872.0" fill="none" stroke="#059669" stroke-width="3" stroke-linecap="round" opacity="0.85"/><path d="M 600 872.0 C 636.0 872.0, 644.0 704.0, 680 704.0" fill="none" stroke="#6ee7b7" stroke-width="2" stroke-linecap="round" opacity="0.9"/><path d="M 920 704.0 C 951.5 704.0, 958.5 680.0, 990 680.0" fill="none" stroke="#cbd5e1" stroke-width="1.5" stroke-dasharray="3,3"/><path d="M 920 704.0 C 951.5 704.0, 958.5 728.0, 990 728.0" fill="none" stroke="#cbd5e1" stroke-width="1.5" stroke-dasharray="3,3"/><path d="M 600 872.0 C 636.0 872.0, 644.0 824.0, 680 824.0" fill="none" stroke="#6ee7b7" stroke-width="2" stroke-linecap="round" opacity="0.9"/><path d="M 920 824.0 C 951.5 824.0, 958.5 776.0, 990 776.0" fill="none" stroke="#cbd5e1" stroke-width="1.5" stroke-dasharray="3,3"/><path d="M 920 824.0 C 951.5 824.0, 958.5 824.0, 990 824.0" fill="none" stroke="#cbd5e1" stroke-width="1.5" stroke-dasharray="3,3"/><path d="M 920 824.0 C 951.5 824.0, 958.5 872.0, 990 872.0" fill="none" stroke="#cbd5e1" stroke-width="1.5" stroke-dasharray="3,3"/><path d="M 600 872.0 C 636.0 872.0, 644.0 968.0, 680 968.0" fill="none" stroke="#6ee7b7" stroke-width="2" stroke-linecap="round" opacity="0.9"/><path d="M 920 968.0 C 951.5 968.0, 958.5 920.0, 990 920.0" fill="none" stroke="#cbd5e1" stroke-width="1.5" stroke-dasharray="3,3"/><path d="M 920 968.0 C 951.5 968.0, 958.5 968.0, 990 968.0" fill="none" stroke="#cbd5e1" stroke-width="1.5" stroke-dasharray="3,3"/><path d="M 920 968.0 C 951.5 968.0, 958.5 1016.0, 990 1016.0" fill="none" stroke="#cbd5e1" stroke-width="1.5" stroke-dasharray="3,3"/><path d="M 600 872.0 C 636.0 872.0, 644.0 1064.0, 680 1064.0" fill="none" stroke="#6ee7b7" stroke-width="2" stroke-linecap="round" opacity="0.9"/><path d="M 310 1078.0 C 341.5 1078.0, 348.5 1376.0, 380 1376.0" fill="none" stroke="#d97706" stroke-width="3" stroke-linecap="round" opacity="0.85"/><path d="M 600 1376.0 C 636.0 1376.0, 644.0 1160.0, 680 1160.0" fill="none" stroke="#fcd34d" stroke-width="2" stroke-linecap="round" opacity="0.9"/><path d="M 920 1160.0 C 951.5 1160.0, 958.5 1112.0, 990 1112.0" fill="none" stroke="#cbd5e1" stroke-width="1.5" stroke-dasharray="3,3"/><path d="M 920 1160.0 C 951.5 1160.0, 958.5 1160.0, 990 1160.0" fill="none" stroke="#cbd5e1" stroke-width="1.5" stroke-dasharray="3,3"/><path d="M 920 1160.0 C 951.5 1160.0, 958.5 1208.0, 990 1208.0" fill="none" stroke="#cbd5e1" stroke-width="1.5" stroke-dasharray="3,3"/><path d="M 600 1376.0 C 636.0 1376.0, 644.0 1304.0, 680 1304.0" fill="none" stroke="#fcd34d" stroke-width="2" stroke-linecap="round" opacity="0.9"/><path d="M 920 1304.0 C 951.5 1304.0, 958.5 1256.0, 990 1256.0" fill="none" stroke="#cbd5e1" stroke-width="1.5" stroke-dasharray="3,3"/><path d="M 920 1304.0 C 951.5 1304.0, 958.5 1304.0, 990 1304.0" fill="none" stroke="#cbd5e1" stroke-width="1.5" stroke-dasharray="3,3"/><path d="M 920 1304.0 C 951.5 1304.0, 958.5 1352.0, 990 1352.0" fill="none" stroke="#cbd5e1" stroke-width="1.5" stroke-dasharray="3,3"/><path d="M 600 1376.0 C 636.0 1376.0, 644.0 1448.0, 680 1448.0" fill="none" stroke="#fcd34d" stroke-width="2" stroke-linecap="round" opacity="0.9"/><path d="M 920 1448.0 C 951.5 1448.0, 958.5 1400.0, 990 1400.0" fill="none" stroke="#cbd5e1" stroke-width="1.5" stroke-dasharray="3,3"/><path d="M 920 1448.0 C 951.5 1448.0, 958.5 1448.0, 990 1448.0" fill="none" stroke="#cbd5e1" stroke-width="1.5" stroke-dasharray="3,3"/><path d="M 920 1448.0 C 951.5 1448.0, 958.5 1496.0, 990 1496.0" fill="none" stroke="#cbd5e1" stroke-width="1.5" stroke-dasharray="3,3"/><path d="M 600 1376.0 C 636.0 1376.0, 644.0 1592.0, 680 1592.0" fill="none" stroke="#fcd34d" stroke-width="2" stroke-linecap="round" opacity="0.9"/><path d="M 920 1592.0 C 951.5 1592.0, 958.5 1544.0, 990 1544.0" fill="none" stroke="#cbd5e1" stroke-width="1.5" stroke-dasharray="3,3"/><path d="M 920 1592.0 C 951.5 1592.0, 958.5 1592.0, 990 1592.0" fill="none" stroke="#cbd5e1" stroke-width="1.5" stroke-dasharray="3,3"/><path d="M 920 1592.0 C 951.5 1592.0, 958.5 1640.0, 990 1640.0" fill="none" stroke="#cbd5e1" stroke-width="1.5" stroke-dasharray="3,3"/><path d="M 310 1078.0 C 341.5 1078.0, 348.5 1736.0, 380 1736.0" fill="none" stroke="#7c3aed" stroke-width="3" stroke-linecap="round" opacity="0.85"/><path d="M 600 1736.0 C 636.0 1736.0, 644.0 1736.0, 680 1736.0" fill="none" stroke="#c4b5fd" stroke-width="2" stroke-linecap="round" opacity="0.9"/><path d="M 920 1736.0 C 951.5 1736.0, 958.5 1688.0, 990 1688.0" fill="none" stroke="#cbd5e1" stroke-width="1.5" stroke-dasharray="3,3"/><path d="M 920 1736.0 C 951.5 1736.0, 958.5 1736.0, 990 1736.0" fill="none" stroke="#cbd5e1" stroke-width="1.5" stroke-dasharray="3,3"/><path d="M 920 1736.0 C 951.5 1736.0, 958.5 1784.0, 990 1784.0" fill="none" stroke="#cbd5e1" stroke-width="1.5" stroke-dasharray="3,3"/><path d="M 310 1078.0 C 341.5 1078.0, 348.5 1952.0, 380 1952.0" fill="none" stroke="#e11d48" stroke-width="3" stroke-linecap="round" opacity="0.85"/><path d="M 600 1952.0 C 636.0 1952.0, 644.0 1880.0, 680 1880.0" fill="none" stroke="#fda4af" stroke-width="2" stroke-linecap="round" opacity="0.9"/><path d="M 920 1880.0 C 951.5 1880.0, 958.5 1832.0, 990 1832.0" fill="none" stroke="#cbd5e1" stroke-width="1.5" stroke-dasharray="3,3"/><path d="M 920 1880.0 C 951.5 1880.0, 958.5 1880.0, 990 1880.0" fill="none" stroke="#cbd5e1" stroke-width="1.5" stroke-dasharray="3,3"/><path d="M 920 1880.0 C 951.5 1880.0, 958.5 1928.0, 990 1928.0" fill="none" stroke="#cbd5e1" stroke-width="1.5" stroke-dasharray="3,3"/><path d="M 600 1952.0 C 636.0 1952.0, 644.0 2024.0, 680 2024.0" fill="none" stroke="#fda4af" stroke-width="2" stroke-linecap="round" opacity="0.9"/><path d="M 920 2024.0 C 951.5 2024.0, 958.5 1976.0, 990 1976.0" fill="none" stroke="#cbd5e1" stroke-width="1.5" stroke-dasharray="3,3"/><path d="M 920 2024.0 C 951.5 2024.0, 958.5 2024.0, 990 2024.0" fill="none" stroke="#cbd5e1" stroke-width="1.5" stroke-dasharray="3,3"/><path d="M 920 2024.0 C 951.5 2024.0, 958.5 2072.0, 990 2072.0" fill="none" stroke="#cbd5e1" stroke-width="1.5" stroke-dasharray="3,3"/>
  </g>

  <!-- Nodes -->
  <g class="nodes">
    
    <g class="node root-node" transform="translate(60, 1039.0)">
      <defs>
        <linearGradient id="rootGrad" x1="0%" y1="0%" x2="100%" y2="100%">
          <stop offset="0%" stop-color="#E87722"/>
          <stop offset="100%" stop-color="#C2410C"/>
        </linearGradient>
      </defs>
      <rect width="250" height="78" rx="16" fill="url(#rootGrad)" stroke="#ea580c" stroke-width="2" filter="url(#drop-shadow-lg)"/>
      <text x="20" y="30" font-size="13" font-weight="800" fill="#fed7aa" letter-spacing="1">🧠 CH22 核心知識圖譜</text>
      <text x="20" y="56" font-size="15.5" font-weight="800" fill="#ffffff" font-family="system-ui, -apple-system, sans-serif">病人評估與決策策</text>
    </g>
    
    
        <g class="node branch-node" transform="translate(380, 344.0)">
          <rect width="220" height="48" rx="10" fill="#eff6ff" stroke="#2563eb" stroke-width="2.2" filter="url(#drop-shadow)"/>
          <circle cx="16" cy="24.0" r="6" fill="#2563eb"/>
          <text x="32" y="29.0" font-size="13.5" font-weight="700" fill="#1e40af" font-family="system-ui, -apple-system, sans-serif">病人評估 ‧ 臨床決策</text>
        </g>
        
            <g class="node subbranch-node" transform="translate(680, 131.0)">
              <rect width="240" height="42" rx="8" fill="#ffffff" stroke="#93c5fd" stroke-width="1.8" filter="url(#drop-shadow)"/>
              <text x="14" y="26.0" font-size="13" font-weight="600" fill="#1e293b" font-family="system-ui, -apple-system, sans-serif">環境安全評估與分析</text>
            </g>
            
                <g class="node leaf-node" transform="translate(990, 87.0)">
                  <rect width="470" height="34" rx="6" fill="#f8fafc" stroke="#e2e8f0" stroke-width="1.2"/>
                  <text x="12" y="21.5" font-size="12" font-weight="500" fill="#334155" font-family="system-ui, -apple-system, sans-serif">現場的環境安全評估與分析，永遠都是任何處置的第一步</text>
                </g>
                
                <g class="node leaf-node" transform="translate(990, 135.0)">
                  <rect width="470" height="34" rx="6" fill="#f8fafc" stroke="#e2e8f0" stroke-width="1.2"/>
                  <text x="12" y="21.5" font-size="12" font-weight="500" fill="#334155" font-family="system-ui, -apple-system, sans-serif">高級救護技術員、病人以及其他周圍人員的安全</text>
                </g>
                
                <g class="node leaf-node" transform="translate(990, 183.0)">
                  <rect width="470" height="34" rx="6" fill="#f8fafc" stroke="#e2e8f0" stroke-width="1.2"/>
                  <text x="12" y="21.5" font-size="12" font-weight="500" fill="#334155" font-family="system-ui, -apple-system, sans-serif">優先順序</text>
                </g>
                
            <g class="node subbranch-node" transform="translate(680, 275.0)">
              <rect width="240" height="42" rx="8" fill="#ffffff" stroke="#93c5fd" stroke-width="1.8" filter="url(#drop-shadow)"/>
              <text x="14" y="26.0" font-size="13" font-weight="600" fill="#1e293b" font-family="system-ui, -apple-system, sans-serif">基本個人防護裝備</text>
            </g>
            
                <g class="node leaf-node" transform="translate(990, 231.0)">
                  <rect width="470" height="34" rx="6" fill="#f8fafc" stroke="#e2e8f0" stroke-width="1.2"/>
                  <text x="12" y="21.5" font-size="12" font-weight="500" fill="#334155" font-family="system-ui, -apple-system, sans-serif">個人防護裝備(personal protectiv…</text>
                </g>
                
                <g class="node leaf-node" transform="translate(990, 279.0)">
                  <rect width="470" height="34" rx="6" fill="#f8fafc" stroke="#e2e8f0" stroke-width="1.2"/>
                  <text x="12" y="21.5" font-size="12" font-weight="500" fill="#334155" font-family="system-ui, -apple-system, sans-serif">美國國家消防防護協會(NFPA)</text>
                </g>
                
                <g class="node leaf-node" transform="translate(990, 327.0)">
                  <rect width="470" height="34" rx="6" fill="#f8fafc" stroke="#e2e8f0" stroke-width="1.2"/>
                  <text x="12" y="21.5" font-size="12" font-weight="500" fill="#334155" font-family="system-ui, -apple-system, sans-serif">職業安全與健康管理局(OSHA)</text>
                </g>
                
            <g class="node subbranch-node" transform="translate(680, 419.0)">
              <rect width="240" height="42" rx="8" fill="#ffffff" stroke="#93c5fd" stroke-width="1.8" filter="url(#drop-shadow)"/>
              <text x="14" y="26.0" font-size="13" font-weight="600" fill="#1e293b" font-family="system-ui, -apple-system, sans-serif">針對血液傳染病源的防護</text>
            </g>
            
                <g class="node leaf-node" transform="translate(990, 375.0)">
                  <rect width="470" height="34" rx="6" fill="#f8fafc" stroke="#e2e8f0" stroke-width="1.2"/>
                  <text x="12" y="21.5" font-size="12" font-weight="500" fill="#334155" font-family="system-ui, -apple-system, sans-serif">標準防護措施(Standard Precautio…</text>
                </g>
                
                <g class="node leaf-node" transform="translate(990, 423.0)">
                  <rect width="470" height="34" rx="6" fill="#f8fafc" stroke="#e2e8f0" stroke-width="1.2"/>
                  <text x="12" y="21.5" font-size="12" font-weight="500" fill="#334155" font-family="system-ui, -apple-system, sans-serif">接觸任何可能含有病原體的血液、體液或不確定傳染狀態…</text>
                </g>
                
                <g class="node leaf-node" transform="translate(990, 471.0)">
                  <rect width="470" height="34" rx="6" fill="#f8fafc" stroke="#e2e8f0" stroke-width="1.2"/>
                  <text x="12" y="21.5" font-size="12" font-weight="500" fill="#334155" font-family="system-ui, -apple-system, sans-serif">接觸病人之前和之後都要徹底洗手</text>
                </g>
                
            <g class="node subbranch-node" transform="translate(680, 563.0)">
              <rect width="240" height="42" rx="8" fill="#ffffff" stroke="#93c5fd" stroke-width="1.8" filter="url(#drop-shadow)"/>
              <text x="14" y="26.0" font-size="13" font-weight="600" fill="#1e293b" font-family="system-ui, -apple-system, sans-serif">病人評估的優先順序</text>
            </g>
            
                <g class="node leaf-node" transform="translate(990, 519.0)">
                  <rect width="470" height="34" rx="6" fill="#f8fafc" stroke="#e2e8f0" stroke-width="1.2"/>
                  <text x="12" y="21.5" font-size="12" font-weight="500" fill="#334155" font-family="system-ui, -apple-system, sans-serif">應該要先確定環境是否安全</text>
                </g>
                
                <g class="node leaf-node" transform="translate(990, 567.0)">
                  <rect width="470" height="34" rx="6" fill="#f8fafc" stroke="#e2e8f0" stroke-width="1.2"/>
                  <text x="12" y="21.5" font-size="12" font-weight="500" fill="#334155" font-family="system-ui, -apple-system, sans-serif">確定已經得到所需要的資源或是已經請求支援</text>
                </g>
                
                <g class="node leaf-node" transform="translate(990, 615.0)">
                  <rect width="470" height="34" rx="6" fill="#f8fafc" stroke="#e2e8f0" stroke-width="1.2"/>
                  <text x="12" y="21.5" font-size="12" font-weight="500" fill="#334155" font-family="system-ui, -apple-system, sans-serif">初級評估（初評）</text>
                </g>
                
        <g class="node branch-node" transform="translate(380, 848.0)">
          <rect width="220" height="48" rx="10" fill="#ecfdf5" stroke="#059669" stroke-width="2.2" filter="url(#drop-shadow)"/>
          <circle cx="16" cy="24.0" r="6" fill="#059669"/>
          <text x="32" y="29.0" font-size="13.5" font-weight="700" fill="#065f46" font-family="system-ui, -apple-system, sans-serif">評估後處置的實際應用 ‧ 以評估為基礎…</text>
        </g>
        
            <g class="node subbranch-node" transform="translate(680, 683.0)">
              <rect width="240" height="42" rx="8" fill="#ffffff" stroke="#6ee7b7" stroke-width="1.8" filter="url(#drop-shadow)"/>
              <text x="14" y="26.0" font-size="13" font-weight="600" fill="#1e293b" font-family="system-ui, -apple-system, sans-serif">重點脈絡</text>
            </g>
            
                <g class="node leaf-node" transform="translate(990, 663.0)">
                  <rect width="470" height="34" rx="6" fill="#f8fafc" stroke="#e2e8f0" stroke-width="1.2"/>
                  <text x="12" y="21.5" font-size="12" font-weight="500" fill="#334155" font-family="system-ui, -apple-system, sans-serif">以有系統的方法分析病人的問題，決定如何解決，將計畫…</text>
                </g>
                
                <g class="node leaf-node" transform="translate(990, 711.0)">
                  <rect width="470" height="34" rx="6" fill="#f8fafc" stroke="#e2e8f0" stroke-width="1.2"/>
                  <text x="12" y="21.5" font-size="12" font-weight="500" fill="#334155" font-family="system-ui, -apple-system, sans-serif">將人際溝通技巧、醫學知識和醫療技巧加以融會貫通、充…</text>
                </g>
                
            <g class="node subbranch-node" transform="translate(680, 803.0)">
              <rect width="240" height="42" rx="8" fill="#ffffff" stroke="#6ee7b7" stroke-width="1.8" filter="url(#drop-shadow)"/>
              <text x="14" y="26.0" font-size="13" font-weight="600" fill="#1e293b" font-family="system-ui, -apple-system, sans-serif">病情的嚴重程度</text>
            </g>
            
                <g class="node leaf-node" transform="translate(990, 759.0)">
                  <rect width="470" height="34" rx="6" fill="#f8fafc" stroke="#e2e8f0" stroke-width="1.2"/>
                  <text x="12" y="21.5" font-size="12" font-weight="500" fill="#334155" font-family="system-ui, -apple-system, sans-serif">真正危及生命的狀況只占一小部分</text>
                </g>
                
                <g class="node leaf-node" transform="translate(990, 807.0)">
                  <rect width="470" height="34" rx="6" fill="#f8fafc" stroke="#e2e8f0" stroke-width="1.2"/>
                  <text x="12" y="21.5" font-size="12" font-weight="500" fill="#334155" font-family="system-ui, -apple-system, sans-serif">輕微的疾病或外傷不太需要關鍵思考，因為這些情況下的臨床決策大多相對簡單。</text>
                </g>
                
                <g class="node leaf-node" transform="translate(990, 855.0)">
                  <rect width="470" height="34" rx="6" fill="#f8fafc" stroke="#e2e8f0" stroke-width="1.2"/>
                  <text x="12" y="21.5" font-size="12" font-weight="500" fill="#334155" font-family="system-ui, -apple-system, sans-serif">會危及生命的狀況，如心跳停止，通常也不需要關鍵思考，因為這些狀況有特定的處…</text>
                </g>
                
            <g class="node subbranch-node" transform="translate(680, 947.0)">
              <rect width="240" height="42" rx="8" fill="#ffffff" stroke="#6ee7b7" stroke-width="1.8" filter="url(#drop-shadow)"/>
              <text x="14" y="26.0" font-size="13" font-weight="600" fill="#1e293b" font-family="system-ui, -apple-system, sans-serif">在壓力下的思考</text>
            </g>
            
                <g class="node leaf-node" transform="translate(990, 903.0)">
                  <rect width="470" height="34" rx="6" fill="#f8fafc" stroke="#e2e8f0" stroke-width="1.2"/>
                  <text x="12" y="21.5" font-size="12" font-weight="500" fill="#334155" font-family="system-ui, -apple-system, sans-serif">「打或逃反應」(fight or flight r…</text>
                </g>
                
                <g class="node leaf-node" transform="translate(990, 951.0)">
                  <rect width="470" height="34" rx="6" fill="#f8fafc" stroke="#e2e8f0" stroke-width="1.2"/>
                  <text x="12" y="21.5" font-size="12" font-weight="500" fill="#334155" font-family="system-ui, -apple-system, sans-serif">荷爾蒙效應</text>
                </g>
                
                <g class="node leaf-node" transform="translate(990, 999.0)">
                  <rect width="470" height="34" rx="6" fill="#f8fafc" stroke="#e2e8f0" stroke-width="1.2"/>
                  <text x="12" y="21.5" font-size="12" font-weight="500" fill="#334155" font-family="system-ui, -apple-system, sans-serif">有正面和負面影響</text>
                </g>
                
            <g class="node subbranch-node" transform="translate(680, 1043.0)">
              <rect width="240" height="42" rx="8" fill="#ffffff" stroke="#6ee7b7" stroke-width="1.8" filter="url(#drop-shadow)"/>
              <text x="14" y="26.0" font-size="13" font-weight="600" fill="#1e293b" font-family="system-ui, -apple-system, sans-serif">狀況分析：詳細 vs. 快速</text>
            </g>
            
        <g class="node branch-node" transform="translate(380, 1352.0)">
          <rect width="220" height="48" rx="10" fill="#fffbeb" stroke="#d97706" stroke-width="2.2" filter="url(#drop-shadow)"/>
          <circle cx="16" cy="24.0" r="6" fill="#d97706"/>
          <text x="32" y="29.0" font-size="13.5" font-weight="700" fill="#92400e" font-family="system-ui, -apple-system, sans-serif">影響評估與決策的因素 ‧ 病況回報</text>
        </g>
        
            <g class="node subbranch-node" transform="translate(680, 1139.0)">
              <rect width="240" height="42" rx="8" fill="#ffffff" stroke="#fcd34d" stroke-width="1.8" filter="url(#drop-shadow)"/>
              <text x="14" y="26.0" font-size="13" font-weight="600" fill="#1e293b" font-family="system-ui, -apple-system, sans-serif">重點脈絡</text>
            </g>
            
                <g class="node leaf-node" transform="translate(990, 1095.0)">
                  <rect width="470" height="34" rx="6" fill="#f8fafc" stroke="#e2e8f0" stroke-width="1.2"/>
                  <text x="12" y="21.5" font-size="12" font-weight="500" fill="#334155" font-family="system-ui, -apple-system, sans-serif">評估與決策的品質</text>
                </g>
                
                <g class="node leaf-node" transform="translate(990, 1143.0)">
                  <rect width="470" height="34" rx="6" fill="#f8fafc" stroke="#e2e8f0" stroke-width="1.2"/>
                  <text x="12" y="21.5" font-size="12" font-weight="500" fill="#334155" font-family="system-ui, -apple-system, sans-serif">高級救護技術員的態度</text>
                </g>
                
                <g class="node leaf-node" transform="translate(990, 1191.0)">
                  <rect width="470" height="34" rx="6" fill="#f8fafc" stroke="#e2e8f0" stroke-width="1.2"/>
                  <text x="12" y="21.5" font-size="12" font-weight="500" fill="#334155" font-family="system-ui, -apple-system, sans-serif">病人是否願意配合</text>
                </g>
                
            <g class="node subbranch-node" transform="translate(680, 1283.0)">
              <rect width="240" height="42" rx="8" fill="#ffffff" stroke="#fcd34d" stroke-width="1.8" filter="url(#drop-shadow)"/>
              <text x="14" y="26.0" font-size="13" font-weight="600" fill="#1e293b" font-family="system-ui, -apple-system, sans-serif">高級救護技術員的態度</text>
            </g>
            
                <g class="node leaf-node" transform="translate(990, 1239.0)">
                  <rect width="470" height="34" rx="6" fill="#f8fafc" stroke="#e2e8f0" stroke-width="1.2"/>
                  <text x="12" y="21.5" font-size="12" font-weight="500" fill="#334155" font-family="system-ui, -apple-system, sans-serif">保持正面的專業態度</text>
                </g>
                
                <g class="node leaf-node" transform="translate(990, 1287.0)">
                  <rect width="470" height="34" rx="6" fill="#f8fafc" stroke="#e2e8f0" stroke-width="1.2"/>
                  <text x="12" y="21.5" font-size="12" font-weight="500" fill="#334155" font-family="system-ui, -apple-system, sans-serif">如果心存偏見，則容易忽視重要的訊息</text>
                </g>
                
                <g class="node leaf-node" transform="translate(990, 1335.0)">
                  <rect width="470" height="34" rx="6" fill="#f8fafc" stroke="#e2e8f0" stroke-width="1.2"/>
                  <text x="12" y="21.5" font-size="12" font-weight="500" fill="#334155" font-family="system-ui, -apple-system, sans-serif">意識不清的路倒病人，身上髒兮兮的，一身酒氣</text>
                </g>
                
            <g class="node subbranch-node" transform="translate(680, 1427.0)">
              <rect width="240" height="42" rx="8" fill="#ffffff" stroke="#fcd34d" stroke-width="1.8" filter="url(#drop-shadow)"/>
              <text x="14" y="26.0" font-size="13" font-weight="600" fill="#1e293b" font-family="system-ui, -apple-system, sans-serif">病人是否願意配合</text>
            </g>
            
                <g class="node leaf-node" transform="translate(990, 1383.0)">
                  <rect width="470" height="34" rx="6" fill="#f8fafc" stroke="#e2e8f0" stroke-width="1.2"/>
                  <text x="12" y="21.5" font-size="12" font-weight="500" fill="#334155" font-family="system-ui, -apple-system, sans-serif">病人若不願配合檢查</text>
                </g>
                
                <g class="node leaf-node" transform="translate(990, 1431.0)">
                  <rect width="470" height="34" rx="6" fill="#f8fafc" stroke="#e2e8f0" stroke-width="1.2"/>
                  <text x="12" y="21.5" font-size="12" font-weight="500" fill="#334155" font-family="system-ui, -apple-system, sans-serif">躁動、不配合、甚至是有攻擊傾向的病人</text>
                </g>
                
                <g class="node leaf-node" transform="translate(990, 1479.0)">
                  <rect width="470" height="34" rx="6" fill="#f8fafc" stroke="#e2e8f0" stroke-width="1.2"/>
                  <text x="12" y="21.5" font-size="12" font-weight="500" fill="#334155" font-family="system-ui, -apple-system, sans-serif">要先考慮是不是有下列這些情形</text>
                </g>
                
            <g class="node subbranch-node" transform="translate(680, 1571.0)">
              <rect width="240" height="42" rx="8" fill="#ffffff" stroke="#fcd34d" stroke-width="1.8" filter="url(#drop-shadow)"/>
              <text x="14" y="26.0" font-size="13" font-weight="600" fill="#1e293b" font-family="system-ui, -apple-system, sans-serif">分散注意力的受傷</text>
            </g>
            
                <g class="node leaf-node" transform="translate(990, 1527.0)">
                  <rect width="470" height="34" rx="6" fill="#f8fafc" stroke="#e2e8f0" stroke-width="1.2"/>
                  <text x="12" y="21.5" font-size="12" font-weight="500" fill="#334155" font-family="system-ui, -apple-system, sans-serif">明顯但不至於危及生命的受傷</text>
                </g>
                
                <g class="node leaf-node" transform="translate(990, 1575.0)">
                  <rect width="470" height="34" rx="6" fill="#f8fafc" stroke="#e2e8f0" stroke-width="1.2"/>
                  <text x="12" y="21.5" font-size="12" font-weight="500" fill="#334155" font-family="system-ui, -apple-system, sans-serif">開放性骨折或臉部傷口流血</text>
                </g>
                
                <g class="node leaf-node" transform="translate(990, 1623.0)">
                  <rect width="470" height="34" rx="6" fill="#f8fafc" stroke="#e2e8f0" stroke-width="1.2"/>
                  <text x="12" y="21.5" font-size="12" font-weight="500" fill="#334155" font-family="system-ui, -apple-system, sans-serif">然而，這樣做可能會忽略病人整體狀況的評估，從而忽視…</text>
                </g>
                
        <g class="node branch-node" transform="translate(380, 1712.0)">
          <rect width="220" height="48" rx="10" fill="#f5f3ff" stroke="#7c3aed" stroke-width="2.2" filter="url(#drop-shadow)"/>
          <circle cx="16" cy="24.0" r="6" fill="#7c3aed"/>
          <text x="32" y="29.0" font-size="13.5" font-weight="700" fill="#5b21b6" font-family="system-ui, -apple-system, sans-serif">情境解答 ‧ 問題交流</text>
        </g>
        
            <g class="node subbranch-node" transform="translate(680, 1715.0)">
              <rect width="240" height="42" rx="8" fill="#ffffff" stroke="#c4b5fd" stroke-width="1.8" filter="url(#drop-shadow)"/>
              <text x="14" y="26.0" font-size="13" font-weight="600" fill="#1e293b" font-family="system-ui, -apple-system, sans-serif">重點脈絡</text>
            </g>
            
                <g class="node leaf-node" transform="translate(990, 1671.0)">
                  <rect width="470" height="34" rx="6" fill="#f8fafc" stroke="#e2e8f0" stroke-width="1.2"/>
                  <text x="12" y="21.5" font-size="12" font-weight="500" fill="#334155" font-family="system-ui, -apple-system, sans-serif">意識不清可能有很多原因</text>
                </g>
                
                <g class="node leaf-node" transform="translate(990, 1719.0)">
                  <rect width="470" height="34" rx="6" fill="#f8fafc" stroke="#e2e8f0" stroke-width="1.2"/>
                  <text x="12" y="21.5" font-size="12" font-weight="500" fill="#334155" font-family="system-ui, -apple-system, sans-serif">EMT 必須要有能力在到院前將某些因素排除或給予校正</text>
                </g>
                
                <g class="node leaf-node" transform="translate(990, 1767.0)">
                  <rect width="470" height="34" rx="6" fill="#f8fafc" stroke="#e2e8f0" stroke-width="1.2"/>
                  <text x="12" y="21.5" font-size="12" font-weight="500" fill="#334155" font-family="system-ui, -apple-system, sans-serif">意識不清的病人可利用口訣「AEIOUTIPS」來鑑…</text>
                </g>
                
        <g class="node branch-node" transform="translate(380, 1928.0)">
          <rect width="220" height="48" rx="10" fill="#fff1f2" stroke="#e11d48" stroke-width="2.2" filter="url(#drop-shadow)"/>
          <circle cx="16" cy="24.0" r="6" fill="#e11d48"/>
          <text x="32" y="29.0" font-size="13.5" font-weight="700" fill="#9f1239" font-family="system-ui, -apple-system, sans-serif">重點整理 ‧ 參考資料</text>
        </g>
        
            <g class="node subbranch-node" transform="translate(680, 1859.0)">
              <rect width="240" height="42" rx="8" fill="#ffffff" stroke="#fda4af" stroke-width="1.8" filter="url(#drop-shadow)"/>
              <text x="14" y="26.0" font-size="13" font-weight="600" fill="#1e293b" font-family="system-ui, -apple-system, sans-serif">重點脈絡</text>
            </g>
            
                <g class="node leaf-node" transform="translate(990, 1815.0)">
                  <rect width="470" height="34" rx="6" fill="#f8fafc" stroke="#e2e8f0" stroke-width="1.2"/>
                  <text x="12" y="21.5" font-size="12" font-weight="500" fill="#334155" font-family="system-ui, -apple-system, sans-serif">病人評估與決策處理是每位高級救護技術員在每次救護出勤時都會用得到的工具，對…</text>
                </g>
                
                <g class="node leaf-node" transform="translate(990, 1863.0)">
                  <rect width="470" height="34" rx="6" fill="#f8fafc" stroke="#e2e8f0" stroke-width="1.2"/>
                  <text x="12" y="21.5" font-size="12" font-weight="500" fill="#334155" font-family="system-ui, -apple-system, sans-serif">在評估方面，大前提是穿著好適當的個人防護裝備，以免危害到自身安全。</text>
                </g>
                
                <g class="node leaf-node" transform="translate(990, 1911.0)">
                  <rect width="470" height="34" rx="6" fill="#f8fafc" stroke="#e2e8f0" stroke-width="1.2"/>
                  <text x="12" y="21.5" font-size="12" font-weight="500" fill="#334155" font-family="system-ui, -apple-system, sans-serif">在開始評估之前，先要對周遭的環境進行安全評估與分析，不要貿然進入危險的環境。</text>
                </g>
                
            <g class="node subbranch-node" transform="translate(680, 2003.0)">
              <rect width="240" height="42" rx="8" fill="#ffffff" stroke="#fda4af" stroke-width="1.8" filter="url(#drop-shadow)"/>
              <text x="14" y="26.0" font-size="13" font-weight="600" fill="#1e293b" font-family="system-ui, -apple-system, sans-serif">重點脈絡</text>
            </g>
            
                <g class="node leaf-node" transform="translate(990, 1959.0)">
                  <rect width="470" height="34" rx="6" fill="#f8fafc" stroke="#e2e8f0" stroke-width="1.2"/>
                  <text x="12" y="21.5" font-size="12" font-weight="500" fill="#334155" font-family="system-ui, -apple-system, sans-serif">Mick J. Sanders, MSA, EMT-P. Mosby&#x27;s …</text>
                </g>
                
                <g class="node leaf-node" transform="translate(990, 2007.0)">
                  <rect width="470" height="34" rx="6" fill="#f8fafc" stroke="#e2e8f0" stroke-width="1.2"/>
                  <text x="12" y="21.5" font-size="12" font-weight="500" fill="#334155" font-family="system-ui, -apple-system, sans-serif">Lynn S. Bickley and Peter G. Szilagyi…</text>
                </g>
                
                <g class="node leaf-node" transform="translate(990, 2055.0)">
                  <rect width="470" height="34" rx="6" fill="#f8fafc" stroke="#e2e8f0" stroke-width="1.2"/>
                  <text x="12" y="21.5" font-size="12" font-weight="500" fill="#334155" font-family="system-ui, -apple-system, sans-serif">臺北市政府消防局醫療顧問委員會：臺北市政府消防局高級救護技術員到院前緊急救…</text>
                </g>
                
  </g>
</svg>
