<svg xmlns="http://www.w3.org/2000/svg" viewBox="0 0 1520 2252" width="100%" height="100%" style="background: transparent;">
  <defs>
    <filter id="drop-shadow" x="-10%" y="-10%" width="130%" height="130%">
      <feDropShadow dx="0" dy="2" stdDeviation="3" flood-opacity="0.08"/>
    </filter>
    <filter id="drop-shadow-lg" x="-15%" y="-15%" width="140%" height="140%">
      <feDropShadow dx="0" dy="4" stdDeviation="6" flood-opacity="0.18"/>
    </filter>
  </defs>

  <!-- Connectors -->
  <g class="connectors">
    <path d="M 310 1126.0 C 341.5 1126.0, 348.5 368.0, 380 368.0" fill="none" stroke="#2563eb" stroke-width="3" stroke-linecap="round" opacity="0.85"/><path d="M 600 368.0 C 636.0 368.0, 644.0 152.0, 680 152.0" fill="none" stroke="#93c5fd" stroke-width="2" stroke-linecap="round" opacity="0.9"/><path d="M 920 152.0 C 951.5 152.0, 958.5 104.0, 990 104.0" fill="none" stroke="#cbd5e1" stroke-width="1.5" stroke-dasharray="3,3"/><path d="M 920 152.0 C 951.5 152.0, 958.5 152.0, 990 152.0" fill="none" stroke="#cbd5e1" stroke-width="1.5" stroke-dasharray="3,3"/><path d="M 920 152.0 C 951.5 152.0, 958.5 200.0, 990 200.0" fill="none" stroke="#cbd5e1" stroke-width="1.5" stroke-dasharray="3,3"/><path d="M 600 368.0 C 636.0 368.0, 644.0 296.0, 680 296.0" fill="none" stroke="#93c5fd" stroke-width="2" stroke-linecap="round" opacity="0.9"/><path d="M 920 296.0 C 951.5 296.0, 958.5 248.0, 990 248.0" fill="none" stroke="#cbd5e1" stroke-width="1.5" stroke-dasharray="3,3"/><path d="M 920 296.0 C 951.5 296.0, 958.5 296.0, 990 296.0" fill="none" stroke="#cbd5e1" stroke-width="1.5" stroke-dasharray="3,3"/><path d="M 920 296.0 C 951.5 296.0, 958.5 344.0, 990 344.0" fill="none" stroke="#cbd5e1" stroke-width="1.5" stroke-dasharray="3,3"/><path d="M 600 368.0 C 636.0 368.0, 644.0 440.0, 680 440.0" fill="none" stroke="#93c5fd" stroke-width="2" stroke-linecap="round" opacity="0.9"/><path d="M 920 440.0 C 951.5 440.0, 958.5 392.0, 990 392.0" fill="none" stroke="#cbd5e1" stroke-width="1.5" stroke-dasharray="3,3"/><path d="M 920 440.0 C 951.5 440.0, 958.5 440.0, 990 440.0" fill="none" stroke="#cbd5e1" stroke-width="1.5" stroke-dasharray="3,3"/><path d="M 920 440.0 C 951.5 440.0, 958.5 488.0, 990 488.0" fill="none" stroke="#cbd5e1" stroke-width="1.5" stroke-dasharray="3,3"/><path d="M 600 368.0 C 636.0 368.0, 644.0 584.0, 680 584.0" fill="none" stroke="#93c5fd" stroke-width="2" stroke-linecap="round" opacity="0.9"/><path d="M 920 584.0 C 951.5 584.0, 958.5 536.0, 990 536.0" fill="none" stroke="#cbd5e1" stroke-width="1.5" stroke-dasharray="3,3"/><path d="M 920 584.0 C 951.5 584.0, 958.5 584.0, 990 584.0" fill="none" stroke="#cbd5e1" stroke-width="1.5" stroke-dasharray="3,3"/><path d="M 920 584.0 C 951.5 584.0, 958.5 632.0, 990 632.0" fill="none" stroke="#cbd5e1" stroke-width="1.5" stroke-dasharray="3,3"/><path d="M 310 1126.0 C 341.5 1126.0, 348.5 920.0, 380 920.0" fill="none" stroke="#059669" stroke-width="3" stroke-linecap="round" opacity="0.85"/><path d="M 600 920.0 C 636.0 920.0, 644.0 704.0, 680 704.0" fill="none" stroke="#6ee7b7" stroke-width="2" stroke-linecap="round" opacity="0.9"/><path d="M 920 704.0 C 951.5 704.0, 958.5 680.0, 990 680.0" fill="none" stroke="#cbd5e1" stroke-width="1.5" stroke-dasharray="3,3"/><path d="M 920 704.0 C 951.5 704.0, 958.5 728.0, 990 728.0" fill="none" stroke="#cbd5e1" stroke-width="1.5" stroke-dasharray="3,3"/><path d="M 600 920.0 C 636.0 920.0, 644.0 824.0, 680 824.0" fill="none" stroke="#6ee7b7" stroke-width="2" stroke-linecap="round" opacity="0.9"/><path d="M 920 824.0 C 951.5 824.0, 958.5 776.0, 990 776.0" fill="none" stroke="#cbd5e1" stroke-width="1.5" stroke-dasharray="3,3"/><path d="M 920 824.0 C 951.5 824.0, 958.5 824.0, 990 824.0" fill="none" stroke="#cbd5e1" stroke-width="1.5" stroke-dasharray="3,3"/><path d="M 920 824.0 C 951.5 824.0, 958.5 872.0, 990 872.0" fill="none" stroke="#cbd5e1" stroke-width="1.5" stroke-dasharray="3,3"/><path d="M 600 920.0 C 636.0 920.0, 644.0 968.0, 680 968.0" fill="none" stroke="#6ee7b7" stroke-width="2" stroke-linecap="round" opacity="0.9"/><path d="M 920 968.0 C 951.5 968.0, 958.5 920.0, 990 920.0" fill="none" stroke="#cbd5e1" stroke-width="1.5" stroke-dasharray="3,3"/><path d="M 920 968.0 C 951.5 968.0, 958.5 968.0, 990 968.0" fill="none" stroke="#cbd5e1" stroke-width="1.5" stroke-dasharray="3,3"/><path d="M 920 968.0 C 951.5 968.0, 958.5 1016.0, 990 1016.0" fill="none" stroke="#cbd5e1" stroke-width="1.5" stroke-dasharray="3,3"/><path d="M 600 920.0 C 636.0 920.0, 644.0 1112.0, 680 1112.0" fill="none" stroke="#6ee7b7" stroke-width="2" stroke-linecap="round" opacity="0.9"/><path d="M 920 1112.0 C 951.5 1112.0, 958.5 1064.0, 990 1064.0" fill="none" stroke="#cbd5e1" stroke-width="1.5" stroke-dasharray="3,3"/><path d="M 920 1112.0 C 951.5 1112.0, 958.5 1112.0, 990 1112.0" fill="none" stroke="#cbd5e1" stroke-width="1.5" stroke-dasharray="3,3"/><path d="M 920 1112.0 C 951.5 1112.0, 958.5 1160.0, 990 1160.0" fill="none" stroke="#cbd5e1" stroke-width="1.5" stroke-dasharray="3,3"/><path d="M 310 1126.0 C 341.5 1126.0, 348.5 1472.0, 380 1472.0" fill="none" stroke="#d97706" stroke-width="3" stroke-linecap="round" opacity="0.85"/><path d="M 600 1472.0 C 636.0 1472.0, 644.0 1256.0, 680 1256.0" fill="none" stroke="#fcd34d" stroke-width="2" stroke-linecap="round" opacity="0.9"/><path d="M 920 1256.0 C 951.5 1256.0, 958.5 1208.0, 990 1208.0" fill="none" stroke="#cbd5e1" stroke-width="1.5" stroke-dasharray="3,3"/><path d="M 920 1256.0 C 951.5 1256.0, 958.5 1256.0, 990 1256.0" fill="none" stroke="#cbd5e1" stroke-width="1.5" stroke-dasharray="3,3"/><path d="M 920 1256.0 C 951.5 1256.0, 958.5 1304.0, 990 1304.0" fill="none" stroke="#cbd5e1" stroke-width="1.5" stroke-dasharray="3,3"/><path d="M 600 1472.0 C 636.0 1472.0, 644.0 1400.0, 680 1400.0" fill="none" stroke="#fcd34d" stroke-width="2" stroke-linecap="round" opacity="0.9"/><path d="M 920 1400.0 C 951.5 1400.0, 958.5 1352.0, 990 1352.0" fill="none" stroke="#cbd5e1" stroke-width="1.5" stroke-dasharray="3,3"/><path d="M 920 1400.0 C 951.5 1400.0, 958.5 1400.0, 990 1400.0" fill="none" stroke="#cbd5e1" stroke-width="1.5" stroke-dasharray="3,3"/><path d="M 920 1400.0 C 951.5 1400.0, 958.5 1448.0, 990 1448.0" fill="none" stroke="#cbd5e1" stroke-width="1.5" stroke-dasharray="3,3"/><path d="M 600 1472.0 C 636.0 1472.0, 644.0 1544.0, 680 1544.0" fill="none" stroke="#fcd34d" stroke-width="2" stroke-linecap="round" opacity="0.9"/><path d="M 920 1544.0 C 951.5 1544.0, 958.5 1496.0, 990 1496.0" fill="none" stroke="#cbd5e1" stroke-width="1.5" stroke-dasharray="3,3"/><path d="M 920 1544.0 C 951.5 1544.0, 958.5 1544.0, 990 1544.0" fill="none" stroke="#cbd5e1" stroke-width="1.5" stroke-dasharray="3,3"/><path d="M 920 1544.0 C 951.5 1544.0, 958.5 1592.0, 990 1592.0" fill="none" stroke="#cbd5e1" stroke-width="1.5" stroke-dasharray="3,3"/><path d="M 600 1472.0 C 636.0 1472.0, 644.0 1688.0, 680 1688.0" fill="none" stroke="#fcd34d" stroke-width="2" stroke-linecap="round" opacity="0.9"/><path d="M 920 1688.0 C 951.5 1688.0, 958.5 1640.0, 990 1640.0" fill="none" stroke="#cbd5e1" stroke-width="1.5" stroke-dasharray="3,3"/><path d="M 920 1688.0 C 951.5 1688.0, 958.5 1688.0, 990 1688.0" fill="none" stroke="#cbd5e1" stroke-width="1.5" stroke-dasharray="3,3"/><path d="M 920 1688.0 C 951.5 1688.0, 958.5 1736.0, 990 1736.0" fill="none" stroke="#cbd5e1" stroke-width="1.5" stroke-dasharray="3,3"/><path d="M 310 1126.0 C 341.5 1126.0, 348.5 1904.0, 380 1904.0" fill="none" stroke="#7c3aed" stroke-width="3" stroke-linecap="round" opacity="0.85"/><path d="M 600 1904.0 C 636.0 1904.0, 644.0 1832.0, 680 1832.0" fill="none" stroke="#c4b5fd" stroke-width="2" stroke-linecap="round" opacity="0.9"/><path d="M 920 1832.0 C 951.5 1832.0, 958.5 1784.0, 990 1784.0" fill="none" stroke="#cbd5e1" stroke-width="1.5" stroke-dasharray="3,3"/><path d="M 920 1832.0 C 951.5 1832.0, 958.5 1832.0, 990 1832.0" fill="none" stroke="#cbd5e1" stroke-width="1.5" stroke-dasharray="3,3"/><path d="M 920 1832.0 C 951.5 1832.0, 958.5 1880.0, 990 1880.0" fill="none" stroke="#cbd5e1" stroke-width="1.5" stroke-dasharray="3,3"/><path d="M 600 1904.0 C 636.0 1904.0, 644.0 1976.0, 680 1976.0" fill="none" stroke="#c4b5fd" stroke-width="2" stroke-linecap="round" opacity="0.9"/><path d="M 920 1976.0 C 951.5 1976.0, 958.5 1928.0, 990 1928.0" fill="none" stroke="#cbd5e1" stroke-width="1.5" stroke-dasharray="3,3"/><path d="M 920 1976.0 C 951.5 1976.0, 958.5 1976.0, 990 1976.0" fill="none" stroke="#cbd5e1" stroke-width="1.5" stroke-dasharray="3,3"/><path d="M 920 1976.0 C 951.5 1976.0, 958.5 2024.0, 990 2024.0" fill="none" stroke="#cbd5e1" stroke-width="1.5" stroke-dasharray="3,3"/><path d="M 310 1126.0 C 341.5 1126.0, 348.5 2120.0, 380 2120.0" fill="none" stroke="#e11d48" stroke-width="3" stroke-linecap="round" opacity="0.85"/><path d="M 600 2120.0 C 636.0 2120.0, 644.0 2120.0, 680 2120.0" fill="none" stroke="#fda4af" stroke-width="2" stroke-linecap="round" opacity="0.9"/><path d="M 920 2120.0 C 951.5 2120.0, 958.5 2072.0, 990 2072.0" fill="none" stroke="#cbd5e1" stroke-width="1.5" stroke-dasharray="3,3"/><path d="M 920 2120.0 C 951.5 2120.0, 958.5 2120.0, 990 2120.0" fill="none" stroke="#cbd5e1" stroke-width="1.5" stroke-dasharray="3,3"/><path d="M 920 2120.0 C 951.5 2120.0, 958.5 2168.0, 990 2168.0" fill="none" stroke="#cbd5e1" stroke-width="1.5" stroke-dasharray="3,3"/>
  </g>

  <!-- Nodes -->
  <g class="nodes">
    
    <g class="node root-node" transform="translate(60, 1087.0)">
      <defs>
        <linearGradient id="rootGrad" x1="0%" y1="0%" x2="100%" y2="100%">
          <stop offset="0%" stop-color="#E87722"/>
          <stop offset="100%" stop-color="#C2410C"/>
        </linearGradient>
      </defs>
      <rect width="250" height="78" rx="16" fill="url(#rootGrad)" stroke="#ea580c" stroke-width="2" filter="url(#drop-shadow-lg)"/>
      <text x="20" y="30" font-size="13" font-weight="800" fill="#fed7aa" letter-spacing="1">🧠 CH26 核心知識圖譜</text>
      <text x="20" y="56" font-size="15.5" font-weight="800" fill="#ffffff" font-family="system-ui, -apple-system, sans-serif">出血、休克與止血治療</text>
    </g>
    
    
        <g class="node branch-node" transform="translate(380, 344.0)">
          <rect width="220" height="48" rx="10" fill="#eff6ff" stroke="#2563eb" stroke-width="2.2" filter="url(#drop-shadow)"/>
          <circle cx="16" cy="24.0" r="6" fill="#2563eb"/>
          <text x="32" y="29.0" font-size="13.5" font-weight="700" fill="#1e40af" font-family="system-ui, -apple-system, sans-serif">出血 ‧ 休克</text>
        </g>
        
            <g class="node subbranch-node" transform="translate(680, 131.0)">
              <rect width="240" height="42" rx="8" fill="#ffffff" stroke="#93c5fd" stroke-width="1.8" filter="url(#drop-shadow)"/>
              <text x="14" y="26.0" font-size="13" font-weight="600" fill="#1e293b" font-family="system-ui, -apple-system, sans-serif">出血的定義與分類</text>
            </g>
            
                <g class="node leaf-node" transform="translate(990, 87.0)">
                  <rect width="470" height="34" rx="6" fill="#f8fafc" stroke="#e2e8f0" stroke-width="1.2"/>
                  <text x="12" y="21.5" font-size="12" font-weight="500" fill="#334155" font-family="system-ui, -apple-system, sans-serif">血液自血管內向外散逸的現象，稱為出血</text>
                </g>
                
                <g class="node leaf-node" transform="translate(990, 135.0)">
                  <rect width="470" height="34" rx="6" fill="#f8fafc" stroke="#e2e8f0" stroke-width="1.2"/>
                  <text x="12" y="21.5" font-size="12" font-weight="500" fill="#334155" font-family="system-ui, -apple-system, sans-serif">體外</text>
                </g>
                
                <g class="node leaf-node" transform="translate(990, 183.0)">
                  <rect width="470" height="34" rx="6" fill="#f8fafc" stroke="#e2e8f0" stroke-width="1.2"/>
                  <text x="12" y="21.5" font-size="12" font-weight="500" fill="#334155" font-family="system-ui, -apple-system, sans-serif">外出血</text>
                </g>
                
            <g class="node subbranch-node" transform="translate(680, 275.0)">
              <rect width="240" height="42" rx="8" fill="#ffffff" stroke="#93c5fd" stroke-width="1.8" filter="url(#drop-shadow)"/>
              <text x="14" y="26.0" font-size="13" font-weight="600" fill="#1e293b" font-family="system-ui, -apple-system, sans-serif">內出血的微細徵兆</text>
            </g>
            
                <g class="node leaf-node" transform="translate(990, 231.0)">
                  <rect width="470" height="34" rx="6" fill="#f8fafc" stroke="#e2e8f0" stroke-width="1.2"/>
                  <text x="12" y="21.5" font-size="12" font-weight="500" fill="#334155" font-family="system-ui, -apple-system, sans-serif">咖啡渣狀嘔吐物</text>
                </g>
                
                <g class="node leaf-node" transform="translate(990, 279.0)">
                  <rect width="470" height="34" rx="6" fill="#f8fafc" stroke="#e2e8f0" stroke-width="1.2"/>
                  <text x="12" y="21.5" font-size="12" font-weight="500" fill="#334155" font-family="system-ui, -apple-system, sans-serif">解黑便或血便</text>
                </g>
                
                <g class="node leaf-node" transform="translate(990, 327.0)">
                  <rect width="470" height="34" rx="6" fill="#f8fafc" stroke="#e2e8f0" stroke-width="1.2"/>
                  <text x="12" y="21.5" font-size="12" font-weight="500" fill="#334155" font-family="system-ui, -apple-system, sans-serif">姿勢性低血壓</text>
                </g>
                
            <g class="node subbranch-node" transform="translate(680, 419.0)">
              <rect width="240" height="42" rx="8" fill="#ffffff" stroke="#93c5fd" stroke-width="1.8" filter="url(#drop-shadow)"/>
              <text x="14" y="26.0" font-size="13" font-weight="600" fill="#1e293b" font-family="system-ui, -apple-system, sans-serif">身體對出血的生理反應</text>
            </g>
            
                <g class="node leaf-node" transform="translate(990, 375.0)">
                  <rect width="470" height="34" rx="6" fill="#f8fafc" stroke="#e2e8f0" stroke-width="1.2"/>
                  <text x="12" y="21.5" font-size="12" font-weight="500" fill="#334155" font-family="system-ui, -apple-system, sans-serif">自我防衛機轉</text>
                </g>
                
                <g class="node leaf-node" transform="translate(990, 423.0)">
                  <rect width="470" height="34" rx="6" fill="#f8fafc" stroke="#e2e8f0" stroke-width="1.2"/>
                  <text x="12" y="21.5" font-size="12" font-weight="500" fill="#334155" font-family="system-ui, -apple-system, sans-serif">局部血管收縮、血小板凝結、血栓形成、纖維結締組織生…</text>
                </g>
                
                <g class="node leaf-node" transform="translate(990, 471.0)">
                  <rect width="470" height="34" rx="6" fill="#f8fafc" stroke="#e2e8f0" stroke-width="1.2"/>
                  <text x="12" y="21.5" font-size="12" font-weight="500" fill="#334155" font-family="system-ui, -apple-system, sans-serif">若傷勢嚴重、出血的情形無法控制，則會導致休克</text>
                </g>
                
            <g class="node subbranch-node" transform="translate(680, 563.0)">
              <rect width="240" height="42" rx="8" fill="#ffffff" stroke="#93c5fd" stroke-width="1.8" filter="url(#drop-shadow)"/>
              <text x="14" y="26.0" font-size="13" font-weight="600" fill="#1e293b" font-family="system-ui, -apple-system, sans-serif">止血生理反應–凝血機制</text>
            </g>
            
                <g class="node leaf-node" transform="translate(990, 519.0)">
                  <rect width="470" height="34" rx="6" fill="#f8fafc" stroke="#e2e8f0" stroke-width="1.2"/>
                  <text x="12" y="21.5" font-size="12" font-weight="500" fill="#334155" font-family="system-ui, -apple-system, sans-serif">血管壁破損</text>
                </g>
                
                <g class="node leaf-node" transform="translate(990, 567.0)">
                  <rect width="470" height="34" rx="6" fill="#f8fafc" stroke="#e2e8f0" stroke-width="1.2"/>
                  <text x="12" y="21.5" font-size="12" font-weight="500" fill="#334155" font-family="system-ui, -apple-system, sans-serif">凝血機制</text>
                </g>
                
                <g class="node leaf-node" transform="translate(990, 615.0)">
                  <rect width="470" height="34" rx="6" fill="#f8fafc" stroke="#e2e8f0" stroke-width="1.2"/>
                  <text x="12" y="21.5" font-size="12" font-weight="500" fill="#334155" font-family="system-ui, -apple-system, sans-serif">血小板黏附到受傷血管與其週邊結締組織中的膠原組織</text>
                </g>
                
        <g class="node branch-node" transform="translate(380, 896.0)">
          <rect width="220" height="48" rx="10" fill="#ecfdf5" stroke="#059669" stroke-width="2.2" filter="url(#drop-shadow)"/>
          <circle cx="16" cy="24.0" r="6" fill="#059669"/>
          <text x="32" y="29.0" font-size="13.5" font-weight="700" fill="#065f46" font-family="system-ui, -apple-system, sans-serif">休克的分期 ‧ 休克的類型</text>
        </g>
        
            <g class="node subbranch-node" transform="translate(680, 683.0)">
              <rect width="240" height="42" rx="8" fill="#ffffff" stroke="#6ee7b7" stroke-width="1.8" filter="url(#drop-shadow)"/>
              <text x="14" y="26.0" font-size="13" font-weight="600" fill="#1e293b" font-family="system-ui, -apple-system, sans-serif">重點脈絡</text>
            </g>
            
                <g class="node leaf-node" transform="translate(990, 663.0)">
                  <rect width="470" height="34" rx="6" fill="#f8fafc" stroke="#e2e8f0" stroke-width="1.2"/>
                  <text x="12" y="21.5" font-size="12" font-weight="500" fill="#334155" font-family="system-ui, -apple-system, sans-serif">灌流降低程度及行無氧代謝的情況</text>
                </g>
                
                <g class="node leaf-node" transform="translate(990, 711.0)">
                  <rect width="470" height="34" rx="6" fill="#f8fafc" stroke="#e2e8f0" stroke-width="1.2"/>
                  <text x="12" y="21.5" font-size="12" font-weight="500" fill="#334155" font-family="system-ui, -apple-system, sans-serif">三期</text>
                </g>
                
            <g class="node subbranch-node" transform="translate(680, 803.0)">
              <rect width="240" height="42" rx="8" fill="#ffffff" stroke="#6ee7b7" stroke-width="1.8" filter="url(#drop-shadow)"/>
              <text x="14" y="26.0" font-size="13" font-weight="600" fill="#1e293b" font-family="system-ui, -apple-system, sans-serif">第一期：代償性休克</text>
            </g>
            
                <g class="node leaf-node" transform="translate(990, 759.0)">
                  <rect width="470" height="34" rx="6" fill="#f8fafc" stroke="#e2e8f0" stroke-width="1.2"/>
                  <text x="12" y="21.5" font-size="12" font-weight="500" fill="#334155" font-family="system-ui, -apple-system, sans-serif">循環血量減少或相對降低</text>
                </g>
                
                <g class="node leaf-node" transform="translate(990, 807.0)">
                  <rect width="470" height="34" rx="6" fill="#f8fafc" stroke="#e2e8f0" stroke-width="1.2"/>
                  <text x="12" y="21.5" font-size="12" font-weight="500" fill="#334155" font-family="system-ui, -apple-system, sans-serif">釋放出壓力荷爾蒙</text>
                </g>
                
                <g class="node leaf-node" transform="translate(990, 855.0)">
                  <rect width="470" height="34" rx="6" fill="#f8fafc" stroke="#e2e8f0" stroke-width="1.2"/>
                  <text x="12" y="21.5" font-size="12" font-weight="500" fill="#334155" font-family="system-ui, -apple-system, sans-serif">心搏加速及周邊血管收縮</text>
                </g>
                
            <g class="node subbranch-node" transform="translate(680, 947.0)">
              <rect width="240" height="42" rx="8" fill="#ffffff" stroke="#6ee7b7" stroke-width="1.8" filter="url(#drop-shadow)"/>
              <text x="14" y="26.0" font-size="13" font-weight="600" fill="#1e293b" font-family="system-ui, -apple-system, sans-serif">第二期：失償性休克</text>
            </g>
            
                <g class="node leaf-node" transform="translate(990, 903.0)">
                  <rect width="470" height="34" rx="6" fill="#f8fafc" stroke="#e2e8f0" stroke-width="1.2"/>
                  <text x="12" y="21.5" font-size="12" font-weight="500" fill="#334155" font-family="system-ui, -apple-system, sans-serif">超過人體代償機制所能負荷</text>
                </g>
                
                <g class="node leaf-node" transform="translate(990, 951.0)">
                  <rect width="470" height="34" rx="6" fill="#f8fafc" stroke="#e2e8f0" stroke-width="1.2"/>
                  <text x="12" y="21.5" font-size="12" font-weight="500" fill="#334155" font-family="system-ui, -apple-system, sans-serif">血壓會開始下降</text>
                </g>
                
                <g class="node leaf-node" transform="translate(990, 999.0)">
                  <rect width="470" height="34" rx="6" fill="#f8fafc" stroke="#e2e8f0" stroke-width="1.2"/>
                  <text x="12" y="21.5" font-size="12" font-weight="500" fill="#334155" font-family="system-ui, -apple-system, sans-serif">收縮壓先下降</text>
                </g>
                
            <g class="node subbranch-node" transform="translate(680, 1091.0)">
              <rect width="240" height="42" rx="8" fill="#ffffff" stroke="#6ee7b7" stroke-width="1.8" filter="url(#drop-shadow)"/>
              <text x="14" y="26.0" font-size="13" font-weight="600" fill="#1e293b" font-family="system-ui, -apple-system, sans-serif">第三期：不可逆休克</text>
            </g>
            
                <g class="node leaf-node" transform="translate(990, 1047.0)">
                  <rect width="470" height="34" rx="6" fill="#f8fafc" stroke="#e2e8f0" stroke-width="1.2"/>
                  <text x="12" y="21.5" font-size="12" font-weight="500" fill="#334155" font-family="system-ui, -apple-system, sans-serif">細胞缺氧壞死累積到一定程度，器官功能將會喪失導致衰竭</text>
                </g>
                
                <g class="node leaf-node" transform="translate(990, 1095.0)">
                  <rect width="470" height="34" rx="6" fill="#f8fafc" stroke="#e2e8f0" stroke-width="1.2"/>
                  <text x="12" y="21.5" font-size="12" font-weight="500" fill="#334155" font-family="system-ui, -apple-system, sans-serif">就算休克情況被解除，器官功能仍然無法恢復</text>
                </g>
                
                <g class="node leaf-node" transform="translate(990, 1143.0)">
                  <rect width="470" height="34" rx="6" fill="#f8fafc" stroke="#e2e8f0" stroke-width="1.2"/>
                  <text x="12" y="21.5" font-size="12" font-weight="500" fill="#334155" font-family="system-ui, -apple-system, sans-serif">不可逆期</text>
                </g>
                
        <g class="node branch-node" transform="translate(380, 1448.0)">
          <rect width="220" height="48" rx="10" fill="#fffbeb" stroke="#d97706" stroke-width="2.2" filter="url(#drop-shadow)"/>
          <circle cx="16" cy="24.0" r="6" fill="#d97706"/>
          <text x="32" y="29.0" font-size="13.5" font-weight="700" fill="#92400e" font-family="system-ui, -apple-system, sans-serif">休克急救處置 ‧ 致命性出血急救處置–…</text>
        </g>
        
            <g class="node subbranch-node" transform="translate(680, 1235.0)">
              <rect width="240" height="42" rx="8" fill="#ffffff" stroke="#fcd34d" stroke-width="1.8" filter="url(#drop-shadow)"/>
              <text x="14" y="26.0" font-size="13" font-weight="600" fill="#1e293b" font-family="system-ui, -apple-system, sans-serif">重點脈絡</text>
            </g>
            
                <g class="node leaf-node" transform="translate(990, 1191.0)">
                  <rect width="470" height="34" rx="6" fill="#f8fafc" stroke="#e2e8f0" stroke-width="1.2"/>
                  <text x="12" y="21.5" font-size="12" font-weight="500" fill="#334155" font-family="system-ui, -apple-system, sans-serif">解除周邊組織的缺氧狀態，以增加周邊微循環的供氧能力</text>
                </g>
                
                <g class="node leaf-node" transform="translate(990, 1239.0)">
                  <rect width="470" height="34" rx="6" fill="#f8fafc" stroke="#e2e8f0" stroke-width="1.2"/>
                  <text x="12" y="21.5" font-size="12" font-weight="500" fill="#334155" font-family="system-ui, -apple-system, sans-serif">維持血流的攜氧量</text>
                </g>
                
                <g class="node leaf-node" transform="translate(990, 1287.0)">
                  <rect width="470" height="34" rx="6" fill="#f8fafc" stroke="#e2e8f0" stroke-width="1.2"/>
                  <text x="12" y="21.5" font-size="12" font-weight="500" fill="#334155" font-family="system-ui, -apple-system, sans-serif">增加血液容積</text>
                </g>
                
            <g class="node subbranch-node" transform="translate(680, 1379.0)">
              <rect width="240" height="42" rx="8" fill="#ffffff" stroke="#fcd34d" stroke-width="1.8" filter="url(#drop-shadow)"/>
              <text x="14" y="26.0" font-size="13" font-weight="600" fill="#1e293b" font-family="system-ui, -apple-system, sans-serif">休克病人的處置原則</text>
            </g>
            
                <g class="node leaf-node" transform="translate(990, 1335.0)">
                  <rect width="470" height="34" rx="6" fill="#f8fafc" stroke="#e2e8f0" stroke-width="1.2"/>
                  <text x="12" y="21.5" font-size="12" font-weight="500" fill="#334155" font-family="system-ui, -apple-system, sans-serif">到院前的休克處置，主要在於早期辨識休克的存在，並儘…</text>
                </g>
                
                <g class="node leaf-node" transform="translate(990, 1383.0)">
                  <rect width="470" height="34" rx="6" fill="#f8fafc" stroke="#e2e8f0" stroke-width="1.2"/>
                  <text x="12" y="21.5" font-size="12" font-weight="500" fill="#334155" font-family="system-ui, -apple-system, sans-serif">控制任何外出血。</text>
                </g>
                
                <g class="node leaf-node" transform="translate(990, 1431.0)">
                  <rect width="470" height="34" rx="6" fill="#f8fafc" stroke="#e2e8f0" stroke-width="1.2"/>
                  <text x="12" y="21.5" font-size="12" font-weight="500" fill="#334155" font-family="system-ui, -apple-system, sans-serif">維持呼吸道通暢。</text>
                </g>
                
            <g class="node subbranch-node" transform="translate(680, 1523.0)">
              <rect width="240" height="42" rx="8" fill="#ffffff" stroke="#fcd34d" stroke-width="1.8" filter="url(#drop-shadow)"/>
              <text x="14" y="26.0" font-size="13" font-weight="600" fill="#1e293b" font-family="system-ui, -apple-system, sans-serif">維持血流攜氧能力</text>
            </g>
            
                <g class="node leaf-node" transform="translate(990, 1479.0)">
                  <rect width="470" height="34" rx="6" fill="#f8fafc" stroke="#e2e8f0" stroke-width="1.2"/>
                  <text x="12" y="21.5" font-size="12" font-weight="500" fill="#334155" font-family="system-ui, -apple-system, sans-serif">通氣與給氧</text>
                </g>
                
                <g class="node leaf-node" transform="translate(990, 1527.0)">
                  <rect width="470" height="34" rx="6" fill="#f8fafc" stroke="#e2e8f0" stroke-width="1.2"/>
                  <text x="12" y="21.5" font-size="12" font-weight="500" fill="#334155" font-family="system-ui, -apple-system, sans-serif">動脈血氧濃度</text>
                </g>
                
                <g class="node leaf-node" transform="translate(990, 1575.0)">
                  <rect width="470" height="34" rx="6" fill="#f8fafc" stroke="#e2e8f0" stroke-width="1.2"/>
                  <text x="12" y="21.5" font-size="12" font-weight="500" fill="#334155" font-family="system-ui, -apple-system, sans-serif">儘早以袋瓣罩甦醒球給予人工呼吸</text>
                </g>
                
            <g class="node subbranch-node" transform="translate(680, 1667.0)">
              <rect width="240" height="42" rx="8" fill="#ffffff" stroke="#fcd34d" stroke-width="1.8" filter="url(#drop-shadow)"/>
              <text x="14" y="26.0" font-size="13" font-weight="600" fill="#1e293b" font-family="system-ui, -apple-system, sans-serif">靜脈輸液</text>
            </g>
            
                <g class="node leaf-node" transform="translate(990, 1623.0)">
                  <rect width="470" height="34" rx="6" fill="#f8fafc" stroke="#e2e8f0" stroke-width="1.2"/>
                  <text x="12" y="21.5" font-size="12" font-weight="500" fill="#334155" font-family="system-ui, -apple-system, sans-serif">是否會提高休克病人存活機率，目前尚無定論</text>
                </g>
                
                <g class="node leaf-node" transform="translate(990, 1671.0)">
                  <rect width="470" height="34" rx="6" fill="#f8fafc" stroke="#e2e8f0" stroke-width="1.2"/>
                  <text x="12" y="21.5" font-size="12" font-weight="500" fill="#334155" font-family="system-ui, -apple-system, sans-serif">何種輸液、輸液流速設定，可依各地方醫療指導所制定之…</text>
                </g>
                
                <g class="node leaf-node" transform="translate(990, 1719.0)">
                  <rect width="470" height="34" rx="6" fill="#f8fafc" stroke="#e2e8f0" stroke-width="1.2"/>
                  <text x="12" y="21.5" font-size="12" font-weight="500" fill="#334155" font-family="system-ui, -apple-system, sans-serif">晶質輸液(crystalloids)</text>
                </g>
                
        <g class="node branch-node" transform="translate(380, 1880.0)">
          <rect width="220" height="48" rx="10" fill="#f5f3ff" stroke="#7c3aed" stroke-width="2.2" filter="url(#drop-shadow)"/>
          <circle cx="16" cy="24.0" r="6" fill="#7c3aed"/>
          <text x="32" y="29.0" font-size="13.5" font-weight="700" fill="#5b21b6" font-family="system-ui, -apple-system, sans-serif">情境解答 ‧ 問題交流</text>
        </g>
        
            <g class="node subbranch-node" transform="translate(680, 1811.0)">
              <rect width="240" height="42" rx="8" fill="#ffffff" stroke="#c4b5fd" stroke-width="1.8" filter="url(#drop-shadow)"/>
              <text x="14" y="26.0" font-size="13" font-weight="600" fill="#1e293b" font-family="system-ui, -apple-system, sans-serif">重點脈絡</text>
            </g>
            
                <g class="node leaf-node" transform="translate(990, 1767.0)">
                  <rect width="470" height="34" rx="6" fill="#f8fafc" stroke="#e2e8f0" stroke-width="1.2"/>
                  <text x="12" y="21.5" font-size="12" font-weight="500" fill="#334155" font-family="system-ui, -apple-system, sans-serif">初級評估</text>
                </g>
                
                <g class="node leaf-node" transform="translate(990, 1815.0)">
                  <rect width="470" height="34" rx="6" fill="#f8fafc" stroke="#e2e8f0" stroke-width="1.2"/>
                  <text x="12" y="21.5" font-size="12" font-weight="500" fill="#334155" font-family="system-ui, -apple-system, sans-serif">血氧正常</text>
                </g>
                
                <g class="node leaf-node" transform="translate(990, 1863.0)">
                  <rect width="470" height="34" rx="6" fill="#f8fafc" stroke="#e2e8f0" stroke-width="1.2"/>
                  <text x="12" y="21.5" font-size="12" font-weight="500" fill="#334155" font-family="system-ui, -apple-system, sans-serif">Airway 及 Breathing 沒有問題</text>
                </g>
                
            <g class="node subbranch-node" transform="translate(680, 1955.0)">
              <rect width="240" height="42" rx="8" fill="#ffffff" stroke="#c4b5fd" stroke-width="1.8" filter="url(#drop-shadow)"/>
              <text x="14" y="26.0" font-size="13" font-weight="600" fill="#1e293b" font-family="system-ui, -apple-system, sans-serif">重點脈絡</text>
            </g>
            
                <g class="node leaf-node" transform="translate(990, 1911.0)">
                  <rect width="470" height="34" rx="6" fill="#f8fafc" stroke="#e2e8f0" stroke-width="1.2"/>
                  <text x="12" y="21.5" font-size="12" font-weight="500" fill="#334155" font-family="system-ui, -apple-system, sans-serif">休克的定義：休克是指組織因血液灌流不足引起細胞缺氧，進而阻礙細胞的新陳代謝…</text>
                </g>
                
                <g class="node leaf-node" transform="translate(990, 1959.0)">
                  <rect width="470" height="34" rx="6" fill="#f8fafc" stroke="#e2e8f0" stroke-width="1.2"/>
                  <text x="12" y="21.5" font-size="12" font-weight="500" fill="#334155" font-family="system-ui, -apple-system, sans-serif">出血性休克為低血容性休克最常見的休克型態。可分為四級，第二級通常心跳速率會…</text>
                </g>
                
                <g class="node leaf-node" transform="translate(990, 2007.0)">
                  <rect width="470" height="34" rx="6" fill="#f8fafc" stroke="#e2e8f0" stroke-width="1.2"/>
                  <text x="12" y="21.5" font-size="12" font-weight="500" fill="#334155" font-family="system-ui, -apple-system, sans-serif">休克處理：目的在於透過回復組織灌流的方式，來改善細胞缺氧的情形。步驟包括：…</text>
                </g>
                
        <g class="node branch-node" transform="translate(380, 2096.0)">
          <rect width="220" height="48" rx="10" fill="#fff1f2" stroke="#e11d48" stroke-width="2.2" filter="url(#drop-shadow)"/>
          <circle cx="16" cy="24.0" r="6" fill="#e11d48"/>
          <text x="32" y="29.0" font-size="13.5" font-weight="700" fill="#9f1239" font-family="system-ui, -apple-system, sans-serif">參考資料</text>
        </g>
        
            <g class="node subbranch-node" transform="translate(680, 2099.0)">
              <rect width="240" height="42" rx="8" fill="#ffffff" stroke="#fda4af" stroke-width="1.8" filter="url(#drop-shadow)"/>
              <text x="14" y="26.0" font-size="13" font-weight="600" fill="#1e293b" font-family="system-ui, -apple-system, sans-serif">重點脈絡</text>
            </g>
            
                <g class="node leaf-node" transform="translate(990, 2055.0)">
                  <rect width="470" height="34" rx="6" fill="#f8fafc" stroke="#e2e8f0" stroke-width="1.2"/>
                  <text x="12" y="21.5" font-size="12" font-weight="500" fill="#334155" font-family="system-ui, -apple-system, sans-serif">NAEMT, PHTLS Prehospital Trauma Life …</text>
                </g>
                
                <g class="node leaf-node" transform="translate(990, 2103.0)">
                  <rect width="470" height="34" rx="6" fill="#f8fafc" stroke="#e2e8f0" stroke-width="1.2"/>
                  <text x="12" y="21.5" font-size="12" font-weight="500" fill="#334155" font-family="system-ui, -apple-system, sans-serif">The American College of Surgeons, ATL…</text>
                </g>
                
                <g class="node leaf-node" transform="translate(990, 2151.0)">
                  <rect width="470" height="34" rx="6" fill="#f8fafc" stroke="#e2e8f0" stroke-width="1.2"/>
                  <text x="12" y="21.5" font-size="12" font-weight="500" fill="#334155" font-family="system-ui, -apple-system, sans-serif">Tactical Combat Casualty Care Handboo…</text>
                </g>
                
  </g>
</svg>
