<svg xmlns="http://www.w3.org/2000/svg" viewBox="0 0 1520 2060" width="100%" height="100%" style="background: transparent;">
  <defs>
    <filter id="drop-shadow" x="-10%" y="-10%" width="130%" height="130%">
      <feDropShadow dx="0" dy="2" stdDeviation="3" flood-opacity="0.08"/>
    </filter>
    <filter id="drop-shadow-lg" x="-15%" y="-15%" width="140%" height="140%">
      <feDropShadow dx="0" dy="4" stdDeviation="6" flood-opacity="0.18"/>
    </filter>
  </defs>

  <!-- Connectors -->
  <g class="connectors">
    <path d="M 310 1030.0 C 341.5 1030.0, 348.5 368.0, 380 368.0" fill="none" stroke="#2563eb" stroke-width="3" stroke-linecap="round" opacity="0.85"/><path d="M 600 368.0 C 636.0 368.0, 644.0 152.0, 680 152.0" fill="none" stroke="#93c5fd" stroke-width="2" stroke-linecap="round" opacity="0.9"/><path d="M 920 152.0 C 951.5 152.0, 958.5 104.0, 990 104.0" fill="none" stroke="#cbd5e1" stroke-width="1.5" stroke-dasharray="3,3"/><path d="M 920 152.0 C 951.5 152.0, 958.5 152.0, 990 152.0" fill="none" stroke="#cbd5e1" stroke-width="1.5" stroke-dasharray="3,3"/><path d="M 920 152.0 C 951.5 152.0, 958.5 200.0, 990 200.0" fill="none" stroke="#cbd5e1" stroke-width="1.5" stroke-dasharray="3,3"/><path d="M 600 368.0 C 636.0 368.0, 644.0 296.0, 680 296.0" fill="none" stroke="#93c5fd" stroke-width="2" stroke-linecap="round" opacity="0.9"/><path d="M 920 296.0 C 951.5 296.0, 958.5 248.0, 990 248.0" fill="none" stroke="#cbd5e1" stroke-width="1.5" stroke-dasharray="3,3"/><path d="M 920 296.0 C 951.5 296.0, 958.5 296.0, 990 296.0" fill="none" stroke="#cbd5e1" stroke-width="1.5" stroke-dasharray="3,3"/><path d="M 920 296.0 C 951.5 296.0, 958.5 344.0, 990 344.0" fill="none" stroke="#cbd5e1" stroke-width="1.5" stroke-dasharray="3,3"/><path d="M 600 368.0 C 636.0 368.0, 644.0 440.0, 680 440.0" fill="none" stroke="#93c5fd" stroke-width="2" stroke-linecap="round" opacity="0.9"/><path d="M 920 440.0 C 951.5 440.0, 958.5 392.0, 990 392.0" fill="none" stroke="#cbd5e1" stroke-width="1.5" stroke-dasharray="3,3"/><path d="M 920 440.0 C 951.5 440.0, 958.5 440.0, 990 440.0" fill="none" stroke="#cbd5e1" stroke-width="1.5" stroke-dasharray="3,3"/><path d="M 920 440.0 C 951.5 440.0, 958.5 488.0, 990 488.0" fill="none" stroke="#cbd5e1" stroke-width="1.5" stroke-dasharray="3,3"/><path d="M 600 368.0 C 636.0 368.0, 644.0 584.0, 680 584.0" fill="none" stroke="#93c5fd" stroke-width="2" stroke-linecap="round" opacity="0.9"/><path d="M 920 584.0 C 951.5 584.0, 958.5 536.0, 990 536.0" fill="none" stroke="#cbd5e1" stroke-width="1.5" stroke-dasharray="3,3"/><path d="M 920 584.0 C 951.5 584.0, 958.5 584.0, 990 584.0" fill="none" stroke="#cbd5e1" stroke-width="1.5" stroke-dasharray="3,3"/><path d="M 920 584.0 C 951.5 584.0, 958.5 632.0, 990 632.0" fill="none" stroke="#cbd5e1" stroke-width="1.5" stroke-dasharray="3,3"/><path d="M 310 1030.0 C 341.5 1030.0, 348.5 920.0, 380 920.0" fill="none" stroke="#059669" stroke-width="3" stroke-linecap="round" opacity="0.85"/><path d="M 600 920.0 C 636.0 920.0, 644.0 728.0, 680 728.0" fill="none" stroke="#6ee7b7" stroke-width="2" stroke-linecap="round" opacity="0.9"/><path d="M 920 728.0 C 951.5 728.0, 958.5 680.0, 990 680.0" fill="none" stroke="#cbd5e1" stroke-width="1.5" stroke-dasharray="3,3"/><path d="M 920 728.0 C 951.5 728.0, 958.5 728.0, 990 728.0" fill="none" stroke="#cbd5e1" stroke-width="1.5" stroke-dasharray="3,3"/><path d="M 920 728.0 C 951.5 728.0, 958.5 776.0, 990 776.0" fill="none" stroke="#cbd5e1" stroke-width="1.5" stroke-dasharray="3,3"/><path d="M 600 920.0 C 636.0 920.0, 644.0 872.0, 680 872.0" fill="none" stroke="#6ee7b7" stroke-width="2" stroke-linecap="round" opacity="0.9"/><path d="M 920 872.0 C 951.5 872.0, 958.5 824.0, 990 824.0" fill="none" stroke="#cbd5e1" stroke-width="1.5" stroke-dasharray="3,3"/><path d="M 920 872.0 C 951.5 872.0, 958.5 872.0, 990 872.0" fill="none" stroke="#cbd5e1" stroke-width="1.5" stroke-dasharray="3,3"/><path d="M 920 872.0 C 951.5 872.0, 958.5 920.0, 990 920.0" fill="none" stroke="#cbd5e1" stroke-width="1.5" stroke-dasharray="3,3"/><path d="M 600 920.0 C 636.0 920.0, 644.0 992.0, 680 992.0" fill="none" stroke="#6ee7b7" stroke-width="2" stroke-linecap="round" opacity="0.9"/><path d="M 920 992.0 C 951.5 992.0, 958.5 968.0, 990 968.0" fill="none" stroke="#cbd5e1" stroke-width="1.5" stroke-dasharray="3,3"/><path d="M 920 992.0 C 951.5 992.0, 958.5 1016.0, 990 1016.0" fill="none" stroke="#cbd5e1" stroke-width="1.5" stroke-dasharray="3,3"/><path d="M 600 920.0 C 636.0 920.0, 644.0 1112.0, 680 1112.0" fill="none" stroke="#6ee7b7" stroke-width="2" stroke-linecap="round" opacity="0.9"/><path d="M 920 1112.0 C 951.5 1112.0, 958.5 1064.0, 990 1064.0" fill="none" stroke="#cbd5e1" stroke-width="1.5" stroke-dasharray="3,3"/><path d="M 920 1112.0 C 951.5 1112.0, 958.5 1112.0, 990 1112.0" fill="none" stroke="#cbd5e1" stroke-width="1.5" stroke-dasharray="3,3"/><path d="M 920 1112.0 C 951.5 1112.0, 958.5 1160.0, 990 1160.0" fill="none" stroke="#cbd5e1" stroke-width="1.5" stroke-dasharray="3,3"/><path d="M 310 1030.0 C 341.5 1030.0, 348.5 1376.0, 380 1376.0" fill="none" stroke="#d97706" stroke-width="3" stroke-linecap="round" opacity="0.85"/><path d="M 600 1376.0 C 636.0 1376.0, 644.0 1256.0, 680 1256.0" fill="none" stroke="#fcd34d" stroke-width="2" stroke-linecap="round" opacity="0.9"/><path d="M 920 1256.0 C 951.5 1256.0, 958.5 1208.0, 990 1208.0" fill="none" stroke="#cbd5e1" stroke-width="1.5" stroke-dasharray="3,3"/><path d="M 920 1256.0 C 951.5 1256.0, 958.5 1256.0, 990 1256.0" fill="none" stroke="#cbd5e1" stroke-width="1.5" stroke-dasharray="3,3"/><path d="M 920 1256.0 C 951.5 1256.0, 958.5 1304.0, 990 1304.0" fill="none" stroke="#cbd5e1" stroke-width="1.5" stroke-dasharray="3,3"/><path d="M 600 1376.0 C 636.0 1376.0, 644.0 1352.0, 680 1352.0" fill="none" stroke="#fcd34d" stroke-width="2" stroke-linecap="round" opacity="0.9"/><path d="M 600 1376.0 C 636.0 1376.0, 644.0 1448.0, 680 1448.0" fill="none" stroke="#fcd34d" stroke-width="2" stroke-linecap="round" opacity="0.9"/><path d="M 920 1448.0 C 951.5 1448.0, 958.5 1400.0, 990 1400.0" fill="none" stroke="#cbd5e1" stroke-width="1.5" stroke-dasharray="3,3"/><path d="M 920 1448.0 C 951.5 1448.0, 958.5 1448.0, 990 1448.0" fill="none" stroke="#cbd5e1" stroke-width="1.5" stroke-dasharray="3,3"/><path d="M 920 1448.0 C 951.5 1448.0, 958.5 1496.0, 990 1496.0" fill="none" stroke="#cbd5e1" stroke-width="1.5" stroke-dasharray="3,3"/><path d="M 600 1376.0 C 636.0 1376.0, 644.0 1544.0, 680 1544.0" fill="none" stroke="#fcd34d" stroke-width="2" stroke-linecap="round" opacity="0.9"/><path d="M 310 1030.0 C 341.5 1030.0, 348.5 1712.0, 380 1712.0" fill="none" stroke="#7c3aed" stroke-width="3" stroke-linecap="round" opacity="0.85"/><path d="M 600 1712.0 C 636.0 1712.0, 644.0 1640.0, 680 1640.0" fill="none" stroke="#c4b5fd" stroke-width="2" stroke-linecap="round" opacity="0.9"/><path d="M 920 1640.0 C 951.5 1640.0, 958.5 1592.0, 990 1592.0" fill="none" stroke="#cbd5e1" stroke-width="1.5" stroke-dasharray="3,3"/><path d="M 920 1640.0 C 951.5 1640.0, 958.5 1640.0, 990 1640.0" fill="none" stroke="#cbd5e1" stroke-width="1.5" stroke-dasharray="3,3"/><path d="M 920 1640.0 C 951.5 1640.0, 958.5 1688.0, 990 1688.0" fill="none" stroke="#cbd5e1" stroke-width="1.5" stroke-dasharray="3,3"/><path d="M 600 1712.0 C 636.0 1712.0, 644.0 1784.0, 680 1784.0" fill="none" stroke="#c4b5fd" stroke-width="2" stroke-linecap="round" opacity="0.9"/><path d="M 920 1784.0 C 951.5 1784.0, 958.5 1736.0, 990 1736.0" fill="none" stroke="#cbd5e1" stroke-width="1.5" stroke-dasharray="3,3"/><path d="M 920 1784.0 C 951.5 1784.0, 958.5 1784.0, 990 1784.0" fill="none" stroke="#cbd5e1" stroke-width="1.5" stroke-dasharray="3,3"/><path d="M 920 1784.0 C 951.5 1784.0, 958.5 1832.0, 990 1832.0" fill="none" stroke="#cbd5e1" stroke-width="1.5" stroke-dasharray="3,3"/><path d="M 310 1030.0 C 341.5 1030.0, 348.5 1928.0, 380 1928.0" fill="none" stroke="#e11d48" stroke-width="3" stroke-linecap="round" opacity="0.85"/><path d="M 600 1928.0 C 636.0 1928.0, 644.0 1928.0, 680 1928.0" fill="none" stroke="#fda4af" stroke-width="2" stroke-linecap="round" opacity="0.9"/><path d="M 920 1928.0 C 951.5 1928.0, 958.5 1880.0, 990 1880.0" fill="none" stroke="#cbd5e1" stroke-width="1.5" stroke-dasharray="3,3"/><path d="M 920 1928.0 C 951.5 1928.0, 958.5 1928.0, 990 1928.0" fill="none" stroke="#cbd5e1" stroke-width="1.5" stroke-dasharray="3,3"/><path d="M 920 1928.0 C 951.5 1928.0, 958.5 1976.0, 990 1976.0" fill="none" stroke="#cbd5e1" stroke-width="1.5" stroke-dasharray="3,3"/>
  </g>

  <!-- Nodes -->
  <g class="nodes">
    
    <g class="node root-node" transform="translate(60, 991.0)">
      <defs>
        <linearGradient id="rootGrad" x1="0%" y1="0%" x2="100%" y2="100%">
          <stop offset="0%" stop-color="#E87722"/>
          <stop offset="100%" stop-color="#C2410C"/>
        </linearGradient>
      </defs>
      <rect width="250" height="78" rx="16" fill="url(#rootGrad)" stroke="#ea580c" stroke-width="2" filter="url(#drop-shadow-lg)"/>
      <text x="20" y="30" font-size="13" font-weight="800" fill="#fed7aa" letter-spacing="1">🧠 CH40 核心知識圖譜</text>
      <text x="20" y="56" font-size="15.5" font-weight="800" fill="#ffffff" font-family="system-ui, -apple-system, sans-serif">過敏與免疫急症</text>
    </g>
    
    
        <g class="node branch-node" transform="translate(380, 344.0)">
          <rect width="220" height="48" rx="10" fill="#eff6ff" stroke="#2563eb" stroke-width="2.2" filter="url(#drop-shadow)"/>
          <circle cx="16" cy="24.0" r="6" fill="#2563eb"/>
          <text x="32" y="29.0" font-size="13.5" font-weight="700" fill="#1e40af" font-family="system-ui, -apple-system, sans-serif">抗原–抗體反應 ‧ 過敏反應</text>
        </g>
        
            <g class="node subbranch-node" transform="translate(680, 131.0)">
              <rect width="240" height="42" rx="8" fill="#ffffff" stroke="#93c5fd" stroke-width="1.8" filter="url(#drop-shadow)"/>
              <text x="14" y="26.0" font-size="13" font-weight="600" fill="#1e293b" font-family="system-ui, -apple-system, sans-serif">重點脈絡</text>
            </g>
            
                <g class="node leaf-node" transform="translate(990, 87.0)">
                  <rect width="470" height="34" rx="6" fill="#f8fafc" stroke="#e2e8f0" stroke-width="1.2"/>
                  <text x="12" y="21.5" font-size="12" font-weight="500" fill="#334155" font-family="system-ui, -apple-system, sans-serif">抗原(antigen)</text>
                </g>
                
                <g class="node leaf-node" transform="translate(990, 135.0)">
                  <rect width="470" height="34" rx="6" fill="#f8fafc" stroke="#e2e8f0" stroke-width="1.2"/>
                  <text x="12" y="21.5" font-size="12" font-weight="500" fill="#334155" font-family="system-ui, -apple-system, sans-serif">抗體(antibody)</text>
                </g>
                
                <g class="node leaf-node" transform="translate(990, 183.0)">
                  <rect width="470" height="34" rx="6" fill="#f8fafc" stroke="#e2e8f0" stroke-width="1.2"/>
                  <text x="12" y="21.5" font-size="12" font-weight="500" fill="#334155" font-family="system-ui, -apple-system, sans-serif">注射、攝食、吸入、吸收</text>
                </g>
                
            <g class="node subbranch-node" transform="translate(680, 275.0)">
              <rect width="240" height="42" rx="8" fill="#ffffff" stroke="#93c5fd" stroke-width="1.8" filter="url(#drop-shadow)"/>
              <text x="14" y="26.0" font-size="13" font-weight="600" fill="#1e293b" font-family="system-ui, -apple-system, sans-serif">圖40-1 免疫反應的七個步驟</text>
            </g>
            
                <g class="node leaf-node" transform="translate(990, 231.0)">
                  <rect width="470" height="34" rx="6" fill="#f8fafc" stroke="#e2e8f0" stroke-width="1.2"/>
                  <text x="12" y="21.5" font-size="12" font-weight="500" fill="#334155" font-family="system-ui, -apple-system, sans-serif">① 抗原經由注射、攝食、吸入、吸收等方式進入體內，嗜中性細胞(neutro…</text>
                </g>
                
                <g class="node leaf-node" transform="translate(990, 279.0)">
                  <rect width="470" height="34" rx="6" fill="#f8fafc" stroke="#e2e8f0" stroke-width="1.2"/>
                  <text x="12" y="21.5" font-size="12" font-weight="500" fill="#334155" font-family="system-ui, -apple-system, sans-serif">② 血液中的補體蛋白質(complement)也會攻擊入侵的抗原。</text>
                </g>
                
                <g class="node leaf-node" transform="translate(990, 327.0)">
                  <rect width="470" height="34" rx="6" fill="#f8fafc" stroke="#e2e8f0" stroke-width="1.2"/>
                  <text x="12" y="21.5" font-size="12" font-weight="500" fill="#334155" font-family="system-ui, -apple-system, sans-serif">③ 肥大細胞接著也將抗原吞沒，同時藉由釋放出的化學分子活化 T 細胞。</text>
                </g>
                
            <g class="node subbranch-node" transform="translate(680, 419.0)">
              <rect width="240" height="42" rx="8" fill="#ffffff" stroke="#93c5fd" stroke-width="1.8" filter="url(#drop-shadow)"/>
              <text x="14" y="26.0" font-size="13" font-weight="600" fill="#1e293b" font-family="system-ui, -apple-system, sans-serif">重點脈絡</text>
            </g>
            
                <g class="node leaf-node" transform="translate(990, 375.0)">
                  <rect width="470" height="34" rx="6" fill="#f8fafc" stroke="#e2e8f0" stroke-width="1.2"/>
                  <text x="12" y="21.5" font-size="12" font-weight="500" fill="#334155" font-family="system-ui, -apple-system, sans-serif">一定要曾暴露在某種抗原下</text>
                </g>
                
                <g class="node leaf-node" transform="translate(990, 423.0)">
                  <rect width="470" height="34" rx="6" fill="#f8fafc" stroke="#e2e8f0" stroke-width="1.2"/>
                  <text x="12" y="21.5" font-size="12" font-weight="500" fill="#334155" font-family="system-ui, -apple-system, sans-serif">敏感化</text>
                </g>
                
                <g class="node leaf-node" transform="translate(990, 471.0)">
                  <rect width="470" height="34" rx="6" fill="#f8fafc" stroke="#e2e8f0" stroke-width="1.2"/>
                  <text x="12" y="21.5" font-size="12" font-weight="500" fill="#334155" font-family="system-ui, -apple-system, sans-serif">同樣的抗原再次進入體內</text>
                </g>
                
            <g class="node subbranch-node" transform="translate(680, 563.0)">
              <rect width="240" height="42" rx="8" fill="#ffffff" stroke="#93c5fd" stroke-width="1.8" filter="url(#drop-shadow)"/>
              <text x="14" y="26.0" font-size="13" font-weight="600" fill="#1e293b" font-family="system-ui, -apple-system, sans-serif">表40-1 常見的過敏原</text>
            </g>
            
                <g class="node leaf-node" transform="translate(990, 519.0)">
                  <rect width="470" height="34" rx="6" fill="#f8fafc" stroke="#e2e8f0" stroke-width="1.2"/>
                  <text x="12" y="21.5" font-size="12" font-weight="500" fill="#334155" font-family="system-ui, -apple-system, sans-serif">📌 過敏反應 (allergy): 正常免疫系統對無害的過敏原過度免疫反應而</text>
                </g>
                
                <g class="node leaf-node" transform="translate(990, 567.0)">
                  <rect width="470" height="34" rx="6" fill="#f8fafc" stroke="#e2e8f0" stroke-width="1.2"/>
                  <text x="12" y="21.5" font-size="12" font-weight="500" fill="#334155" font-family="system-ui, -apple-system, sans-serif">📌 自體免疫系統疾病 (autoimmune disease): 指人體的免</text>
                </g>
                
                <g class="node leaf-node" transform="translate(990, 615.0)">
                  <rect width="470" height="34" rx="6" fill="#f8fafc" stroke="#e2e8f0" stroke-width="1.2"/>
                  <text x="12" y="21.5" font-size="12" font-weight="500" fill="#334155" font-family="system-ui, -apple-system, sans-serif">📌 抗原 (antigen): 會導致身體產生抗體的物質，可經由注射、攝食、</text>
                </g>
                
        <g class="node branch-node" transform="translate(380, 896.0)">
          <rect width="220" height="48" rx="10" fill="#ecfdf5" stroke="#059669" stroke-width="2.2" filter="url(#drop-shadow)"/>
          <circle cx="16" cy="24.0" r="6" fill="#059669"/>
          <text x="32" y="29.0" font-size="13.5" font-weight="700" fill="#065f46" font-family="system-ui, -apple-system, sans-serif">病態生理學 ‧ 嚴重過敏反應的症狀及癥候</text>
        </g>
        
            <g class="node subbranch-node" transform="translate(680, 707.0)">
              <rect width="240" height="42" rx="8" fill="#ffffff" stroke="#6ee7b7" stroke-width="1.8" filter="url(#drop-shadow)"/>
              <text x="14" y="26.0" font-size="13" font-weight="600" fill="#1e293b" font-family="system-ui, -apple-system, sans-serif">重點脈絡</text>
            </g>
            
                <g class="node leaf-node" transform="translate(990, 663.0)">
                  <rect width="470" height="34" rx="6" fill="#f8fafc" stroke="#e2e8f0" stroke-width="1.2"/>
                  <text x="12" y="21.5" font-size="12" font-weight="500" fill="#334155" font-family="system-ui, -apple-system, sans-serif">必須先暴露在某種抗原下，才能形成第一型過敏反應</text>
                </g>
                
                <g class="node leaf-node" transform="translate(990, 711.0)">
                  <rect width="470" height="34" rx="6" fill="#f8fafc" stroke="#e2e8f0" stroke-width="1.2"/>
                  <text x="12" y="21.5" font-size="12" font-weight="500" fill="#334155" font-family="system-ui, -apple-system, sans-serif">注射、攝食、吸入或吸收</text>
                </g>
                
                <g class="node leaf-node" transform="translate(990, 759.0)">
                  <rect width="470" height="34" rx="6" fill="#f8fafc" stroke="#e2e8f0" stroke-width="1.2"/>
                  <text x="12" y="21.5" font-size="12" font-weight="500" fill="#334155" font-family="system-ui, -apple-system, sans-serif">活化免疫系統，產生大量的 IgE 抗體</text>
                </g>
                
            <g class="node subbranch-node" transform="translate(680, 851.0)">
              <rect width="240" height="42" rx="8" fill="#ffffff" stroke="#6ee7b7" stroke-width="1.8" filter="url(#drop-shadow)"/>
              <text x="14" y="26.0" font-size="13" font-weight="600" fill="#1e293b" font-family="system-ui, -apple-system, sans-serif">被釋放出來的化學中介物質</text>
            </g>
            
                <g class="node leaf-node" transform="translate(990, 807.0)">
                  <rect width="470" height="34" rx="6" fill="#f8fafc" stroke="#e2e8f0" stroke-width="1.2"/>
                  <text x="12" y="21.5" font-size="12" font-weight="500" fill="#334155" font-family="system-ui, -apple-system, sans-serif">組織胺(histamine)</text>
                </g>
                
                <g class="node leaf-node" transform="translate(990, 855.0)">
                  <rect width="470" height="34" rx="6" fill="#f8fafc" stroke="#e2e8f0" stroke-width="1.2"/>
                  <text x="12" y="21.5" font-size="12" font-weight="500" fill="#334155" font-family="system-ui, -apple-system, sans-serif">白三烯素(leukotrienes)——主要是 LTB4 及 LTC4</text>
                </g>
                
                <g class="node leaf-node" transform="translate(990, 903.0)">
                  <rect width="470" height="34" rx="6" fill="#f8fafc" stroke="#e2e8f0" stroke-width="1.2"/>
                  <text x="12" y="21.5" font-size="12" font-weight="500" fill="#334155" font-family="system-ui, -apple-system, sans-serif">前列腺素(prostaglandins)——主要是 PGD2</text>
                </g>
                
            <g class="node subbranch-node" transform="translate(680, 971.0)">
              <rect width="240" height="42" rx="8" fill="#ffffff" stroke="#6ee7b7" stroke-width="1.8" filter="url(#drop-shadow)"/>
              <text x="14" y="26.0" font-size="13" font-weight="600" fill="#1e293b" font-family="system-ui, -apple-system, sans-serif">重點脈絡</text>
            </g>
            
                <g class="node leaf-node" transform="translate(990, 951.0)">
                  <rect width="470" height="34" rx="6" fill="#f8fafc" stroke="#e2e8f0" stroke-width="1.2"/>
                  <text x="12" y="21.5" font-size="12" font-weight="500" fill="#334155" font-family="system-ui, -apple-system, sans-serif">正確的病史和身體診察</text>
                </g>
                
                <g class="node leaf-node" transform="translate(990, 999.0)">
                  <rect width="470" height="34" rx="6" fill="#f8fafc" stroke="#e2e8f0" stroke-width="1.2"/>
                  <text x="12" y="21.5" font-size="12" font-weight="500" fill="#334155" font-family="system-ui, -apple-system, sans-serif">到院前的評估如果不正確可能會威脅到病人的生命</text>
                </g>
                
            <g class="node subbranch-node" transform="translate(680, 1091.0)">
              <rect width="240" height="42" rx="8" fill="#ffffff" stroke="#6ee7b7" stroke-width="1.8" filter="url(#drop-shadow)"/>
              <text x="14" y="26.0" font-size="13" font-weight="600" fill="#1e293b" font-family="system-ui, -apple-system, sans-serif">常見和嚴重過敏症狀類似的疾病</text>
            </g>
            
                <g class="node leaf-node" transform="translate(990, 1047.0)">
                  <rect width="470" height="34" rx="6" fill="#f8fafc" stroke="#e2e8f0" stroke-width="1.2"/>
                  <text x="12" y="21.5" font-size="12" font-weight="500" fill="#334155" font-family="system-ui, -apple-system, sans-serif">嚴重氣喘合併呼吸衰竭</text>
                </g>
                
                <g class="node leaf-node" transform="translate(990, 1095.0)">
                  <rect width="470" height="34" rx="6" fill="#f8fafc" stroke="#e2e8f0" stroke-width="1.2"/>
                  <text x="12" y="21.5" font-size="12" font-weight="500" fill="#334155" font-family="system-ui, -apple-system, sans-serif">上呼吸道阻塞</text>
                </g>
                
                <g class="node leaf-node" transform="translate(990, 1143.0)">
                  <rect width="470" height="34" rx="6" fill="#f8fafc" stroke="#e2e8f0" stroke-width="1.2"/>
                  <text x="12" y="21.5" font-size="12" font-weight="500" fill="#334155" font-family="system-ui, -apple-system, sans-serif">毒性或敗血性休克</text>
                </g>
                
        <g class="node branch-node" transform="translate(380, 1352.0)">
          <rect width="220" height="48" rx="10" fill="#fffbeb" stroke="#d97706" stroke-width="2.2" filter="url(#drop-shadow)"/>
          <circle cx="16" cy="24.0" r="6" fill="#d97706"/>
          <text x="32" y="29.0" font-size="13.5" font-weight="700" fill="#92400e" font-family="system-ui, -apple-system, sans-serif">預防心肺停止的關鍵處置 ‧ 心肺停止時…</text>
        </g>
        
            <g class="node subbranch-node" transform="translate(680, 1235.0)">
              <rect width="240" height="42" rx="8" fill="#ffffff" stroke="#fcd34d" stroke-width="1.8" filter="url(#drop-shadow)"/>
              <text x="14" y="26.0" font-size="13" font-weight="600" fill="#1e293b" font-family="system-ui, -apple-system, sans-serif">重點脈絡</text>
            </g>
            
                <g class="node leaf-node" transform="translate(990, 1191.0)">
                  <rect width="470" height="34" rx="6" fill="#f8fafc" stroke="#e2e8f0" stroke-width="1.2"/>
                  <text x="12" y="21.5" font-size="12" font-weight="500" fill="#334155" font-family="system-ui, -apple-system, sans-serif">標準流程難以制定</text>
                </g>
                
                <g class="node leaf-node" transform="translate(990, 1239.0)">
                  <rect width="470" height="34" rx="6" fill="#f8fafc" stroke="#e2e8f0" stroke-width="1.2"/>
                  <text x="12" y="21.5" font-size="12" font-weight="500" fill="#334155" font-family="system-ui, -apple-system, sans-serif">① 姿勢</text>
                </g>
                
                <g class="node leaf-node" transform="translate(990, 1287.0)">
                  <rect width="470" height="34" rx="6" fill="#f8fafc" stroke="#e2e8f0" stroke-width="1.2"/>
                  <text x="12" y="21.5" font-size="12" font-weight="500" fill="#334155" font-family="system-ui, -apple-system, sans-serif">② 氧氣與呼吸道</text>
                </g>
                
            <g class="node subbranch-node" transform="translate(680, 1331.0)">
              <rect width="240" height="42" rx="8" fill="#ffffff" stroke="#fcd34d" stroke-width="1.8" filter="url(#drop-shadow)"/>
              <text x="14" y="26.0" font-size="13" font-weight="600" fill="#1e293b" font-family="system-ui, -apple-system, sans-serif">表40-4 嚴重過敏反應腎上腺素給予方式</text>
            </g>
            
            <g class="node subbranch-node" transform="translate(680, 1427.0)">
              <rect width="240" height="42" rx="8" fill="#ffffff" stroke="#fcd34d" stroke-width="1.8" filter="url(#drop-shadow)"/>
              <text x="14" y="26.0" font-size="13" font-weight="600" fill="#1e293b" font-family="system-ui, -apple-system, sans-serif">其他的藥物治療</text>
            </g>
            
                <g class="node leaf-node" transform="translate(990, 1383.0)">
                  <rect width="470" height="34" rx="6" fill="#f8fafc" stroke="#e2e8f0" stroke-width="1.2"/>
                  <text x="12" y="21.5" font-size="12" font-weight="500" fill="#334155" font-family="system-ui, -apple-system, sans-serif">但是都比不過腎上腺素</text>
                </g>
                
                <g class="node leaf-node" transform="translate(990, 1431.0)">
                  <rect width="470" height="34" rx="6" fill="#f8fafc" stroke="#e2e8f0" stroke-width="1.2"/>
                  <text x="12" y="21.5" font-size="12" font-weight="500" fill="#334155" font-family="system-ui, -apple-system, sans-serif">並用</text>
                </g>
                
                <g class="node leaf-node" transform="translate(990, 1479.0)">
                  <rect width="470" height="34" rx="6" fill="#f8fafc" stroke="#e2e8f0" stroke-width="1.2"/>
                  <text x="12" y="21.5" font-size="12" font-weight="500" fill="#334155" font-family="system-ui, -apple-system, sans-serif">抗組織胺、乙型增效劑、類固醇、昇糖激素和血管增壓劑</text>
                </g>
                
            <g class="node subbranch-node" transform="translate(680, 1523.0)">
              <rect width="240" height="42" rx="8" fill="#ffffff" stroke="#fcd34d" stroke-width="1.8" filter="url(#drop-shadow)"/>
              <text x="14" y="26.0" font-size="13" font-weight="600" fill="#1e293b" font-family="system-ui, -apple-system, sans-serif">表40-5 嚴重過敏反應時可額外使用的藥物</text>
            </g>
            
        <g class="node branch-node" transform="translate(380, 1688.0)">
          <rect width="220" height="48" rx="10" fill="#f5f3ff" stroke="#7c3aed" stroke-width="2.2" filter="url(#drop-shadow)"/>
          <circle cx="16" cy="24.0" r="6" fill="#7c3aed"/>
          <text x="32" y="29.0" font-size="13.5" font-weight="700" fill="#5b21b6" font-family="system-ui, -apple-system, sans-serif">情境解答 ‧ 問題交流</text>
        </g>
        
            <g class="node subbranch-node" transform="translate(680, 1619.0)">
              <rect width="240" height="42" rx="8" fill="#ffffff" stroke="#c4b5fd" stroke-width="1.8" filter="url(#drop-shadow)"/>
              <text x="14" y="26.0" font-size="13" font-weight="600" fill="#1e293b" font-family="system-ui, -apple-system, sans-serif">重點脈絡</text>
            </g>
            
                <g class="node leaf-node" transform="translate(990, 1575.0)">
                  <rect width="470" height="34" rx="6" fill="#f8fafc" stroke="#e2e8f0" stroke-width="1.2"/>
                  <text x="12" y="21.5" font-size="12" font-weight="500" fill="#334155" font-family="system-ui, -apple-system, sans-serif">心肌梗塞造成的心因性休克</text>
                </g>
                
                <g class="node leaf-node" transform="translate(990, 1623.0)">
                  <rect width="470" height="34" rx="6" fill="#f8fafc" stroke="#e2e8f0" stroke-width="1.2"/>
                  <text x="12" y="21.5" font-size="12" font-weight="500" fill="#334155" font-family="system-ui, -apple-system, sans-serif">嚴重過敏反應造成的分佈性休克</text>
                </g>
                
                <g class="node leaf-node" transform="translate(990, 1671.0)">
                  <rect width="470" height="34" rx="6" fill="#f8fafc" stroke="#e2e8f0" stroke-width="1.2"/>
                  <text x="12" y="21.5" font-size="12" font-weight="500" fill="#334155" font-family="system-ui, -apple-system, sans-serif">病史</text>
                </g>
                
            <g class="node subbranch-node" transform="translate(680, 1763.0)">
              <rect width="240" height="42" rx="8" fill="#ffffff" stroke="#c4b5fd" stroke-width="1.8" filter="url(#drop-shadow)"/>
              <text x="14" y="26.0" font-size="13" font-weight="600" fill="#1e293b" font-family="system-ui, -apple-system, sans-serif">重點脈絡</text>
            </g>
            
                <g class="node leaf-node" transform="translate(990, 1719.0)">
                  <rect width="470" height="34" rx="6" fill="#f8fafc" stroke="#e2e8f0" stroke-width="1.2"/>
                  <text x="12" y="21.5" font-size="12" font-weight="500" fill="#334155" font-family="system-ui, -apple-system, sans-serif">過敏反應是一種暴露在某一種抗原後，再次暴露在同一種抗原下所產生的過度生理反…</text>
                </g>
                
                <g class="node leaf-node" transform="translate(990, 1767.0)">
                  <rect width="470" height="34" rx="6" fill="#f8fafc" stroke="#e2e8f0" stroke-width="1.2"/>
                  <text x="12" y="21.5" font-size="12" font-weight="500" fill="#334155" font-family="system-ui, -apple-system, sans-serif">嚴重過敏反應是一種極端的過敏反應，可能在短時間進展到心肺功能停止。為了挽救…</text>
                </g>
                
                <g class="node leaf-node" transform="translate(990, 1815.0)">
                  <rect width="470" height="34" rx="6" fill="#f8fafc" stroke="#e2e8f0" stroke-width="1.2"/>
                  <text x="12" y="21.5" font-size="12" font-weight="500" fill="#334155" font-family="system-ui, -apple-system, sans-serif">幾乎任何物質都可能引起嚴重過敏反應。隨著暴露次數增加，嚴重過敏反應的風險也…</text>
                </g>
                
        <g class="node branch-node" transform="translate(380, 1904.0)">
          <rect width="220" height="48" rx="10" fill="#fff1f2" stroke="#e11d48" stroke-width="2.2" filter="url(#drop-shadow)"/>
          <circle cx="16" cy="24.0" r="6" fill="#e11d48"/>
          <text x="32" y="29.0" font-size="13.5" font-weight="700" fill="#9f1239" font-family="system-ui, -apple-system, sans-serif">參考資料</text>
        </g>
        
            <g class="node subbranch-node" transform="translate(680, 1907.0)">
              <rect width="240" height="42" rx="8" fill="#ffffff" stroke="#fda4af" stroke-width="1.8" filter="url(#drop-shadow)"/>
              <text x="14" y="26.0" font-size="13" font-weight="600" fill="#1e293b" font-family="system-ui, -apple-system, sans-serif">重點脈絡</text>
            </g>
            
                <g class="node leaf-node" transform="translate(990, 1863.0)">
                  <rect width="470" height="34" rx="6" fill="#f8fafc" stroke="#e2e8f0" stroke-width="1.2"/>
                  <text x="12" y="21.5" font-size="12" font-weight="500" fill="#334155" font-family="system-ui, -apple-system, sans-serif">Tintinalli&#x27;s Emergency Medicine: A Co…</text>
                </g>
                
                <g class="node leaf-node" transform="translate(990, 1911.0)">
                  <rect width="470" height="34" rx="6" fill="#f8fafc" stroke="#e2e8f0" stroke-width="1.2"/>
                  <text x="12" y="21.5" font-size="12" font-weight="500" fill="#334155" font-family="system-ui, -apple-system, sans-serif">Rosen&#x27;s Emergency Medicine: Concepts …</text>
                </g>
                
                <g class="node leaf-node" transform="translate(990, 1959.0)">
                  <rect width="470" height="34" rx="6" fill="#f8fafc" stroke="#e2e8f0" stroke-width="1.2"/>
                  <text x="12" y="21.5" font-size="12" font-weight="500" fill="#334155" font-family="system-ui, -apple-system, sans-serif">The Autoimmune Diseases; Rose, Noel R…</text>
                </g>
                
  </g>
</svg>
