<svg xmlns="http://www.w3.org/2000/svg" viewBox="0 0 1520 2876" width="100%" height="100%" style="background: transparent;">
  <defs>
    <filter id="drop-shadow" x="-10%" y="-10%" width="130%" height="130%">
      <feDropShadow dx="0" dy="2" stdDeviation="3" flood-opacity="0.08"/>
    </filter>
    <filter id="drop-shadow-lg" x="-15%" y="-15%" width="140%" height="140%">
      <feDropShadow dx="0" dy="4" stdDeviation="6" flood-opacity="0.18"/>
    </filter>
  </defs>

  <!-- Connectors -->
  <g class="connectors">
    <path d="M 310 1438.0 C 341.5 1438.0, 348.5 368.0, 380 368.0" fill="none" stroke="#2563eb" stroke-width="3" stroke-linecap="round" opacity="0.85"/><path d="M 600 368.0 C 636.0 368.0, 644.0 152.0, 680 152.0" fill="none" stroke="#93c5fd" stroke-width="2" stroke-linecap="round" opacity="0.9"/><path d="M 920 152.0 C 951.5 152.0, 958.5 104.0, 990 104.0" fill="none" stroke="#cbd5e1" stroke-width="1.5" stroke-dasharray="3,3"/><path d="M 920 152.0 C 951.5 152.0, 958.5 152.0, 990 152.0" fill="none" stroke="#cbd5e1" stroke-width="1.5" stroke-dasharray="3,3"/><path d="M 920 152.0 C 951.5 152.0, 958.5 200.0, 990 200.0" fill="none" stroke="#cbd5e1" stroke-width="1.5" stroke-dasharray="3,3"/><path d="M 600 368.0 C 636.0 368.0, 644.0 296.0, 680 296.0" fill="none" stroke="#93c5fd" stroke-width="2" stroke-linecap="round" opacity="0.9"/><path d="M 920 296.0 C 951.5 296.0, 958.5 248.0, 990 248.0" fill="none" stroke="#cbd5e1" stroke-width="1.5" stroke-dasharray="3,3"/><path d="M 920 296.0 C 951.5 296.0, 958.5 296.0, 990 296.0" fill="none" stroke="#cbd5e1" stroke-width="1.5" stroke-dasharray="3,3"/><path d="M 920 296.0 C 951.5 296.0, 958.5 344.0, 990 344.0" fill="none" stroke="#cbd5e1" stroke-width="1.5" stroke-dasharray="3,3"/><path d="M 600 368.0 C 636.0 368.0, 644.0 440.0, 680 440.0" fill="none" stroke="#93c5fd" stroke-width="2" stroke-linecap="round" opacity="0.9"/><path d="M 920 440.0 C 951.5 440.0, 958.5 392.0, 990 392.0" fill="none" stroke="#cbd5e1" stroke-width="1.5" stroke-dasharray="3,3"/><path d="M 920 440.0 C 951.5 440.0, 958.5 440.0, 990 440.0" fill="none" stroke="#cbd5e1" stroke-width="1.5" stroke-dasharray="3,3"/><path d="M 920 440.0 C 951.5 440.0, 958.5 488.0, 990 488.0" fill="none" stroke="#cbd5e1" stroke-width="1.5" stroke-dasharray="3,3"/><path d="M 600 368.0 C 636.0 368.0, 644.0 584.0, 680 584.0" fill="none" stroke="#93c5fd" stroke-width="2" stroke-linecap="round" opacity="0.9"/><path d="M 920 584.0 C 951.5 584.0, 958.5 536.0, 990 536.0" fill="none" stroke="#cbd5e1" stroke-width="1.5" stroke-dasharray="3,3"/><path d="M 920 584.0 C 951.5 584.0, 958.5 584.0, 990 584.0" fill="none" stroke="#cbd5e1" stroke-width="1.5" stroke-dasharray="3,3"/><path d="M 920 584.0 C 951.5 584.0, 958.5 632.0, 990 632.0" fill="none" stroke="#cbd5e1" stroke-width="1.5" stroke-dasharray="3,3"/><path d="M 310 1438.0 C 341.5 1438.0, 348.5 896.0, 380 896.0" fill="none" stroke="#059669" stroke-width="3" stroke-linecap="round" opacity="0.85"/><path d="M 600 896.0 C 636.0 896.0, 644.0 728.0, 680 728.0" fill="none" stroke="#6ee7b7" stroke-width="2" stroke-linecap="round" opacity="0.9"/><path d="M 920 728.0 C 951.5 728.0, 958.5 680.0, 990 680.0" fill="none" stroke="#cbd5e1" stroke-width="1.5" stroke-dasharray="3,3"/><path d="M 920 728.0 C 951.5 728.0, 958.5 728.0, 990 728.0" fill="none" stroke="#cbd5e1" stroke-width="1.5" stroke-dasharray="3,3"/><path d="M 920 728.0 C 951.5 728.0, 958.5 776.0, 990 776.0" fill="none" stroke="#cbd5e1" stroke-width="1.5" stroke-dasharray="3,3"/><path d="M 600 896.0 C 636.0 896.0, 644.0 824.0, 680 824.0" fill="none" stroke="#6ee7b7" stroke-width="2" stroke-linecap="round" opacity="0.9"/><path d="M 600 896.0 C 636.0 896.0, 644.0 920.0, 680 920.0" fill="none" stroke="#6ee7b7" stroke-width="2" stroke-linecap="round" opacity="0.9"/><path d="M 920 920.0 C 951.5 920.0, 958.5 872.0, 990 872.0" fill="none" stroke="#cbd5e1" stroke-width="1.5" stroke-dasharray="3,3"/><path d="M 920 920.0 C 951.5 920.0, 958.5 920.0, 990 920.0" fill="none" stroke="#cbd5e1" stroke-width="1.5" stroke-dasharray="3,3"/><path d="M 920 920.0 C 951.5 920.0, 958.5 968.0, 990 968.0" fill="none" stroke="#cbd5e1" stroke-width="1.5" stroke-dasharray="3,3"/><path d="M 600 896.0 C 636.0 896.0, 644.0 1064.0, 680 1064.0" fill="none" stroke="#6ee7b7" stroke-width="2" stroke-linecap="round" opacity="0.9"/><path d="M 920 1064.0 C 951.5 1064.0, 958.5 1016.0, 990 1016.0" fill="none" stroke="#cbd5e1" stroke-width="1.5" stroke-dasharray="3,3"/><path d="M 920 1064.0 C 951.5 1064.0, 958.5 1064.0, 990 1064.0" fill="none" stroke="#cbd5e1" stroke-width="1.5" stroke-dasharray="3,3"/><path d="M 920 1064.0 C 951.5 1064.0, 958.5 1112.0, 990 1112.0" fill="none" stroke="#cbd5e1" stroke-width="1.5" stroke-dasharray="3,3"/><path d="M 310 1438.0 C 341.5 1438.0, 348.5 1400.0, 380 1400.0" fill="none" stroke="#d97706" stroke-width="3" stroke-linecap="round" opacity="0.85"/><path d="M 600 1400.0 C 636.0 1400.0, 644.0 1208.0, 680 1208.0" fill="none" stroke="#fcd34d" stroke-width="2" stroke-linecap="round" opacity="0.9"/><path d="M 920 1208.0 C 951.5 1208.0, 958.5 1160.0, 990 1160.0" fill="none" stroke="#cbd5e1" stroke-width="1.5" stroke-dasharray="3,3"/><path d="M 920 1208.0 C 951.5 1208.0, 958.5 1208.0, 990 1208.0" fill="none" stroke="#cbd5e1" stroke-width="1.5" stroke-dasharray="3,3"/><path d="M 920 1208.0 C 951.5 1208.0, 958.5 1256.0, 990 1256.0" fill="none" stroke="#cbd5e1" stroke-width="1.5" stroke-dasharray="3,3"/><path d="M 600 1400.0 C 636.0 1400.0, 644.0 1328.0, 680 1328.0" fill="none" stroke="#fcd34d" stroke-width="2" stroke-linecap="round" opacity="0.9"/><path d="M 920 1328.0 C 951.5 1328.0, 958.5 1304.0, 990 1304.0" fill="none" stroke="#cbd5e1" stroke-width="1.5" stroke-dasharray="3,3"/><path d="M 920 1328.0 C 951.5 1328.0, 958.5 1352.0, 990 1352.0" fill="none" stroke="#cbd5e1" stroke-width="1.5" stroke-dasharray="3,3"/><path d="M 600 1400.0 C 636.0 1400.0, 644.0 1448.0, 680 1448.0" fill="none" stroke="#fcd34d" stroke-width="2" stroke-linecap="round" opacity="0.9"/><path d="M 920 1448.0 C 951.5 1448.0, 958.5 1400.0, 990 1400.0" fill="none" stroke="#cbd5e1" stroke-width="1.5" stroke-dasharray="3,3"/><path d="M 920 1448.0 C 951.5 1448.0, 958.5 1448.0, 990 1448.0" fill="none" stroke="#cbd5e1" stroke-width="1.5" stroke-dasharray="3,3"/><path d="M 920 1448.0 C 951.5 1448.0, 958.5 1496.0, 990 1496.0" fill="none" stroke="#cbd5e1" stroke-width="1.5" stroke-dasharray="3,3"/><path d="M 600 1400.0 C 636.0 1400.0, 644.0 1592.0, 680 1592.0" fill="none" stroke="#fcd34d" stroke-width="2" stroke-linecap="round" opacity="0.9"/><path d="M 920 1592.0 C 951.5 1592.0, 958.5 1544.0, 990 1544.0" fill="none" stroke="#cbd5e1" stroke-width="1.5" stroke-dasharray="3,3"/><path d="M 920 1592.0 C 951.5 1592.0, 958.5 1592.0, 990 1592.0" fill="none" stroke="#cbd5e1" stroke-width="1.5" stroke-dasharray="3,3"/><path d="M 920 1592.0 C 951.5 1592.0, 958.5 1640.0, 990 1640.0" fill="none" stroke="#cbd5e1" stroke-width="1.5" stroke-dasharray="3,3"/><path d="M 310 1438.0 C 341.5 1438.0, 348.5 1952.0, 380 1952.0" fill="none" stroke="#7c3aed" stroke-width="3" stroke-linecap="round" opacity="0.85"/><path d="M 600 1952.0 C 636.0 1952.0, 644.0 1736.0, 680 1736.0" fill="none" stroke="#c4b5fd" stroke-width="2" stroke-linecap="round" opacity="0.9"/><path d="M 920 1736.0 C 951.5 1736.0, 958.5 1688.0, 990 1688.0" fill="none" stroke="#cbd5e1" stroke-width="1.5" stroke-dasharray="3,3"/><path d="M 920 1736.0 C 951.5 1736.0, 958.5 1736.0, 990 1736.0" fill="none" stroke="#cbd5e1" stroke-width="1.5" stroke-dasharray="3,3"/><path d="M 920 1736.0 C 951.5 1736.0, 958.5 1784.0, 990 1784.0" fill="none" stroke="#cbd5e1" stroke-width="1.5" stroke-dasharray="3,3"/><path d="M 600 1952.0 C 636.0 1952.0, 644.0 1880.0, 680 1880.0" fill="none" stroke="#c4b5fd" stroke-width="2" stroke-linecap="round" opacity="0.9"/><path d="M 920 1880.0 C 951.5 1880.0, 958.5 1832.0, 990 1832.0" fill="none" stroke="#cbd5e1" stroke-width="1.5" stroke-dasharray="3,3"/><path d="M 920 1880.0 C 951.5 1880.0, 958.5 1880.0, 990 1880.0" fill="none" stroke="#cbd5e1" stroke-width="1.5" stroke-dasharray="3,3"/><path d="M 920 1880.0 C 951.5 1880.0, 958.5 1928.0, 990 1928.0" fill="none" stroke="#cbd5e1" stroke-width="1.5" stroke-dasharray="3,3"/><path d="M 600 1952.0 C 636.0 1952.0, 644.0 2024.0, 680 2024.0" fill="none" stroke="#c4b5fd" stroke-width="2" stroke-linecap="round" opacity="0.9"/><path d="M 920 2024.0 C 951.5 2024.0, 958.5 1976.0, 990 1976.0" fill="none" stroke="#cbd5e1" stroke-width="1.5" stroke-dasharray="3,3"/><path d="M 920 2024.0 C 951.5 2024.0, 958.5 2024.0, 990 2024.0" fill="none" stroke="#cbd5e1" stroke-width="1.5" stroke-dasharray="3,3"/><path d="M 920 2024.0 C 951.5 2024.0, 958.5 2072.0, 990 2072.0" fill="none" stroke="#cbd5e1" stroke-width="1.5" stroke-dasharray="3,3"/><path d="M 600 1952.0 C 636.0 1952.0, 644.0 2168.0, 680 2168.0" fill="none" stroke="#c4b5fd" stroke-width="2" stroke-linecap="round" opacity="0.9"/><path d="M 920 2168.0 C 951.5 2168.0, 958.5 2120.0, 990 2120.0" fill="none" stroke="#cbd5e1" stroke-width="1.5" stroke-dasharray="3,3"/><path d="M 920 2168.0 C 951.5 2168.0, 958.5 2168.0, 990 2168.0" fill="none" stroke="#cbd5e1" stroke-width="1.5" stroke-dasharray="3,3"/><path d="M 920 2168.0 C 951.5 2168.0, 958.5 2216.0, 990 2216.0" fill="none" stroke="#cbd5e1" stroke-width="1.5" stroke-dasharray="3,3"/><path d="M 310 1438.0 C 341.5 1438.0, 348.5 2528.0, 380 2528.0" fill="none" stroke="#e11d48" stroke-width="3" stroke-linecap="round" opacity="0.85"/><path d="M 600 2528.0 C 636.0 2528.0, 644.0 2312.0, 680 2312.0" fill="none" stroke="#fda4af" stroke-width="2" stroke-linecap="round" opacity="0.9"/><path d="M 920 2312.0 C 951.5 2312.0, 958.5 2264.0, 990 2264.0" fill="none" stroke="#cbd5e1" stroke-width="1.5" stroke-dasharray="3,3"/><path d="M 920 2312.0 C 951.5 2312.0, 958.5 2312.0, 990 2312.0" fill="none" stroke="#cbd5e1" stroke-width="1.5" stroke-dasharray="3,3"/><path d="M 920 2312.0 C 951.5 2312.0, 958.5 2360.0, 990 2360.0" fill="none" stroke="#cbd5e1" stroke-width="1.5" stroke-dasharray="3,3"/><path d="M 600 2528.0 C 636.0 2528.0, 644.0 2456.0, 680 2456.0" fill="none" stroke="#fda4af" stroke-width="2" stroke-linecap="round" opacity="0.9"/><path d="M 920 2456.0 C 951.5 2456.0, 958.5 2408.0, 990 2408.0" fill="none" stroke="#cbd5e1" stroke-width="1.5" stroke-dasharray="3,3"/><path d="M 920 2456.0 C 951.5 2456.0, 958.5 2456.0, 990 2456.0" fill="none" stroke="#cbd5e1" stroke-width="1.5" stroke-dasharray="3,3"/><path d="M 920 2456.0 C 951.5 2456.0, 958.5 2504.0, 990 2504.0" fill="none" stroke="#cbd5e1" stroke-width="1.5" stroke-dasharray="3,3"/><path d="M 600 2528.0 C 636.0 2528.0, 644.0 2600.0, 680 2600.0" fill="none" stroke="#fda4af" stroke-width="2" stroke-linecap="round" opacity="0.9"/><path d="M 920 2600.0 C 951.5 2600.0, 958.5 2552.0, 990 2552.0" fill="none" stroke="#cbd5e1" stroke-width="1.5" stroke-dasharray="3,3"/><path d="M 920 2600.0 C 951.5 2600.0, 958.5 2600.0, 990 2600.0" fill="none" stroke="#cbd5e1" stroke-width="1.5" stroke-dasharray="3,3"/><path d="M 920 2600.0 C 951.5 2600.0, 958.5 2648.0, 990 2648.0" fill="none" stroke="#cbd5e1" stroke-width="1.5" stroke-dasharray="3,3"/><path d="M 600 2528.0 C 636.0 2528.0, 644.0 2744.0, 680 2744.0" fill="none" stroke="#fda4af" stroke-width="2" stroke-linecap="round" opacity="0.9"/><path d="M 920 2744.0 C 951.5 2744.0, 958.5 2696.0, 990 2696.0" fill="none" stroke="#cbd5e1" stroke-width="1.5" stroke-dasharray="3,3"/><path d="M 920 2744.0 C 951.5 2744.0, 958.5 2744.0, 990 2744.0" fill="none" stroke="#cbd5e1" stroke-width="1.5" stroke-dasharray="3,3"/><path d="M 920 2744.0 C 951.5 2744.0, 958.5 2792.0, 990 2792.0" fill="none" stroke="#cbd5e1" stroke-width="1.5" stroke-dasharray="3,3"/>
  </g>

  <!-- Nodes -->
  <g class="nodes">
    
    <g class="node root-node" transform="translate(60, 1399.0)">
      <defs>
        <linearGradient id="rootGrad" x1="0%" y1="0%" x2="100%" y2="100%">
          <stop offset="0%" stop-color="#E87722"/>
          <stop offset="100%" stop-color="#C2410C"/>
        </linearGradient>
      </defs>
      <rect width="250" height="78" rx="16" fill="url(#rootGrad)" stroke="#ea580c" stroke-width="2" filter="url(#drop-shadow-lg)"/>
      <text x="20" y="30" font-size="13" font-weight="800" fill="#fed7aa" letter-spacing="1">🧠 CH54 核心知識圖譜</text>
      <text x="20" y="56" font-size="15.5" font-weight="800" fill="#ffffff" font-family="system-ui, -apple-system, sans-serif">大型活動之緊急醫療救護</text>
    </g>
    
    
        <g class="node branch-node" transform="translate(380, 344.0)">
          <rect width="220" height="48" rx="10" fill="#eff6ff" stroke="#2563eb" stroke-width="2.2" filter="url(#drop-shadow)"/>
          <circle cx="16" cy="24.0" r="6" fill="#2563eb"/>
          <text x="32" y="29.0" font-size="13.5" font-weight="700" fill="#1e40af" font-family="system-ui, -apple-system, sans-serif">大型活動的定義與類型 ‧ 大型活動的緊…</text>
        </g>
        
            <g class="node subbranch-node" transform="translate(680, 131.0)">
              <rect width="240" height="42" rx="8" fill="#ffffff" stroke="#93c5fd" stroke-width="1.8" filter="url(#drop-shadow)"/>
              <text x="14" y="26.0" font-size="13" font-weight="600" fill="#1e293b" font-family="system-ui, -apple-system, sans-serif">大型活動的定義</text>
            </g>
            
                <g class="node leaf-node" transform="translate(990, 87.0)">
                  <rect width="470" height="34" rx="6" fill="#f8fafc" stroke="#e2e8f0" stroke-width="1.2"/>
                  <text x="12" y="21.5" font-size="12" font-weight="500" fill="#334155" font-family="system-ui, -apple-system, sans-serif">大型活動(mass gathering)</text>
                </g>
                
                <g class="node leaf-node" transform="translate(990, 135.0)">
                  <rect width="470" height="34" rx="6" fill="#f8fafc" stroke="#e2e8f0" stroke-width="1.2"/>
                  <text x="12" y="21.5" font-size="12" font-weight="500" fill="#334155" font-family="system-ui, -apple-system, sans-serif">同一群人因為特定目的聚集在同一個區域</text>
                </g>
                
                <g class="node leaf-node" transform="translate(990, 183.0)">
                  <rect width="470" height="34" rx="6" fill="#f8fafc" stroke="#e2e8f0" stroke-width="1.2"/>
                  <text x="12" y="21.5" font-size="12" font-weight="500" fill="#334155" font-family="system-ui, -apple-system, sans-serif">WHO 的定義為超過 1,000 人以上</text>
                </g>
                
            <g class="node subbranch-node" transform="translate(680, 275.0)">
              <rect width="240" height="42" rx="8" fill="#ffffff" stroke="#93c5fd" stroke-width="1.8" filter="url(#drop-shadow)"/>
              <text x="14" y="26.0" font-size="13" font-weight="600" fill="#1e293b" font-family="system-ui, -apple-system, sans-serif">為什麼要做規劃：危機管理的觀點</text>
            </g>
            
                <g class="node leaf-node" transform="translate(990, 231.0)">
                  <rect width="470" height="34" rx="6" fill="#f8fafc" stroke="#e2e8f0" stroke-width="1.2"/>
                  <text x="12" y="21.5" font-size="12" font-weight="500" fill="#334155" font-family="system-ui, -apple-system, sans-serif">除了到院前醫療救護工作，還有面對各種災難</text>
                </g>
                
                <g class="node leaf-node" transform="translate(990, 279.0)">
                  <rect width="470" height="34" rx="6" fill="#f8fafc" stroke="#e2e8f0" stroke-width="1.2"/>
                  <text x="12" y="21.5" font-size="12" font-weight="500" fill="#334155" font-family="system-ui, -apple-system, sans-serif">工作內容沒有太大差別，但發生的機會卻相對較高</text>
                </g>
                
                <g class="node leaf-node" transform="translate(990, 327.0)">
                  <rect width="470" height="34" rx="6" fill="#f8fafc" stroke="#e2e8f0" stroke-width="1.2"/>
                  <text x="12" y="21.5" font-size="12" font-weight="500" fill="#334155" font-family="system-ui, -apple-system, sans-serif">危機管理</text>
                </g>
                
            <g class="node subbranch-node" transform="translate(680, 419.0)">
              <rect width="240" height="42" rx="8" fill="#ffffff" stroke="#93c5fd" stroke-width="1.8" filter="url(#drop-shadow)"/>
              <text x="14" y="26.0" font-size="13" font-weight="600" fill="#1e293b" font-family="system-ui, -apple-system, sans-serif">歷史事件回顧：梨泰院踩踏事件</text>
            </g>
            
                <g class="node leaf-node" transform="translate(990, 375.0)">
                  <rect width="470" height="34" rx="6" fill="#f8fafc" stroke="#e2e8f0" stroke-width="1.2"/>
                  <text x="12" y="21.5" font-size="12" font-weight="500" fill="#334155" font-family="system-ui, -apple-system, sans-serif">2022 年 10 月 29 日梨泰院事件</text>
                </g>
                
                <g class="node leaf-node" transform="translate(990, 423.0)">
                  <rect width="470" height="34" rx="6" fill="#f8fafc" stroke="#e2e8f0" stroke-width="1.2"/>
                  <text x="12" y="21.5" font-size="12" font-weight="500" fill="#334155" font-family="system-ui, -apple-system, sans-serif">韓國首爾</text>
                </g>
                
                <g class="node leaf-node" transform="translate(990, 471.0)">
                  <rect width="470" height="34" rx="6" fill="#f8fafc" stroke="#e2e8f0" stroke-width="1.2"/>
                  <text x="12" y="21.5" font-size="12" font-weight="500" fill="#334155" font-family="system-ui, -apple-system, sans-serif">萬聖節</text>
                </g>
                
            <g class="node subbranch-node" transform="translate(680, 563.0)">
              <rect width="240" height="42" rx="8" fill="#ffffff" stroke="#93c5fd" stroke-width="1.8" filter="url(#drop-shadow)"/>
              <text x="14" y="26.0" font-size="13" font-weight="600" fill="#1e293b" font-family="system-ui, -apple-system, sans-serif">重點脈絡</text>
            </g>
            
                <g class="node leaf-node" transform="translate(990, 519.0)">
                  <rect width="470" height="34" rx="6" fill="#f8fafc" stroke="#e2e8f0" stroke-width="1.2"/>
                  <text x="12" y="21.5" font-size="12" font-weight="500" fill="#334155" font-family="system-ui, -apple-system, sans-serif">不應是活動要開始才進行規劃</text>
                </g>
                
                <g class="node leaf-node" transform="translate(990, 567.0)">
                  <rect width="470" height="34" rx="6" fill="#f8fafc" stroke="#e2e8f0" stroke-width="1.2"/>
                  <text x="12" y="21.5" font-size="12" font-weight="500" fill="#334155" font-family="system-ui, -apple-system, sans-serif">平時就應從減災、預防的訓練著手</text>
                </g>
                
                <g class="node leaf-node" transform="translate(990, 615.0)">
                  <rect width="470" height="34" rx="6" fill="#f8fafc" stroke="#e2e8f0" stroke-width="1.2"/>
                  <text x="12" y="21.5" font-size="12" font-weight="500" fill="#334155" font-family="system-ui, -apple-system, sans-serif">緊急應變管理必須包含減災預防、準備、應變、復原等四個階段的工作，才能構成完…</text>
                </g>
                
        <g class="node branch-node" transform="translate(380, 872.0)">
          <rect width="220" height="48" rx="10" fill="#ecfdf5" stroke="#059669" stroke-width="2.2" filter="url(#drop-shadow)"/>
          <circle cx="16" cy="24.0" r="6" fill="#059669"/>
          <text x="32" y="29.0" font-size="13.5" font-weight="700" fill="#065f46" font-family="system-ui, -apple-system, sans-serif">醫療規劃原則－醫療設站計畫 ‧ 醫療設…</text>
        </g>
        
            <g class="node subbranch-node" transform="translate(680, 707.0)">
              <rect width="240" height="42" rx="8" fill="#ffffff" stroke="#6ee7b7" stroke-width="1.8" filter="url(#drop-shadow)"/>
              <text x="14" y="26.0" font-size="13" font-weight="600" fill="#1e293b" font-family="system-ui, -apple-system, sans-serif">重點脈絡</text>
            </g>
            
                <g class="node leaf-node" transform="translate(990, 663.0)">
                  <rect width="470" height="34" rx="6" fill="#f8fafc" stroke="#e2e8f0" stroke-width="1.2"/>
                  <text x="12" y="21.5" font-size="12" font-weight="500" fill="#334155" font-family="system-ui, -apple-system, sans-serif">事前蒐集的資訊</text>
                </g>
                
                <g class="node leaf-node" transform="translate(990, 711.0)">
                  <rect width="470" height="34" rx="6" fill="#f8fafc" stroke="#e2e8f0" stroke-width="1.2"/>
                  <text x="12" y="21.5" font-size="12" font-weight="500" fill="#334155" font-family="system-ui, -apple-system, sans-serif">至少要包括</text>
                </g>
                
                <g class="node leaf-node" transform="translate(990, 759.0)">
                  <rect width="470" height="34" rx="6" fill="#f8fafc" stroke="#e2e8f0" stroke-width="1.2"/>
                  <text x="12" y="21.5" font-size="12" font-weight="500" fill="#334155" font-family="system-ui, -apple-system, sans-serif">主辦單位名稱、活動名稱、活動時間、活動地點、活動型式。</text>
                </g>
                
            <g class="node subbranch-node" transform="translate(680, 803.0)">
              <rect width="240" height="42" rx="8" fill="#ffffff" stroke="#6ee7b7" stroke-width="1.8" filter="url(#drop-shadow)"/>
              <text x="14" y="26.0" font-size="13" font-weight="600" fill="#1e293b" font-family="system-ui, -apple-system, sans-serif">醫療站的型式</text>
            </g>
            
            <g class="node subbranch-node" transform="translate(680, 899.0)">
              <rect width="240" height="42" rx="8" fill="#ffffff" stroke="#6ee7b7" stroke-width="1.8" filter="url(#drop-shadow)"/>
              <text x="14" y="26.0" font-size="13" font-weight="600" fill="#1e293b" font-family="system-ui, -apple-system, sans-serif">醫療站的標示</text>
            </g>
            
                <g class="node leaf-node" transform="translate(990, 855.0)">
                  <rect width="470" height="34" rx="6" fill="#f8fafc" stroke="#e2e8f0" stroke-width="1.2"/>
                  <text x="12" y="21.5" font-size="12" font-weight="500" fill="#334155" font-family="system-ui, -apple-system, sans-serif">中文書寫「醫療站」</text>
                </g>
                
                <g class="node leaf-node" transform="translate(990, 903.0)">
                  <rect width="470" height="34" rx="6" fill="#f8fafc" stroke="#e2e8f0" stroke-width="1.2"/>
                  <text x="12" y="21.5" font-size="12" font-weight="500" fill="#334155" font-family="system-ui, -apple-system, sans-serif">外國友人看得一頭霧水</text>
                </g>
                
                <g class="node leaf-node" transform="translate(990, 951.0)">
                  <rect width="470" height="34" rx="6" fill="#f8fafc" stroke="#e2e8f0" stroke-width="1.2"/>
                  <text x="12" y="21.5" font-size="12" font-weight="500" fill="#334155" font-family="system-ui, -apple-system, sans-serif">紅色十字「＋」標示，相對上是比較國際通用的形式</text>
                </g>
                
            <g class="node subbranch-node" transform="translate(680, 1043.0)">
              <rect width="240" height="42" rx="8" fill="#ffffff" stroke="#6ee7b7" stroke-width="1.8" filter="url(#drop-shadow)"/>
              <text x="14" y="26.0" font-size="13" font-weight="600" fill="#1e293b" font-family="system-ui, -apple-system, sans-serif">醫療站的成員與裝備</text>
            </g>
            
                <g class="node leaf-node" transform="translate(990, 999.0)">
                  <rect width="470" height="34" rx="6" fill="#f8fafc" stroke="#e2e8f0" stroke-width="1.2"/>
                  <text x="12" y="21.5" font-size="12" font-weight="500" fill="#334155" font-family="system-ui, -apple-system, sans-serif">主要成員：醫師、護理人員或救護技術員(EMT)是較常見的主要成員。</text>
                </g>
                
                <g class="node leaf-node" transform="translate(990, 1047.0)">
                  <rect width="470" height="34" rx="6" fill="#f8fafc" stroke="#e2e8f0" stroke-width="1.2"/>
                  <text x="12" y="21.5" font-size="12" font-weight="500" fill="#334155" font-family="system-ui, -apple-system, sans-serif">協助人員：有時候運動防護員、志工及行政人員也可能因任務指派至醫療站協助工作。</text>
                </g>
                
                <g class="node leaf-node" transform="translate(990, 1095.0)">
                  <rect width="470" height="34" rx="6" fill="#f8fafc" stroke="#e2e8f0" stroke-width="1.2"/>
                  <text x="12" y="21.5" font-size="12" font-weight="500" fill="#334155" font-family="system-ui, -apple-system, sans-serif">攜帶器材與裝備：通訊器材、行動腰包、救護背包、氧氣瓶、電擊器、躺椅、冰塊、…</text>
                </g>
                
        <g class="node branch-node" transform="translate(380, 1376.0)">
          <rect width="220" height="48" rx="10" fill="#fffbeb" stroke="#d97706" stroke-width="2.2" filter="url(#drop-shadow)"/>
          <circle cx="16" cy="24.0" r="6" fill="#d97706"/>
          <text x="32" y="29.0" font-size="13.5" font-weight="700" fill="#92400e" font-family="system-ui, -apple-system, sans-serif">醫療救護紀錄填寫與通報 ‧ 活動後檢討</text>
        </g>
        
            <g class="node subbranch-node" transform="translate(680, 1187.0)">
              <rect width="240" height="42" rx="8" fill="#ffffff" stroke="#fcd34d" stroke-width="1.8" filter="url(#drop-shadow)"/>
              <text x="14" y="26.0" font-size="13" font-weight="600" fill="#1e293b" font-family="system-ui, -apple-system, sans-serif">重點脈絡</text>
            </g>
            
                <g class="node leaf-node" transform="translate(990, 1143.0)">
                  <rect width="470" height="34" rx="6" fill="#f8fafc" stroke="#e2e8f0" stroke-width="1.2"/>
                  <text x="12" y="21.5" font-size="12" font-weight="500" fill="#334155" font-family="system-ui, -apple-system, sans-serif">每次醫療照護需確實填寫一份醫療救護紀錄單，醫療人員需簽名。</text>
                </g>
                
                <g class="node leaf-node" transform="translate(990, 1191.0)">
                  <rect width="470" height="34" rx="6" fill="#f8fafc" stroke="#e2e8f0" stroke-width="1.2"/>
                  <text x="12" y="21.5" font-size="12" font-weight="500" fill="#334155" font-family="system-ui, -apple-system, sans-serif">所有病人皆需填寫，包括只拿 OK 繃、噴冷凍噴劑、擦白花油，均要進行填寫，…</text>
                </g>
                
                <g class="node leaf-node" transform="translate(990, 1239.0)">
                  <rect width="470" height="34" rx="6" fill="#f8fafc" stroke="#e2e8f0" stroke-width="1.2"/>
                  <text x="12" y="21.5" font-size="12" font-weight="500" fill="#334155" font-family="system-ui, -apple-system, sans-serif">傷情通報在多個醫療站時有此需要；一般狀況定時通報、特殊案件立即通報。</text>
                </g>
                
            <g class="node subbranch-node" transform="translate(680, 1307.0)">
              <rect width="240" height="42" rx="8" fill="#ffffff" stroke="#fcd34d" stroke-width="1.8" filter="url(#drop-shadow)"/>
              <text x="14" y="26.0" font-size="13" font-weight="600" fill="#1e293b" font-family="system-ui, -apple-system, sans-serif">重點脈絡</text>
            </g>
            
                <g class="node leaf-node" transform="translate(990, 1287.0)">
                  <rect width="470" height="34" rx="6" fill="#f8fafc" stroke="#e2e8f0" stroke-width="1.2"/>
                  <text x="12" y="21.5" font-size="12" font-weight="500" fill="#334155" font-family="system-ui, -apple-system, sans-serif">整理資訊，進行檢討，作為下次活動參考</text>
                </g>
                
                <g class="node leaf-node" transform="translate(990, 1335.0)">
                  <rect width="470" height="34" rx="6" fill="#f8fafc" stroke="#e2e8f0" stroke-width="1.2"/>
                  <text x="12" y="21.5" font-size="12" font-weight="500" fill="#334155" font-family="system-ui, -apple-system, sans-serif">感謝過程中協助的單位或人員，建立良好關係</text>
                </g>
                
            <g class="node subbranch-node" transform="translate(680, 1427.0)">
              <rect width="240" height="42" rx="8" fill="#ffffff" stroke="#fcd34d" stroke-width="1.8" filter="url(#drop-shadow)"/>
              <text x="14" y="26.0" font-size="13" font-weight="600" fill="#1e293b" font-family="system-ui, -apple-system, sans-serif">檢傷與病人去向</text>
            </g>
            
                <g class="node leaf-node" transform="translate(990, 1383.0)">
                  <rect width="470" height="34" rx="6" fill="#f8fafc" stroke="#e2e8f0" stroke-width="1.2"/>
                  <text x="12" y="21.5" font-size="12" font-weight="500" fill="#334155" font-family="system-ui, -apple-system, sans-serif">檢傷分類決定治療優先順序</text>
                </g>
                
                <g class="node leaf-node" transform="translate(990, 1431.0)">
                  <rect width="470" height="34" rx="6" fill="#f8fafc" stroke="#e2e8f0" stroke-width="1.2"/>
                  <text x="12" y="21.5" font-size="12" font-weight="500" fill="#334155" font-family="system-ui, -apple-system, sans-serif">離開、需觀察、或需轉送</text>
                </g>
                
                <g class="node leaf-node" transform="translate(990, 1479.0)">
                  <rect width="470" height="34" rx="6" fill="#f8fafc" stroke="#e2e8f0" stroke-width="1.2"/>
                  <text x="12" y="21.5" font-size="12" font-weight="500" fill="#334155" font-family="system-ui, -apple-system, sans-serif">轉送的優先順序以嚴重程度考量</text>
                </g>
                
            <g class="node subbranch-node" transform="translate(680, 1571.0)">
              <rect width="240" height="42" rx="8" fill="#ffffff" stroke="#fcd34d" stroke-width="1.8" filter="url(#drop-shadow)"/>
              <text x="14" y="26.0" font-size="13" font-weight="600" fill="#1e293b" font-family="system-ui, -apple-system, sans-serif">嚴重病人與少量病人的處置</text>
            </g>
            
                <g class="node leaf-node" transform="translate(990, 1527.0)">
                  <rect width="470" height="34" rx="6" fill="#f8fafc" stroke="#e2e8f0" stroke-width="1.2"/>
                  <text x="12" y="21.5" font-size="12" font-weight="500" fill="#334155" font-family="system-ui, -apple-system, sans-serif">嚴重病人由醫療站先穩定生命現象，並通知現場總指揮，安排救援。</text>
                </g>
                
                <g class="node leaf-node" transform="translate(990, 1575.0)">
                  <rect width="470" height="34" rx="6" fill="#f8fafc" stroke="#e2e8f0" stroke-width="1.2"/>
                  <text x="12" y="21.5" font-size="12" font-weight="500" fill="#334155" font-family="system-ui, -apple-system, sans-serif">若是只有少量病人時（2 名以下嚴重病人）：現場施行急救，盡速送往責任醫院急…</text>
                </g>
                
                <g class="node leaf-node" transform="translate(990, 1623.0)">
                  <rect width="470" height="34" rx="6" fill="#f8fafc" stroke="#e2e8f0" stroke-width="1.2"/>
                  <text x="12" y="21.5" font-size="12" font-weight="500" fill="#334155" font-family="system-ui, -apple-system, sans-serif">若遇大量傷病人時（同時有 3 名以上嚴重病人）：需啟動災難應變機制。</text>
                </g>
                
        <g class="node branch-node" transform="translate(380, 1928.0)">
          <rect width="220" height="48" rx="10" fill="#f5f3ff" stroke="#7c3aed" stroke-width="2.2" filter="url(#drop-shadow)"/>
          <circle cx="16" cy="24.0" r="6" fill="#7c3aed"/>
          <text x="32" y="29.0" font-size="13.5" font-weight="700" fill="#5b21b6" font-family="system-ui, -apple-system, sans-serif">大型馬拉松活動規劃設站 ‧ 大型活動規…</text>
        </g>
        
            <g class="node subbranch-node" transform="translate(680, 1715.0)">
              <rect width="240" height="42" rx="8" fill="#ffffff" stroke="#c4b5fd" stroke-width="1.8" filter="url(#drop-shadow)"/>
              <text x="14" y="26.0" font-size="13" font-weight="600" fill="#1e293b" font-family="system-ui, -apple-system, sans-serif">東京馬拉松</text>
            </g>
            
                <g class="node leaf-node" transform="translate(990, 1671.0)">
                  <rect width="470" height="34" rx="6" fill="#f8fafc" stroke="#e2e8f0" stroke-width="1.2"/>
                  <text x="12" y="21.5" font-size="12" font-weight="500" fill="#334155" font-family="system-ui, -apple-system, sans-serif">東京馬拉松</text>
                </g>
                
                <g class="node leaf-node" transform="translate(990, 1719.0)">
                  <rect width="470" height="34" rx="6" fill="#f8fafc" stroke="#e2e8f0" stroke-width="1.2"/>
                  <text x="12" y="21.5" font-size="12" font-weight="500" fill="#334155" font-family="system-ui, -apple-system, sans-serif">一直到 2024 年出現舉辦以來首例死亡意外前，都…</text>
                </g>
                
                <g class="node leaf-node" transform="translate(990, 1767.0)">
                  <rect width="470" height="34" rx="6" fill="#f8fafc" stroke="#e2e8f0" stroke-width="1.2"/>
                  <text x="12" y="21.5" font-size="12" font-weight="500" fill="#334155" font-family="system-ui, -apple-system, sans-serif">醫療團隊和資源配置</text>
                </g>
                
            <g class="node subbranch-node" transform="translate(680, 1859.0)">
              <rect width="240" height="42" rx="8" fill="#ffffff" stroke="#c4b5fd" stroke-width="1.8" filter="url(#drop-shadow)"/>
              <text x="14" y="26.0" font-size="13" font-weight="600" fill="#1e293b" font-family="system-ui, -apple-system, sans-serif">新加坡馬拉松</text>
            </g>
            
                <g class="node leaf-node" transform="translate(990, 1815.0)">
                  <rect width="470" height="34" rx="6" fill="#f8fafc" stroke="#e2e8f0" stroke-width="1.2"/>
                  <text x="12" y="21.5" font-size="12" font-weight="500" fill="#334155" font-family="system-ui, -apple-system, sans-serif">世界馬拉松大滿貫六大賽事之一</text>
                </g>
                
                <g class="node leaf-node" transform="translate(990, 1863.0)">
                  <rect width="470" height="34" rx="6" fill="#f8fafc" stroke="#e2e8f0" stroke-width="1.2"/>
                  <text x="12" y="21.5" font-size="12" font-weight="500" fill="#334155" font-family="system-ui, -apple-system, sans-serif">新加坡馬拉松</text>
                </g>
                
                <g class="node leaf-node" transform="translate(990, 1911.0)">
                  <rect width="470" height="34" rx="6" fill="#f8fafc" stroke="#e2e8f0" stroke-width="1.2"/>
                  <text x="12" y="21.5" font-size="12" font-weight="500" fill="#334155" font-family="system-ui, -apple-system, sans-serif">可以同時容納 4050 名病人</text>
                </g>
                
            <g class="node subbranch-node" transform="translate(680, 2003.0)">
              <rect width="240" height="42" rx="8" fill="#ffffff" stroke="#c4b5fd" stroke-width="1.8" filter="url(#drop-shadow)"/>
              <text x="14" y="26.0" font-size="13" font-weight="600" fill="#1e293b" font-family="system-ui, -apple-system, sans-serif">台灣：萬金石馬拉松與臺北國際馬拉松</text>
            </g>
            
                <g class="node leaf-node" transform="translate(990, 1959.0)">
                  <rect width="470" height="34" rx="6" fill="#f8fafc" stroke="#e2e8f0" stroke-width="1.2"/>
                  <text x="12" y="21.5" font-size="12" font-weight="500" fill="#334155" font-family="system-ui, -apple-system, sans-serif">惟二 IAAF 標籤賽事</text>
                </g>
                
                <g class="node leaf-node" transform="translate(990, 2007.0)">
                  <rect width="470" height="34" rx="6" fill="#f8fafc" stroke="#e2e8f0" stroke-width="1.2"/>
                  <text x="12" y="21.5" font-size="12" font-weight="500" fill="#334155" font-family="system-ui, -apple-system, sans-serif">萬金石馬拉松及臺北國際馬拉松</text>
                </g>
                
                <g class="node leaf-node" transform="translate(990, 2055.0)">
                  <rect width="470" height="34" rx="6" fill="#f8fafc" stroke="#e2e8f0" stroke-width="1.2"/>
                  <text x="12" y="21.5" font-size="12" font-weight="500" fill="#334155" font-family="system-ui, -apple-system, sans-serif">2024 萬金石馬拉松</text>
                </g>
                
            <g class="node subbranch-node" transform="translate(680, 2147.0)">
              <rect width="240" height="42" rx="8" fill="#ffffff" stroke="#c4b5fd" stroke-width="1.8" filter="url(#drop-shadow)"/>
              <text x="14" y="26.0" font-size="13" font-weight="600" fill="#1e293b" font-family="system-ui, -apple-system, sans-serif">重點脈絡</text>
            </g>
            
                <g class="node leaf-node" transform="translate(990, 2103.0)">
                  <rect width="470" height="34" rx="6" fill="#f8fafc" stroke="#e2e8f0" stroke-width="1.2"/>
                  <text x="12" y="21.5" font-size="12" font-weight="500" fill="#334155" font-family="system-ui, -apple-system, sans-serif">依序</text>
                </g>
                
                <g class="node leaf-node" transform="translate(990, 2151.0)">
                  <rect width="470" height="34" rx="6" fill="#f8fafc" stroke="#e2e8f0" stroke-width="1.2"/>
                  <text x="12" y="21.5" font-size="12" font-weight="500" fill="#334155" font-family="system-ui, -apple-system, sans-serif">場地探勘</text>
                </g>
                
                <g class="node leaf-node" transform="translate(990, 2199.0)">
                  <rect width="470" height="34" rx="6" fill="#f8fafc" stroke="#e2e8f0" stroke-width="1.2"/>
                  <text x="12" y="21.5" font-size="12" font-weight="500" fill="#334155" font-family="system-ui, -apple-system, sans-serif">蒐集資訊</text>
                </g>
                
        <g class="node branch-node" transform="translate(380, 2504.0)">
          <rect width="220" height="48" rx="10" fill="#fff1f2" stroke="#e11d48" stroke-width="2.2" filter="url(#drop-shadow)"/>
          <circle cx="16" cy="24.0" r="6" fill="#e11d48"/>
          <text x="32" y="29.0" font-size="13.5" font-weight="700" fill="#9f1239" font-family="system-ui, -apple-system, sans-serif">問題交流 ‧ 重點整理</text>
        </g>
        
            <g class="node subbranch-node" transform="translate(680, 2291.0)">
              <rect width="240" height="42" rx="8" fill="#ffffff" stroke="#fda4af" stroke-width="1.8" filter="url(#drop-shadow)"/>
              <text x="14" y="26.0" font-size="13" font-weight="600" fill="#1e293b" font-family="system-ui, -apple-system, sans-serif">參考法規（一）：與大型活動相關之法規</text>
            </g>
            
                <g class="node leaf-node" transform="translate(990, 2247.0)">
                  <rect width="470" height="34" rx="6" fill="#f8fafc" stroke="#e2e8f0" stroke-width="1.2"/>
                  <text x="12" y="21.5" font-size="12" font-weight="500" fill="#334155" font-family="system-ui, -apple-system, sans-serif">集會遊行法（77 年 1 月 20 日）</text>
                </g>
                
                <g class="node leaf-node" transform="translate(990, 2295.0)">
                  <rect width="470" height="34" rx="6" fill="#f8fafc" stroke="#e2e8f0" stroke-width="1.2"/>
                  <text x="12" y="21.5" font-size="12" font-weight="500" fill="#334155" font-family="system-ui, -apple-system, sans-serif">緊急醫療救護法（84 年 8 月 9 日）</text>
                </g>
                
                <g class="node leaf-node" transform="translate(990, 2343.0)">
                  <rect width="470" height="34" rx="6" fill="#f8fafc" stroke="#e2e8f0" stroke-width="1.2"/>
                  <text x="12" y="21.5" font-size="12" font-weight="500" fill="#334155" font-family="system-ui, -apple-system, sans-serif">觀光旅遊地區緊急救護暨病人後送規劃方案（93 年 3 月 23 日）</text>
                </g>
                
            <g class="node subbranch-node" transform="translate(680, 2435.0)">
              <rect width="240" height="42" rx="8" fill="#ffffff" stroke="#fda4af" stroke-width="1.8" filter="url(#drop-shadow)"/>
              <text x="14" y="26.0" font-size="13" font-weight="600" fill="#1e293b" font-family="system-ui, -apple-system, sans-serif">參考法規（二）：路跑活動醫護站設置要點（法…</text>
            </g>
            
                <g class="node leaf-node" transform="translate(990, 2391.0)">
                  <rect width="470" height="34" rx="6" fill="#f8fafc" stroke="#e2e8f0" stroke-width="1.2"/>
                  <text x="12" y="21.5" font-size="12" font-weight="500" fill="#334155" font-family="system-ui, -apple-system, sans-serif">起（終）點設置醫療站</text>
                </g>
                
                <g class="node leaf-node" transform="translate(990, 2439.0)">
                  <rect width="470" height="34" rx="6" fill="#f8fafc" stroke="#e2e8f0" stroke-width="1.2"/>
                  <text x="12" y="21.5" font-size="12" font-weight="500" fill="#334155" font-family="system-ui, -apple-system, sans-serif">沿途設置救護站</text>
                </g>
                
                <g class="node leaf-node" transform="translate(990, 2487.0)">
                  <rect width="470" height="34" rx="6" fill="#f8fafc" stroke="#e2e8f0" stroke-width="1.2"/>
                  <text x="12" y="21.5" font-size="12" font-weight="500" fill="#334155" font-family="system-ui, -apple-system, sans-serif">緊急救護應變計畫</text>
                </g>
                
            <g class="node subbranch-node" transform="translate(680, 2579.0)">
              <rect width="240" height="42" rx="8" fill="#ffffff" stroke="#fda4af" stroke-width="1.8" filter="url(#drop-shadow)"/>
              <text x="14" y="26.0" font-size="13" font-weight="600" fill="#1e293b" font-family="system-ui, -apple-system, sans-serif">參考法規（三）：緊急醫療救護法</text>
            </g>
            
                <g class="node leaf-node" transform="translate(990, 2535.0)">
                  <rect width="470" height="34" rx="6" fill="#f8fafc" stroke="#e2e8f0" stroke-width="1.2"/>
                  <text x="12" y="21.5" font-size="12" font-weight="500" fill="#334155" font-family="system-ui, -apple-system, sans-serif">緊急醫療救護法（本法適用之人員包括醫師、護理師及救…</text>
                </g>
                
                <g class="node leaf-node" transform="translate(990, 2583.0)">
                  <rect width="470" height="34" rx="6" fill="#f8fafc" stroke="#e2e8f0" stroke-width="1.2"/>
                  <text x="12" y="21.5" font-size="12" font-weight="500" fill="#334155" font-family="system-ui, -apple-system, sans-serif">一、緊急傷病、大量傷病人或野外地區傷病之現場緊急救護及醫療處理。</text>
                </g>
                
                <g class="node leaf-node" transform="translate(990, 2631.0)">
                  <rect width="470" height="34" rx="6" fill="#f8fafc" stroke="#e2e8f0" stroke-width="1.2"/>
                  <text x="12" y="21.5" font-size="12" font-weight="500" fill="#334155" font-family="system-ui, -apple-system, sans-serif">二、送醫途中之緊急救護。</text>
                </g>
                
            <g class="node subbranch-node" transform="translate(680, 2723.0)">
              <rect width="240" height="42" rx="8" fill="#ffffff" stroke="#fda4af" stroke-width="1.8" filter="url(#drop-shadow)"/>
              <text x="14" y="26.0" font-size="13" font-weight="600" fill="#1e293b" font-family="system-ui, -apple-system, sans-serif">參考法規（四）：護理人員法</text>
            </g>
            
                <g class="node leaf-node" transform="translate(990, 2679.0)">
                  <rect width="470" height="34" rx="6" fill="#f8fafc" stroke="#e2e8f0" stroke-width="1.2"/>
                  <text x="12" y="21.5" font-size="12" font-weight="500" fill="#334155" font-family="system-ui, -apple-system, sans-serif">護理人員法第 24 條</text>
                </g>
                
                <g class="node leaf-node" transform="translate(990, 2727.0)">
                  <rect width="470" height="34" rx="6" fill="#f8fafc" stroke="#e2e8f0" stroke-width="1.2"/>
                  <text x="12" y="21.5" font-size="12" font-weight="500" fill="#334155" font-family="system-ui, -apple-system, sans-serif">一、健康問題之護理評估。</text>
                </g>
                
                <g class="node leaf-node" transform="translate(990, 2775.0)">
                  <rect width="470" height="34" rx="6" fill="#f8fafc" stroke="#e2e8f0" stroke-width="1.2"/>
                  <text x="12" y="21.5" font-size="12" font-weight="500" fill="#334155" font-family="system-ui, -apple-system, sans-serif">二、預防保健之護理措施。</text>
                </g>
                
  </g>
</svg>
